SplineFontDB: 3.0
FontName: Cursivah
FullName: Cursivah
FamilyName: Cursivah
Weight: Regular
Copyright: Copyright (c) 2011 TypeSETit, LLC (typesetit@att.net),\nwith Reserved Font Name "Alex Brush"\nmodified by Solve Svartskogen and David Revoy\nwith Reserved Font Name "Cursivah"
FontLog: "changelog (from AlexBrush to Cursivah):+AAoA-- Changed the +ACIA-F+ACIA glyph to a new one painted from scratch for readibility.+AAoA-- Added accent for latin-extended (especially for Polish)"
Version: 002.100
ItalicAngle: 0
UnderlinePosition: -123
UnderlineWidth: 20
Ascent: 800
Descent: 200
InvalidEm: 0
sfntRevision: 0x00020000
LayerCount: 2
Layer: 0 0 "Warstwa t+AUIA-a" 1
Layer: 1 0 "Plan pierwszy" 0
XUID: [1021 164 2034425586 12173962]
FSType: 0
OS2Version: 2
OS2_WeightWidthSlopeOnly: 0
OS2_UseTypoMetrics: 1
CreationTime: 1324157571
ModificationTime: 1554667340
PfmFamily: 17
TTFWeight: 400
TTFWidth: 5
LineGap: 0
VLineGap: 0
Panose: 2 0 4 0 0 0 0 0 0 0
OS2TypoAscent: 825
OS2TypoAOffset: 0
OS2TypoDescent: -425
OS2TypoDOffset: 0
OS2TypoLinegap: 0
OS2WinAscent: 825
OS2WinAOffset: 0
OS2WinDescent: 425
OS2WinDOffset: 0
HheadAscent: 825
HheadAOffset: 0
HheadDescent: -425
HheadDOffset: 0
OS2SubXSize: 700
OS2SubYSize: 650
OS2SubXOff: 0
OS2SubYOff: 143
OS2SupXSize: 700
OS2SupYSize: 650
OS2SupXOff: 0
OS2SupYOff: 453
OS2StrikeYSize: 50
OS2StrikeYPos: 250
OS2Vendor: 'TSI '
OS2CodePages: 20000011.00000000
OS2UnicodeRanges: 800000af.5000204a.00000000.00000000
Lookup: 258 0 0 "'kern' Kerning poziomy w tablicy 0" { "Podtablica 'kern' Kerning poziomy w tablicy 0"  } ['kern' ('DFLT' <'dflt' > ) ]
MarkAttachClasses: 1
DEI: 91125

StartChar: .notdef
Encoding: 65536 -1 0
Width: 500
Flags: MW
HStem: 0 63<63 375 125 375 125 438> 688 62<125 375 125 125>
VStem: 63 62<63 63 63 688> 375 63<63 688 688 688>
LayerCount: 2
Fore
SplineSet
63 0 m 1
 63 750 l 1
 438 750 l 1
 438 0 l 1
 63 0 l 1
125 63 m 1
 375 63 l 1
 375 688 l 1
 125 688 l 1
 125 63 l 1
EndSplineSet
EndChar

StartChar: exclam
Encoding: 33 33 2
Width: 259
Flags: MW
HStem: 2 64<107.5 125.5 103 127> 428 20G<328.5 341.5>
VStem: 77 80<28.5 42.5 25 47.5>
LayerCount: 2
Fore
SplineSet
375 424 m 0
 347 395 306 345 252 274 c 0
 199 203 168 159 160 140 c 0
 153 125 146 117 139 117 c 0
 134 117 133 123 135 136 c 0
 143 181 174 245 228 326 c 0
 282 407 319 448 338 448 c 0
 345 448 353 447 362 444 c 0
 373 441 379 436 379 431 c 0
 379 429 378 427 375 424 c 0
157 33 m 0
 157 17 135 2 119 2 c 0
 96 2 77 19 77 38 c 0
 77 57 90 66 116 66 c 0
 135 66 157 52 157 33 c 0
EndSplineSet
EndChar

StartChar: quotedbl
Encoding: 34 34 3
Width: 206
Flags: MW
HStem: 452 20G<53.5 72.5 155 174.5>
VStem: 34 71<436 448 423.5 452> 135 71<436 448 423.5 452>
LayerCount: 2
Fore
SplineSet
206 438 m 0
 206 409 194 383 171 358 c 0
 150 336 134 326 123 329 c 0
 120 330 119 331 119 332 c 0
 119 333 126 342 141 359 c 0
 156 376 163 391 162 405 c 0
 161 420 135 430 135 442 c 0
 135 462 145 472 165 472 c 0
 184 472 206 458 206 438 c 0
105 438 m 0
 105 409 93 383 69 358 c 0
 48 336 32 326 21 329 c 0
 18 330 17 331 17 332 c 0
 17 333 25 341 40 358 c 0
 56 375 63 391 61 405 c 1
 60 420 34 430 34 442 c 0
 34 462 44 472 63 472 c 0
 82 472 105 458 105 438 c 0
EndSplineSet
EndChar

StartChar: numbersign
Encoding: 35 35 4
Width: 791
Flags: MW
HStem: 212 45 431 47
LayerCount: 2
Fore
SplineSet
778 470 m 0
 778 465 770 460 755 455 c 0
 717 440 684 433 656 433 c 2
 562 433 l 1
 496 258 l 1
 640 259 l 2
 673 259 690 255 690 248 c 0
 690 243 683 238 668 233 c 0
 631 220 598 214 569 214 c 2
 479 213 l 1
 444 117 l 2
 425 63 407 37 391 38 c 0
 384 39 380 45 380 58 c 0
 380 68 382 79 385 92 c 1
 399 127 414 168 430 213 c 1
 233 212 l 1
 198 117 l 2
 179 63 161 37 146 38 c 0
 138 39 134 45 134 58 c 0
 134 68 136 79 140 92 c 1
 157 131 173 171 189 212 c 1
 84 211 l 2
 27 211 -4 218 -9 233 c 0
 -13 247 4 255 41 257 c 1
 207 258 l 1
 224 303 245 361 270 432 c 1
 172 431 l 2
 114 430 83 438 79 453 c 1
 74 466 91 474 128 477 c 1
 165 477 218 476 286 475 c 1
 332 605 l 2
 342 632 350 647 356 649 c 0
 361 650 364 646 365 638 c 0
 366 635 366 629 366 622 c 0
 365 583 360 551 350 524 c 2
 332 475 l 1
 410 474 474 473 523 473 c 1
 541 520 559 564 578 605 c 0
 590 632 599 646 605 647 c 0
 610 648 615 637 615 621 c 0
 613 585 607 553 596 524 c 2
 577 474 l 1
 630 475 680 476 727 478 c 0
 761 479 778 477 778 470 c 0
316 432 m 1
 250 258 l 1
 446 258 l 1
 459 297 480 355 508 433 c 1
 316 432 l 1
EndSplineSet
EndChar

StartChar: dollar
Encoding: 36 36 5
Width: 537
Flags: MW
HStem: 3 21G<45 53.5> 714 20G<506 513>
VStem: 184 39<484.5 495> 504 27<532.5 551.5>
LayerCount: 2
Fore
SplineSet
288 408 m 1
 235 337 190 275 153 221 c 1
 163 220 173 220 184 220 c 0
 228 220 269 228 307 243 c 0
 349 260 380 285 399 317 c 0
 406 329 410 340 410 349 c 0
 410 364 399 376 378 385 c 0
 362 392 332 400 288 408 c 1
275 449 m 1
 313 500 350 548 385 593 c 1
 328 588 284 572 253 544 c 0
 233 525 223 509 223 494 c 0
 223 475 240 460 275 449 c 1
64 71 m 0
 60 60 58 51 58 42 c 0
 58 31 62 23 69 20 c 0
 72 18 71 15 68 12 c 0
 63 6 57 3 50 3 c 0
 40 3 35 11 35 28 c 0
 35 50 41 79 54 115 c 0
 61 134 80 167 109 213 c 1
 84 219 65 228 51 239 c 0
 32 254 20 271 13 292 c 1
 4 315 6 336 17 356 c 0
 29 377 44 387 63 387 c 0
 67 387 69 386 69 385 c 0
 69 383 65 379 57 374 c 2
 40 362 l 1
 33 355 29 345 29 331 c 0
 29 307 38 285 57 265 c 0
 74 247 94 234 118 227 c 1
 153 280 197 343 251 416 c 1
 206 428 184 450 184 483 c 0
 184 507 199 531 229 555 c 0
 274 590 332 610 401 613 c 1
 466 694 502 734 510 734 c 0
 516 734 522 732 527 727 c 0
 534 720 532 711 523 700 c 0
 501 675 476 645 448 610 c 1
 503 602 531 580 531 545 c 0
 531 520 518 503 492 493 c 0
 467 483 449 481 439 488 c 0
 438 489 438 491 438 492 c 0
 438 495 443 497 453 498 c 0
 460 498 470 499 481 502 c 1
 496 509 504 521 504 536 c 0
 504 567 480 586 433 592 c 1
 393 543 353 492 313 440 c 1
 334 437 365 430 406 419 c 1
 438 406 454 387 454 362 c 0
 454 340 443 316 420 291 c 0
 399 268 377 251 353 240 c 0
 303 217 247 206 185 206 c 0
 170 206 156 207 143 208 c 1
 101 145 75 99 64 71 c 0
EndSplineSet
EndChar

StartChar: percent
Encoding: 37 37 6
Width: 701
Flags: MW
HStem: -115 21G<127.5 137.5> -82 30<339.5 380 358.5 364> 374 30<139.5 180 158.5 164> 700 20G<306 341>
VStem: 95 48 116 27<-77.5 -74> 295 47
LayerCount: 2
Fore
SplineSet
669 699 m 0xfa
 677 692 676 682 665 669 c 0
 574 564 476 441 369 298 c 0
 243 129 170 17 149 -39 c 0
 145 -51 143 -62 143 -71 c 0
 143 -84 147 -92 154 -96 c 0
 157 -97 157 -100 154 -105 c 0
 149 -112 142 -115 133 -115 c 0
 122 -115 116 -105 116 -86 c 0xf6
 116 -62 123 -30 138 11 c 0
 155 58 223 163 341 325 c 0
 450 476 539 589 606 665 c 1
 573 649 533 634 486 620 c 0
 435 605 394 598 365 597 c 1
 372 575 350 533 299 471 c 0
 246 406 201 374 164 374 c 2
 148 374 l 2
 131 374 117 383 107 401 c 0
 99 414 95 428 95 443 c 0
 95 483 124 539 182 611 c 0
 241 684 288 720 324 720 c 0
 358 720 375 702 375 666 c 0
 375 655 373 643 370 630 c 1
 372 627 386 628 411 631 c 0
 479 639 557 664 645 705 c 0
 647 706 649 707 650 707 c 0
 657 707 664 704 669 699 c 0xfa
588 163 m 0
 588 154 580 147 565 141 c 1
 572 119 550 77 499 15 c 0
 446 -50 401 -82 364 -82 c 2
 348 -82 l 2
 331 -82 317 -73 307 -55 c 0
 299 -42 295 -28 295 -13 c 0
 295 27 324 83 382 155 c 0
 441 228 488 264 524 264 c 0
 558 264 575 246 575 210 c 0
 575 199 573 187 570 174 c 1
 571 171 588 172 588 163 c 0
341 594 m 1
 330 600 317 615 301 640 c 1
 278 640 246 613 203 558 c 0
 161 504 141 463 142 435 c 0
 143 414 151 404 166 404 c 0
 194 404 231 430 276 483 c 0
 319 534 341 571 341 594 c 1
541 138 m 1
 530 144 517 159 501 184 c 1
 478 184 446 157 403 102 c 0
 361 48 341 7 342 -21 c 0
 343 -42 351 -52 366 -52 c 0
 394 -52 431 -26 476 27 c 0
 519 78 541 115 541 138 c 1
EndSplineSet
EndChar

StartChar: ampersand
Encoding: 38 38 7
Width: 753
Flags: MW
HStem: -134 21G<348.5 394> 390 55 640 20G
VStem: 13 56<168.5 194.5 155.5 196.5> 185 25<8.5 36.5 8.5 36.5> 268 41<465.5 517> 268 182 526 33<267 292 255 301.5> 615 30<594 594>
LayerCount: 2
Fore
SplineSet
211 57 m 1xfd80
 210 49 210 41 210 32 c 0
 210 -15 226 -52 257 -79 c 0
 288 -106 327 -119 374 -119 c 0
 407 -119 435 -93 435 -65 c 0
 435 -60 434 -56 432 -51 c 0
 429 -44 431 -40 439 -40 c 0
 446 -40 450 -49 450 -66 c 0xfb80
 450 -102 414 -134 374 -134 c 0
 323 -134 279 -120 244 -91 c 0
 205 -60 185 -19 185 32 c 0
 185 41 185 49 186 58 c 1
 129 63 85 77 54 102 c 0
 27 125 13 152 13 185 c 0
 13 208 20 231 35 253 c 0
 60 292 102 329 161 364 c 0
 207 392 252 413 296 427 c 1
 277 448 268 475 268 508 c 0
 268 526 272 540 280 551 c 0
 302 582 335 607 380 626 c 0
 425 646 470 657 517 660 c 0
 604 665 646 641 645 594 c 1
 642 555 607 522 571 522 c 0
 553 522 544 527 544 536 c 0
 544 543 548 546 557 546 c 0
 560 546 564 545 567 544 c 0
 578 541 589 545 599 558 c 0
 610 571 615 583 615 594 c 0
 615 612 605 625 584 633 c 0
 567 639 546 641 521 640 c 0
 477 637 436 625 399 602 c 0
 366 581 341 556 324 527 c 0
 314 510 309 493 309 474 c 0
 309 457 313 443 321 434 c 1
 348 442 372 446 395 445 c 0
 429 444 446 437 446 422 c 0
 446 419 445 415 442 412 c 1
 433 397 416 390 392 390 c 0
 358 390 330 399 307 416 c 1
 269 405 228 382 183 349 c 0
 134 313 101 278 84 244 c 0
 74 223 69 204 69 185 c 0
 69 126 109 93 190 86 c 1
 205 180 254 259 334 308 c 0
 402 350 507 362 581 375 c 0
 646 386 685 399 705 414 c 0
 725 429 730 447 725 460 c 0
 724 464 725 466 728 467 c 0
 731 468 734 467 737 464 c 0
 742 457 745 450 745 441 c 0
 745 427 738 413 725 398 c 1
 680 353 605 350 540 334 c 1
 553 322 559 304 559 280 c 0
 559 230 531 183 475 138 c 0
 414 89 339 62 251 58 c 0
 237 57 224 57 211 57 c 1xfd80
439 322 m 1
 310 274 235 195 214 85 c 1
 229 85 243 86 258 88 c 0
 343 97 412 124 463 170 c 0
 505 208 526 247 526 287 c 0
 526 316 513 331 488 331 c 0
 481 331 464 328 439 322 c 1
387 428 m 0
 371 428 353 426 333 422 c 1
 350 411 368 406 387 406 c 0
 404 406 413 410 416 418 c 1
 417 425 408 428 387 428 c 0
EndSplineSet
EndChar

StartChar: quotesingle
Encoding: 39 39 8
Width: 130
Flags: MW
HStem: 416 20G<119.5 138.5>
VStem: 100 71<400 412.5 388.5 416>
LayerCount: 2
Fore
SplineSet
171 403 m 0
 171 374 157 343 130 310 c 0
 105 280 87 266 76 269 c 0
 74 270 73 271 73 273 c 0
 73 275 82 288 101 312 c 0
 120 336 129 355 127 369 c 1
 126 384 100 394 100 406 c 0
 100 426 110 436 129 436 c 0
 148 436 171 422 171 403 c 0
EndSplineSet
EndChar

StartChar: parenleft
Encoding: 40 40 9
Width: 375
Flags: MW
HStem: 740 20G
VStem: -5 57<172 195 113.5 233>
LayerCount: 2
Fore
SplineSet
615 760 m 1
 628 758 635 754 635 748 c 0
 635 742 627 738 610 737 c 0
 494 726 386 678 286 591 c 0
 213 527 155 454 112 373 c 0
 72 297 52 227 52 163 c 0
 52 64 104 -1 201 -9 c 0
 216 -10 224 -14 224 -20 c 0
 224 -31 213 -36 191 -34 c 0
 138 -29 93 -6 56 36 c 0
 15 81 -5 138 -5 206 c 0
 -5 260 9 317 36 376 c 0
 75 461 147 542 253 618 c 0
 371 703 492 750 615 760 c 1
EndSplineSet
EndChar

StartChar: parenright
Encoding: 41 41 10
Width: 651
Flags: MW
HStem: -35 21G
VStem: 593 56<529 553.5 493 610.5>
LayerCount: 2
Fore
SplineSet
608 349 m 0
 569 264 497 183 391 107 c 0
 273 22 153 -25 30 -35 c 1
 16 -33 9 -29 9 -23 c 0
 9 -17 17 -13 34 -12 c 0
 150 -1 258 47 358 134 c 0
 432 198 490 270 533 351 c 0
 573 427 593 497 593 561 c 0
 593 660 542 726 443 734 c 0
 428 735 421 739 421 745 c 0
 421 756 432 761 453 759 c 0
 506 754 551 731 588 689 c 0
 629 644 649 587 649 520 c 0
 649 466 635 409 608 349 c 0
EndSplineSet
EndChar

StartChar: asterisk
Encoding: 42 42 11
Width: 352
Flags: MW
HStem: 218 21G<151.5 156.5> 338 26
LayerCount: 2
Fore
SplineSet
320 351 m 0
 310 344 294 340 273 339 c 0
 261 338 242 338 216 337 c 1
 262 275 l 2
 275 258 282 248 281 245 c 0
 279 240 274 240 265 246 c 0
 251 255 227 279 192 317 c 1
 174 254 l 1
 169 241 167 234 167 233 c 0
 163 223 159 218 154 218 c 0
 149 218 147 222 146 230 c 0
 145 233 145 238 145 243 c 2
 159 319 l 1
 107 280 l 2
 87 266 74 261 67 266 c 0
 66 267 65 269 65 271 c 0
 65 276 69 282 77 290 c 1
 143 338 l 1
 80 338 l 2
 55 338 42 342 40 349 c 0
 38 356 45 360 62 363 c 1
 151 367 l 1
 141 382 129 400 114 421 c 1
 102 435 96 446 96 454 c 0
 96 459 98 461 103 461 c 0
 108 461 114 457 123 449 c 1
 174 385 l 1
 192 459 l 2
 194 470 198 481 204 492 c 1
 209 495 212 491 213 480 c 0
 215 463 211 430 202 381 c 1
 260 421 l 2
 278 434 288 439 291 438 c 0
 296 436 296 431 290 422 c 0
 280 408 257 389 222 364 c 1
 301 364 l 2
 314 364 321 363 323 360 c 0
 326 357 325 354 320 351 c 0
EndSplineSet
EndChar

StartChar: plus
Encoding: 43 43 12
Width: 406
Flags: MW
HStem: 212 48<120.5 171>
LayerCount: 2
Fore
SplineSet
234 437 m 1
 242 438 246 427 246 402 c 0
 246 389 241 341 231 260 c 1
 248 260 l 1
 319 259 368 260 396 262 c 1
 401 252 380 242 334 233 c 1
 297 228 260 222 223 216 c 1
 214 182 203 150 191 121 c 0
 176 82 164 64 156 67 c 0
 144 70 136 86 140 98 c 2
 171 212 l 1
 70 212 19 220 19 235 c 0
 19 250 35 259 44 259 c 2
 44 259 60 259 92 260 c 1
 185 260 l 1
 188 273 192 284 195 294 c 0
 215 359 228 407 234 437 c 1
EndSplineSet
EndChar

StartChar: comma
Encoding: 44 44 13
Width: 194
Flags: MW
HStem: 43 20G<116.5 135.5>
VStem: 97 71<27 39 14.5 43>
LayerCount: 2
Fore
SplineSet
168 29 m 0
 168 0 156 -26 133 -51 c 0
 112 -73 96 -83 85 -80 c 0
 82 -79 81 -78 81 -77 c 0
 81 -76 89 -67 104 -50 c 0
 119 -33 126 -18 124 -4 c 1
 123 11 97 21 97 33 c 0
 97 53 107 63 126 63 c 0
 145 63 168 49 168 29 c 0
EndSplineSet
EndChar

StartChar: period
Encoding: 46 46 14
Width: 226
Flags: MW
HStem: -1 64<118.5 135.5 113.5 138>
VStem: 88 80<24.5 39 21 43.5>
LayerCount: 2
Fore
SplineSet
168 29 m 0
 168 13 146 -1 130 -1 c 0
 107 -1 88 15 88 34 c 0
 88 53 101 63 126 63 c 0
 145 63 168 49 168 29 c 0
EndSplineSet
EndChar

StartChar: slash
Encoding: 47 47 15
Width: 604
Flags: MW
HStem: -124 21G<38.5 48.5> 678 20G<553 564.5>
LayerCount: 2
Fore
SplineSet
580 690 m 0
 588 683 587 673 576 660 c 0
 485 555 387 432 280 289 c 0
 154 120 81 8 60 -48 c 0
 56 -60 54 -71 54 -80 c 0
 54 -93 58 -101 65 -105 c 0
 68 -106 68 -109 65 -114 c 0
 60 -121 53 -124 44 -124 c 0
 33 -124 27 -114 27 -95 c 0
 27 -71 34 -39 49 2 c 0
 70 59 157 190 310 396 c 1
 461 597 545 698 561 698 c 0
 568 698 575 695 580 690 c 0
EndSplineSet
EndChar

StartChar: zero
Encoding: 48 48 16
Width: 576
Flags: MW
HStem: -9 21G<147.5 210.5> 623 20G<537.5 578>
VStem: 33 46<76.5 132 70.5 146.5> 607 53<425 477.5 425 486.5>
LayerCount: 2
Fore
SplineSet
608 609 m 0
 587 617 567 621 547 620 c 1
 568 613 587 601 604 585 c 0
 641 550 660 505 660 450 c 0
 660 400 645 347 615 292 c 0
 586 237 547 188 498 145 c 0
 382 42 267 -9 154 -9 c 0
 141 -9 128 -8 116 -6 c 0
 61 1 33 41 33 112 c 0
 33 181 59 259 111 344 c 0
 143 397 189 449 249 500 c 0
 306 549 364 587 423 614 c 1
 420 617 419 619 419 622 c 0
 419 631 443 636 476 633 c 1
 496 640 522 643 553 643 c 0
 603 643 628 634 628 615 c 1
 627 606 620 604 608 609 c 0
483 609 m 1
 421 590 356 548 287 482 c 0
 237 433 195 383 161 331 c 0
 106 246 79 168 79 96 c 0
 79 45 95 19 128 16 c 0
 223 8 330 57 451 163 c 0
 555 254 607 354 607 461 c 0
 607 512 596 546 575 563 c 0
 542 589 511 604 483 609 c 1
EndSplineSet
EndChar

StartChar: one
Encoding: 49 49 17
Width: 349
Flags: MW
HStem: 54 25<276 302> 602 20G<442.5 463.5>
LayerCount: 2
Fore
SplineSet
158 67 m 1
 203 75 251 79 301 79 c 0
 308 79 312 75 312 68 c 0
 312 59 307 54 297 54 c 0
 253 54 205 46 154 30 c 0
 134 23 89 6 18 -22 c 0
 7 -26 -1 -11 -1 4 c 0
 -1 14 2 20 8 22 c 0
 31 32 65 44 109 59 c 1
 164 160 247 312 360 516 c 1
 323 493 276 471 220 450 c 0
 210 446 205 449 205 460 c 0
 205 466 208 470 214 473 c 0
 259 490 322 530 403 593 c 1
 409 603 l 2
 416 616 431 622 454 622 c 0
 473 622 483 617 483 607 c 0
 483 604 482 602 480 599 c 2
 158 67 l 1
EndSplineSet
EndChar

StartChar: two
Encoding: 50 50 18
Width: 648
Flags: MW
HStem: -49 38<505 539.5> 563 47<548 658.5>
VStem: 638 38 638 82<506.5 562.5>
LayerCount: 2
Fore
SplineSet
627 367 m 0xd0
 598 337 551 297 488 247 c 0
 418 192 321 132 197 67 c 1
 226 64 278 50 353 25 c 0
 424 1 482 -11 528 -11 c 0
 554 -11 578 -6 601 4 c 0
 630 16 645 34 645 57 c 0
 645 83 625 104 584 119 c 0
 579 121 576 124 576 127 c 0
 576 136 582 138 593 135 c 0
 648 119 676 92 676 55 c 0xe0
 676 23 657 -3 620 -24 c 0
 589 -41 557 -49 522 -49 c 0
 481 -49 432 -39 377 -20 c 2
 238 30 l 1
 208 39 183 44 163 44 c 1
 137 32 98 17 45 -2 c 0
 37 -4 30 -5 24 -5 c 0
 8 -5 0 1 0 13 c 0
 0 28 9 42 26 55 c 1
 41 65 57 72 74 75 c 0
 101 80 134 82 171 79 c 1
 327 173 429 239 477 277 c 0
 523 313 557 345 579 372 c 0
 610 409 629 449 636 492 c 0
 637 498 638 504 638 509 c 0
 638 545 615 563 570 563 c 0
 526 563 471 548 405 518 c 0
 344 490 296 460 261 429 c 0
 258 426 255 425 252 425 c 0
 245 425 242 429 242 437 c 0
 242 442 244 446 248 449 c 0
 295 489 355 525 426 557 c 0
 505 592 573 610 628 610 c 0
 689 610 720 586 720 539 c 0
 720 532 719 525 718 517 c 0
 710 471 680 421 627 367 c 0xd0
EndSplineSet
EndChar

StartChar: three
Encoding: 51 51 19
Width: 718
Flags: MW
HStem: -10 21G<222.5 305.5> 352 28 572 40<628.5 645>
VStem: 32 72<98 120> 660 58<270.5 289> 683 63
LayerCount: 2
Fore
SplineSet
567 380 m 1xf4
 668 369 718 334 718 274 c 0
 718 265 717 256 714 246 c 0
 694 167 635 103 537 54 c 0
 450 11 356 -10 255 -10 c 0
 190 -10 137 0 97 20 c 0
 54 41 32 71 32 110 c 0
 32 130 38 152 51 176 c 0
 68 207 101 232 150 253 c 0
 191 270 228 279 259 279 c 0
 267 279 271 276 271 271 c 0
 271 264 266 261 257 261 c 0
 236 261 208 251 175 231 c 0
 138 208 116 185 109 161 c 0
 106 149 104 138 104 127 c 0
 104 69 144 33 223 19 c 0
 300 5 381 17 464 55 c 0
 557 98 620 160 653 242 c 0
 658 254 660 265 660 276 c 0xf8
 660 302 645 322 615 335 c 0
 590 346 558 352 519 352 c 0
 480 352 447 347 421 337 c 0
 414 334 407 333 402 333 c 0
 390 333 384 339 384 350 c 0
 384 365 396 380 413 380 c 0
 471 380 525 390 574 409 c 0
 638 434 674 469 682 516 c 0
 683 521 683 525 683 529 c 0
 683 558 664 572 626 572 c 0
 593 572 552 563 504 545 c 0
 461 529 424 511 393 491 c 0
 390 489 388 488 386 488 c 0
 381 488 379 492 379 501 c 0
 379 520 385 532 398 535 c 1
 414 540 438 558 471 589 c 0
 475 593 479 594 482 593 c 0
 485 592 487 590 487 586 c 0
 487 582 485 578 481 574 c 0
 479 573 476 570 473 566 c 1
 545 597 605 612 652 612 c 0
 717 612 749 582 746 521 c 0
 743 463 684 416 567 380 c 1xf4
EndSplineSet
EndChar

StartChar: four
Encoding: 52 52 20
Width: 568
Flags: MW
HStem: 34 21G 236 25 286 39 616 20G
VStem: 630 38
LayerCount: 2
Fore
SplineSet
506 363 m 2
 471 311 421 230 406 204 c 1
 453 188 492 180 524 180 c 0
 543 180 560 186 575 197 c 1
 594 213 604 231 604 255 c 0
 604 262 603 269 601 276 c 0
 599 286 602 291 609 291 c 0
 615 291 620 287 623 281 c 0
 636 258 642 237 642 220 c 0
 642 175 601 152 520 152 c 0
 485 152 442 160 390 176 c 1
 361 120 323 10 353 -54 c 0
 354 -57 355 -61 355 -63 c 0
 355 -75 350 -81 339 -81 c 0
 334 -81 326 -79 323 -75 c 1
 288 1 323 108 354 186 c 1
 305 200 263 208 228 208 c 0
 183 208 121 191 41 158 c 1
 25 153 13 170 13 189 c 0
 13 206 20 217 35 222 c 0
 48 227 66 231 91 236 c 1
 185 287 304 384 396 443 c 0
 521 522 597 579 622 615 c 2
 624 618 l 1
 633 632 l 2
 636 636 641 639 650 639 c 0
 673 639 684 633 684 620 c 0
 684 619 683 617 682 616 c 2
 506 363 l 2
162 246 m 1
 195 250 218 251 231 251 c 0
 267 251 313 240 368 219 c 1
 392 271 464 389 533 488 c 1
 556 522 l 1
 475 473 325 361 162 246 c 1
EndSplineSet
EndChar

StartChar: five
Encoding: 53 53 21
Width: 662
Flags: MW
HStem: -8 30 418 27 418 112 554 25<675 695.5> 580 51<398.5 427> 627 20G<777 785>
VStem: -33 45<106.5 109.5> 559 74<333.5 344>
LayerCount: 2
Fore
SplineSet
685 554 m 0xd7
 652 554 606 558 548 567 c 0
 490 576 444 580 410 580 c 0
 367 580 333 571 308 552 c 0
 299 545 295 561 298 585 c 0
 299 598 302 606 307 609 c 0
 322 620 339 627 358 629 c 0
 366 630 384 631 413 631 c 0xdb
 445 631 491 622 552 605 c 0
 613 588 659 579 691 579 c 0
 704 579 719 583 736 591 c 0
 758 602 769 615 769 632 c 0
 769 642 773 647 781 647 c 0
 789 647 793 638 793 621 c 0
 793 598 778 580 748 567 c 0
 727 558 706 554 685 554 c 0xd7
154 -8 m 0
 45 -12 -33 27 -33 92 c 0
 -33 127 -11 164 32 205 c 0
 39 212 46 215 51 215 c 0
 56 215 58 213 58 208 c 0
 58 203 55 197 48 190 c 0
 24 167 12 143 12 120 c 0
 12 93 27 69 58 50 c 0
 89 31 125 22 166 22 c 0
 245 22 325 50 407 107 c 0
 492 166 542 233 557 307 c 0
 558 314 559 320 559 327 c 0
 559 361 538 386 497 403 c 1
 466 414 433 419 398 418 c 0
 353 416 313 406 278 389 c 2
 173 338 l 2
 171 337 169 337 167 337 c 0
 161 337 158 341 158 349 c 0
 158 359 162 366 171 370 c 1
 289 519 l 2
 295 526 310 530 334 530 c 0xbb
 347 530 354 528 354 524 c 0
 354 523 353 521 352 520 c 2
 236 394 l 1
 321 428 382 445 419 445 c 0
 562 445 633 410 633 339 c 0
 633 328 631 316 627 303 c 0
 600 217 539 144 442 83 c 0
 351 26 255 -4 154 -8 c 0
EndSplineSet
EndChar

StartChar: six
Encoding: 54 54 22
Width: 612
Flags: MW
HStem: -19 26<184.5 233.5 168.5 241.5> 212 35
VStem: 50 35 535 59<162.5 188.5>
LayerCount: 2
Fore
SplineSet
371 427 m 0
 306 396 246 351 189 292 c 0
 120 222 85 157 85 98 c 0
 85 37 127 7 210 7 c 0
 257 7 316 18 386 39 c 0
 419 49 450 66 480 90 c 0
 517 119 535 148 535 177 c 0
 535 200 520 212 489 212 c 0
 442 212 393 198 344 170 c 0
 287 137 255 97 246 48 c 0
 244 35 238 29 229 29 c 0
 221 29 218 35 220 46 c 0
 231 107 267 157 328 196 c 0
 381 229 436 246 494 247 c 0
 561 248 594 225 594 179 c 0
 594 143 573 109 532 76 c 1
 499 51 462 32 421 19 c 0
 339 -6 270 -19 213 -19 c 0
 156 -19 114 -7 86 17 c 0
 60 39 48 70 50 109 c 0
 53 165 80 226 133 292 c 0
 188 361 258 418 341 463 c 0
 444 519 528 558 594 580 c 1
 590 581 580 584 576 584 c 1
 572 586 571 588 572 591 c 0
 575 596 591 602 599 601 c 0
 603 601 631 603 683 606 c 0
 720 609 745 590 745 571 c 0
 745 564 741 560 734 559 c 0
 631 539 510 495 371 427 c 0
EndSplineSet
EndChar

StartChar: seven
Encoding: 55 55 23
Width: 494
Flags: MW
HStem: -15 21G<129.5 143.5> 600 44<338.5 362.5 306.5 383>
VStem: 121 28<12 31 11 55>
LayerCount: 2
Fore
SplineSet
288 259 m 0
 256 227 226 189 199 145 c 0
 166 92 149 48 149 14 c 0
 149 8 150 2 151 -3 c 0
 152 -11 148 -15 139 -15 c 0
 120 -15 121 4 121 20 c 0
 121 90 165 175 254 275 c 0
 345 378 453 479 578 578 c 1
 469 593 399 600 367 600 c 0
 310 600 266 594 237 582 c 0
 199 565 173 535 158 491 c 0
 153 478 144 471 131 471 c 0
 116 471 104 483 109 499 c 1
 110 505 l 2
 111 508 112 510 112 511 c 2
 130 547 l 2
 138 564 141 576 140 583 c 0
 139 590 140 597 143 606 c 0
 145 611 147 613 150 612 c 1
 154 609 158 598 158 581 c 1
 205 623 267 644 346 644 c 0
 379 644 422 638 476 625 c 0
 540 610 583 602 605 599 c 1
 656 637 l 2
 663 642 673 638 685 624 c 1
 698 611 700 601 693 596 c 0
 534 481 399 369 288 259 c 0
EndSplineSet
EndChar

StartChar: eight
Encoding: 56 56 24
Width: 608
Flags: MW
HStem: -18 21G<101 157.5> 600 30<494.5 521.5>
LayerCount: 2
Fore
SplineSet
718 533 m 0
 716 522 706 514 689 510 c 0
 608 492 520 460 423 415 c 1
 462 399 493 384 515 370 c 0
 564 339 588 303 588 264 c 0
 588 221 561 177 506 130 c 0
 457 89 396 54 321 23 c 0
 254 -4 189 -18 126 -18 c 0
 76 -18 41 -7 22 15 c 0
 8 31 1 50 1 72 c 0
 1 111 21 153 62 197 c 0
 138 280 228 348 331 401 c 1
 290 426 269 451 269 474 c 0
 269 481 270 487 273 494 c 0
 288 535 322 568 373 594 c 0
 420 618 469 630 520 630 c 0
 557 630 586 623 609 610 c 0
 627 599 636 585 636 568 c 0
 636 553 630 538 618 521 c 1
 702 548 l 2
 713 551 719 544 718 533 c 0
333 489 m 0
 336 465 357 445 394 428 c 1
 434 447 498 475 585 510 c 1
 590 519 596 533 604 552 c 1
 609 569 603 580 587 586 c 0
 562 595 536 600 507 600 c 0
 460 600 418 589 381 566 c 0
 345 544 329 518 333 489 c 0
359 386 m 1
 301 353 240 308 177 251 c 0
 90 171 50 106 57 55 c 0
 62 19 88 1 137 1 c 0
 179 1 231 13 292 38 c 0
 451 103 531 169 531 238 c 0
 531 278 502 313 445 342 c 2
 359 386 l 1
EndSplineSet
EndChar

StartChar: nine
Encoding: 57 57 25
Width: 440
Flags: MW
HStem: 583 43
VStem: 75 46 120 42
LayerCount: 2
Fore
SplineSet
502 444 m 0xc0
 269 229 156 47 162 -102 c 0
 163 -121 168 -132 177 -135 c 0
 187 -139 189 -143 182 -148 c 0
 178 -152 171 -153 161 -152 c 0
 135 -149 121 -131 120 -98 c 0xa0
 117 -26 154 68 229 184 c 0
 292 281 367 373 454 458 c 1
 314 361 207 313 134 313 c 0
 93 313 74 330 75 364 c 0
 77 420 113 470 182 514 c 0
 239 550 311 579 400 601 c 0
 477 620 543 628 597 626 c 0
 602 626 604 623 603 617 c 0
 602 605 587 582 576 583 c 0
 481 590 383 571 282 526 c 0
 177 480 124 429 121 373 c 0
 120 346 135 337 166 341 c 0
 211 346 280 379 373 438 c 0
 442 482 504 527 561 573 c 0
 564 576 570 577 579 577 c 0
 607 577 621 570 621 556 c 0
 621 551 618 546 612 541 c 0
 591 523 554 491 502 444 c 0xc0
EndSplineSet
EndChar

StartChar: colon
Encoding: 58 58 26
Width: 226
Flags: MW
HStem: -1 64<118.5 135.5 113.5 138> 193 64<158.5 175.5 153.5 178>
VStem: 88 80<24.5 39 21 43.5> 128 80<218.5 232.5 215 237.5>
LayerCount: 2
Fore
SplineSet
208 223 m 0xd0
 208 207 186 193 170 193 c 0
 147 193 128 209 128 228 c 0
 128 247 141 257 166 257 c 0
 185 257 208 242 208 223 c 0xd0
168 29 m 0xe0
 168 13 146 -1 130 -1 c 0
 107 -1 88 15 88 34 c 0
 88 53 101 63 126 63 c 0
 145 63 168 49 168 29 c 0xe0
EndSplineSet
EndChar

StartChar: semicolon
Encoding: 59 59 27
Width: 226
Flags: MW
HStem: 63 130<116.5 178> 193 64<158.5 175.5 153.5 178>
VStem: 97 71<27 39 14.5 43> 128 80<218.5 232.5 215 237.5>
LayerCount: 2
Fore
SplineSet
208 223 m 0x50
 208 207 186 193 170 193 c 0
 147 193 128 209 128 228 c 0
 128 247 141 257 166 257 c 0
 185 257 208 242 208 223 c 0x50
168 29 m 0xa0
 168 0 156 -26 133 -51 c 0
 112 -73 96 -83 85 -80 c 0
 82 -79 81 -78 81 -77 c 0
 81 -76 89 -67 104 -50 c 0
 119 -33 126 -18 124 -4 c 1
 123 11 97 21 97 33 c 0
 97 53 107 63 126 63 c 0
 145 63 168 49 168 29 c 0xa0
EndSplineSet
EndChar

StartChar: less
Encoding: 60 60 28
Width: 318
Flags: MW
HStem: 136 21G<217 220.5> 422 20G<218 224.5>
LayerCount: 2
Fore
SplineSet
85 256 m 0
 85 265 102 293 137 341 c 2
 203 431 l 2
 208 438 214 442 222 442 c 0
 227 442 229 440 229 436 c 0
 229 426 196 375 130 283 c 1
 195 200 227 156 227 149 c 0
 227 140 224 136 217 136 c 1
 209 140 l 1
 186 172 145 209 88 250 c 0
 86 251 85 253 85 256 c 0
EndSplineSet
EndChar

StartChar: equal
Encoding: 61 61 29
Width: 406
Flags: MW
HStem: 214 46 334 46 361 20G<183.5 212> 362 20G
LayerCount: 2
Fore
SplineSet
429 382 m 1x90
 434 371 408 361 351 351 c 2
 240 333 l 2
 227 330 193 331 140 334 c 0
 81 338 52 345 52 355 c 0
 52 371 68 379 77 379 c 1
 76 379 89 379 117 380 c 0xc0
 146 381 172 381 195 381 c 0xa0
 229 381 258 381 281 380 c 0xc0
 349 379 398 380 429 382 c 1x90
396 262 m 1
 401 251 376 240 319 230 c 1
 282 225 244 219 207 213 c 0
 194 210 161 210 107 214 c 0
 48 218 19 225 19 235 c 0
 19 250 35 259 44 259 c 1
 43 259 56 259 83 260 c 1
 163 260 l 1
 197 261 225 261 248 260 c 0
 316 259 365 259 396 262 c 1
EndSplineSet
EndChar

StartChar: greater
Encoding: 62 62 30
Width: 318
Flags: MW
HStem: 129 21G<89 95> 415 20G<93.5 97>
LayerCount: 2
Fore
SplineSet
229 315 m 0
 229 306 212 278 177 230 c 0
 155 200 133 170 110 140 c 0
 105 133 99 129 91 129 c 0
 87 129 85 131 85 135 c 0
 85 145 118 196 184 288 c 1
 119 371 86 415 86 422 c 0
 86 431 90 435 97 435 c 1
 105 431 l 1
 128 400 168 363 226 321 c 0
 228 320 229 318 229 315 c 0
EndSplineSet
EndChar

StartChar: question
Encoding: 63 63 31
Width: 401
Flags: MW
HStem: -5 63<116.5 134.5 112.5 136> 290 198<121.5 325.5> 447 41<249 296>
VStem: 87 80<20.5 34.5 17 39.5> 387 49<372.5 397.5>
LayerCount: 2
Fore
SplineSet
382 290 m 0xd8
 374 284 334 260 262 218 c 0
 215 191 183 161 166 129 c 0
 160 118 155 113 151 113 c 0
 146 113 144 117 144 126 c 0
 144 130 145 133 146 136 c 0
 163 171 192 202 234 229 c 0
 297 270 333 295 344 304 c 0
 373 330 387 354 387 376 c 0
 387 419 330 447 262 447 c 0xb8
 223 447 189 439 161 423 c 0
 128 404 110 378 106 345 c 0
 103 328 123 309 147 309 c 0
 167 309 186 319 205 339 c 0
 207 341 209 342 210 342 c 0
 213 342 214 340 214 336 c 0
 214 331 212 327 209 324 c 0
 188 301 164 290 138 290 c 0
 105 290 79 314 82 347 c 0
 86 392 110 428 153 455 c 0
 189 477 228 488 270 488 c 0
 381 488 436 456 436 393 c 0
 436 352 418 318 382 290 c 0xd8
167 25 m 0
 167 9 144 -5 128 -5 c 0
 105 -5 87 11 87 30 c 0
 87 49 100 58 125 58 c 0
 144 58 167 44 167 25 c 0
EndSplineSet
EndChar

StartChar: at
Encoding: 64 64 32
Width: 842
Flags: MW
HStem: 26 22 183 29 487 37<458.5 474.5 434 484.5 434 510> 613 25<524.5 537> 696 20<611.5 651 611.5 654.5>
VStem: 14 54<181.5 226.5 142.5 233.5> 791 30<571 582.5>
LayerCount: 2
Fore
SplineSet
805 514 m 0
 798 500 794 493 795 492 c 0
 800 475 802 458 802 439 c 0
 802 356 759 276 674 201 c 0
 543 84 396 26 233 26 c 0
 220 26 206 26 191 27 c 0
 138 30 96 47 65 78 c 0
 31 111 14 154 14 209 c 0
 14 258 28 312 55 371 c 0
 90 447 156 519 252 588 c 0
 359 664 467 706 578 715 c 0
 592 716 605 716 618 716 c 0
 684 716 735 703 771 677 c 0
 804 653 821 621 821 582 c 0
 821 560 816 537 805 514 c 0
783 528 m 0
 788 543 791 558 791 571 c 0
 791 594 784 615 769 636 c 0
 741 676 691 696 618 696 c 0
 538 696 455 671 368 620 c 0
 282 570 211 507 156 431 c 0
 97 349 68 267 68 186 c 0
 68 99 112 53 201 48 c 0
 343 39 477 91 604 204 c 0
 685 277 731 346 741 412 c 1
 740 413 739 414 737 414 c 1
 615 279 l 1
 554 220 504 190 464 190 c 0
 455 190 446 191 438 194 c 0
 409 205 394 227 394 260 c 0
 394 268 395 277 396 286 c 1
 395 287 394 288 392 288 c 1
 319 218 272 183 249 183 c 0
 232 183 217 188 202 199 c 1
 185 210 176 223 174 238 c 0
 167 290 200 351 271 420 c 0
 342 489 406 524 462 524 c 0
 487 524 503 514 508 495 c 0
 509 490 510 488 510 489 c 2
 510 487 l 1
 511 485 l 2
 512 484 513 483 514 483 c 0
 518 483 524 486 528 486 c 0
 543 486 558 470 559 461 c 0
 559 457 553 445 540 426 c 0
 519 395 497 364 475 333 c 1
 446 286 433 254 436 236 c 0
 439 220 447 212 460 212 c 0
 484 212 525 239 583 292 c 0
 642 346 694 401 740 457 c 1
 740 459 l 1
 735 496 717 527 687 554 c 0
 660 578 628 595 591 605 c 0
 574 610 551 613 523 613 c 0
 488 614 465 615 455 616 c 1
 447 618 l 1
 446 620 446 621 448 622 c 0
 480 633 510 638 539 638 c 0
 565 638 597 634 634 625 c 0
 702 609 750 577 779 528 c 0
 781 525 782 525 783 528 c 0
503 475 m 0
 498 483 490 487 479 487 c 0
 438 487 382 455 313 391 c 0
 241 324 209 270 216 228 c 0
 218 213 226 205 240 205 c 0
 274 205 320 239 379 307 c 0
 398 328 435 378 490 455 c 2
 503 473 l 2
 504 474 504 474 503 475 c 0
EndSplineSet
EndChar

StartChar: A
Encoding: 65 65 33
Width: 1020
Flags: MW
HStem: -54 20G<833 873> 261 28 512 21G<440.5 493.5> 649 20G<1119 1130.5>
VStem: -1 59<-6.5 36.5 -22.5 70.5> 539 34<443.5 448> 795 45<-3.5 34 -3.5 40>
LayerCount: 2
Fore
SplineSet
1130 601 m 0
 1123 575 1116 560 1109 555 c 0
 1093 544 1077 527 1060 504 c 0
 1051 491 1036 463 1016 422 c 0
 988 365 965 320 946 286 c 1
 951 286 983 287 1043 288 c 0
 1067 288 1079 286 1079 283 c 0
 1079 282 1078 281 1077 280 c 0
 1066 273 1018 266 933 260 c 1
 871 139 840 56 840 12 c 0
 840 -19 850 -34 869 -34 c 0
 877 -34 886 -29 897 -20 c 0
 908 -11 915 -7 917 -7 c 0
 919 -7 920 -9 920 -12 c 0
 913 -36 872 -54 836 -54 c 0
 830 -54 824 -53 819 -52 c 0
 803 -46 795 -27 795 6 c 0
 795 74 821 160 872 263 c 1
 859 263 837 262 806 261 c 0
 775 260 757 260 752 260 c 1
 663 173 573 96 483 30 c 0
 340 -74 230 -123 153 -116 c 0
 50 -107 -1 -55 -1 42 c 0
 -1 99 17 160 53 224 c 0
 101 310 167 383 251 444 c 0
 333 503 407 533 474 533 c 0
 540 533 573 509 573 460 c 0
 573 427 563 391 543 351 c 0
 523 311 503 286 482 275 c 0
 479 274 477 274 475 274 c 0
 473 274 472 275 472 276 c 2
 505 330 l 2
 528 366 539 399 539 428 c 0
 539 468 521 512 466 512 c 0
 413 512 353 484 284 429 c 0
 208 368 150 291 109 199 c 0
 75 122 58 60 58 13 c 0
 58 -58 94 -94 167 -94 c 0
 237 -94 331 -49 449 40 c 0
 504 81 590 156 706 263 c 1
 690 262 666 260 634 255 c 0
 620 252 608 250 598 250 c 0
 585 251 579 254 581 260 c 1
 584 285 597 297 619 297 c 1
 660 292 697 289 730 289 c 1
 782 337 868 423 987 548 c 0
 1064 629 1111 669 1127 669 c 0
 1134 669 1138 662 1138 649 c 0
 1138 638 1135 622 1130 601 c 0
1026 530 m 1
 770 290 l 1
 829 290 l 1
 850 289 867 289 881 289 c 1
 897 320 945 401 1026 530 c 1
EndSplineSet
EndChar

StartChar: B
Encoding: 66 66 34
Width: 819
Flags: MW
HStem: -47 21<391.5 456.5 391.5 458.5> -25 23<72.5 77> 647 23<562 648.5>
VStem: 18 34<43 59.5> 119 32<386.5 396 386.5 431.5> 704 66<185 208.5> 841 53<504.5 536.5>
LayerCount: 2
Fore
SplineSet
881 448 m 0
 867 408 831 378 772 357 c 0
 728 342 682 334 630 333 c 1
 669 331 702 317 728 291 c 0
 756 263 770 229 770 189 c 0
 770 166 765 143 754 121 c 0
 731 72 686 32 621 -1 c 0
 558 -32 493 -47 424 -47 c 0
 319 -47 247 -11 209 61 c 1
 141 4 92 -25 62 -25 c 0
 57 -25 52 -24 48 -22 c 0
 28 -11 18 10 18 40 c 0
 18 79 33 126 64 180 c 0
 92 230 117 259 139 268 c 0
 148 271 155 273 162 273 c 0
 181 273 196 257 206 225 c 2
 236 129 l 1
 257 151 283 184 315 228 c 2
 404 348 l 1
 514 491 586 568 619 581 c 0
 632 586 644 588 655 588 c 0
 682 588 700 575 700 560 c 0
 700 548 690 541 671 539 c 1
 650 527 611 493 554 438 c 0
 501 386 468 352 456 335 c 0
 381 231 312 151 249 95 c 1
 290 14 351 -26 432 -26 c 0
 481 -26 530 -11 578 19 c 0
 626 50 663 88 688 135 c 0
 699 155 704 175 704 195 c 0
 704 222 694 247 674 270 c 0
 656 291 633 306 604 316 c 1
 604 316 584 319 543 324 c 0
 512 328 496 334 496 343 c 0
 496 346 497 349 500 352 c 0
 508 361 518 366 531 366 c 0
 548 366 582 351 583 351 c 0
 594 350 607 349 621 349 c 0
 665 349 705 356 741 370 c 0
 786 388 816 415 829 451 c 0
 837 474 841 495 841 514 c 0
 841 559 819 594 774 617 c 0
 735 637 682 647 615 647 c 0
 509 647 414 627 330 587 c 0
 287 567 247 538 210 500 c 0
 170 459 150 425 151 396 c 0
 151 377 156 362 166 349 c 0
 171 342 178 336 187 329 c 0
 190 327 188 326 181 326 c 1
 140 335 119 363 119 409 c 0
 119 454 142 498 189 539 c 0
 222 568 261 593 306 612 c 0
 397 651 499 670 613 670 c 0
 694 670 760 658 809 634 c 0
 866 607 894 566 894 513 c 0
 894 493 890 471 881 448 c 0
198 89 m 1
 195 93 l 1
 168 182 147 226 131 226 c 0
 130 226 128 225 126 224 c 1
 77 153 52 96 52 52 c 0
 52 34 56 18 65 3 c 0
 67 0 70 -2 75 -2 c 0
 96 -2 137 28 198 89 c 1
EndSplineSet
EndChar

StartChar: C
Encoding: 67 67 35
Width: 726
Flags: MW
HStem: -65 35 278 23<501 557.5 495 583.5> 630 20G<559.5 611.5>
VStem: 399 21<357 393> 755 42<485.5 527.5>
LayerCount: 2
Fore
SplineSet
760 391 m 0
 699 316 626 278 541 278 c 0
 461 278 399 319 399 375 c 0
 399 411 422 446 468 481 c 0
 476 487 482 490 487 490 c 0
 490 490 492 489 492 486 c 0
 492 479 487 474 476 470 c 1
 439 440 420 410 420 379 c 0
 420 335 465 301 525 301 c 0
 590 301 652 332 710 395 c 0
 740 428 755 465 755 506 c 0
 755 549 739 582 707 603 c 1
 680 622 644 631 599 631 c 0
 535 631 469 615 402 582 c 0
 321 543 249 484 187 405 c 0
 118 318 83 236 83 159 c 0
 83 98 105 50 149 15 c 0
 193 -20 252 -35 326 -30 c 0
 388 -26 448 -9 505 20 c 0
 557 47 601 81 638 122 c 0
 649 134 657 140 663 140 c 0
 667 140 669 137 669 131 c 0
 669 123 665 115 658 108 c 0
 623 71 575 36 514 4 c 0
 443 -33 373 -56 306 -63 c 0
 291 -64 277 -65 263 -65 c 0
 177 -65 113 -38 72 17 c 0
 32 70 21 136 39 217 c 0
 57 302 104 385 181 466 c 0
 236 524 303 570 381 603 c 0
 454 634 525 650 594 650 c 0
 629 650 660 646 688 637 c 0
 761 614 797 568 797 500 c 0
 797 458 785 422 760 391 c 0
EndSplineSet
EndChar

StartChar: D
Encoding: 68 68 36
Width: 921
Flags: MW
HStem: -58 20<347.5 394.5> 607 27<531.5 565.5 483.5 603>
VStem: 15 36<18.5 40.5> 868 58<343 383 323.5 399>
LayerCount: 2
Fore
SplineSet
882 194 m 0
 832 103 756 35 655 -8 c 0
 586 -37 510 -54 427 -58 c 0
 316 -63 236 -36 187 25 c 1
 129 -20 86 -43 58 -43 c 0
 43 -43 32 -35 24 -19 c 0
 18 -6 15 9 15 25 c 0
 15 56 27 102 52 163 c 0
 81 231 108 265 133 265 c 0
 145 265 155 245 162 205 c 0
 173 146 183 105 193 81 c 1
 237 127 303 207 390 321 c 0
 499 464 571 541 605 554 c 0
 618 559 630 561 641 561 c 0
 668 561 686 548 686 533 c 0
 686 522 676 515 657 513 c 1
 633 500 597 469 549 421 c 0
 499 372 460 327 432 288 c 0
 361 189 289 109 218 50 c 2
 212 45 l 1
 249 -10 307 -38 388 -38 c 0
 401 -38 414 -37 427 -36 c 0
 612 -19 744 62 821 205 c 0
 852 262 868 317 868 369 c 0
 868 429 848 481 807 526 c 0
 774 563 737 586 698 595 c 0
 661 603 623 607 583 607 c 0
 480 607 385 583 299 536 c 0
 213 489 167 436 162 377 c 0
 160 356 165 339 177 325 c 0
 186 315 192 310 194 309 c 1
 188 309 l 1
 171 312 156 320 142 335 c 0
 127 352 119 371 120 392 c 0
 123 459 165 516 247 563 c 0
 329 610 427 634 540 634 c 0
 591 634 641 629 691 618 c 0
 751 605 804 576 849 530 c 0
 900 477 926 417 926 349 c 0
 926 298 911 247 882 194 c 0
167 54 m 1
 148 85 135 112 129 135 c 0
 125 150 122 173 120 202 c 1
 74 136 51 78 51 29 c 0
 51 8 55 -10 63 -25 c 1
 92 -12 126 14 167 54 c 1
196 310 m 1
 195 309 195 309 194 309 c 1
 195 308 196 309 196 310 c 1
EndSplineSet
EndChar

StartChar: E
Encoding: 69 69 37
Width: 691
Flags: MW
HStem: -79 29 315 22<495.5 518 489.5 530> 382 25 497 21G<688 698.5> 643 20G
VStem: 3 64<57.5 87.5 57.5 91> 310 47 327 30<75.5 102 75.5 110> 634 37<176.5 202.5 164.5 222.5> 743 33<584 584>
LayerCount: 2
Fore
SplineSet
776 583 m 0xfec0
 775 560 766 540 747 523 c 0
 729 506 709 497 688 497 c 0
 667 497 657 502 657 512 c 0
 657 518 661 521 670 521 c 0
 675 521 686 518 690 518 c 0
 718 518 743 555 743 584 c 0
 743 607 730 623 704 634 c 0
 683 642 657 645 626 643 c 0
 569 640 513 620 458 583 c 0
 394 541 362 494 362 441 c 0
 362 421 369 403 382 387 c 1
 431 402 475 408 514 407 c 0
 573 406 602 393 602 370 c 0
 602 365 600 359 596 352 c 0
 580 327 551 315 509 315 c 0
 482 315 453 320 423 330 c 0
 396 339 375 349 360 360 c 1
 235 324 133 243 86 150 c 0
 73 124 67 99 67 76 c 0
 67 39 82 9 111 -13 c 0
 144 -38 190 -50 250 -50 c 0
 267 -50 284 -49 302 -47 c 0
 407 -36 492 -2 555 55 c 0
 608 102 634 151 634 202 c 0
 634 243 614 263 575 263 c 0
 528 263 474 238 412 187 c 0
 381 162 357 118 357 86 c 0
 357 65 366 52 385 47 c 1
 392 44 395 40 395 37 c 0
 395 31 388 28 375 29 c 0
 343 30 327 50 327 88 c 0xfdc0
 327 132 348 172 390 208 c 0
 447 257 508 282 572 282 c 0
 620 282 650 267 663 237 c 0
 668 224 671 210 671 195 c 0
 671 134 637 75 568 20 c 0
 493 -41 401 -74 293 -79 c 0
 197 -84 123 -70 71 -37 c 0
 26 -8 3 30 3 77 c 0
 3 105 12 132 29 159 c 0
 91 257 196 329 343 376 c 1
 321 401 310 429 310 462 c 0
 310 487 317 510 331 529 c 0
 358 566 399 597 455 622 c 0
 508 645 564 659 621 663 c 0
 726 670 779 639 776 583 c 0xfec0
554 368 m 0
 554 377 536 382 500 382 c 0
 468 382 434 378 399 371 c 1
 412 361 426 353 440 348 c 0
 459 341 479 337 500 337 c 0
 536 337 554 347 554 368 c 0
EndSplineSet
EndChar

StartChar: F
Encoding: 70 70 38
Width: 476
Flags: HMW
HStem: 319.874 5.18719G<-384.645 -356.418> 378.168 5.92822 395.459 8.1513 501.179 4.94018G<124.331 268.114>
VStem: -842.459 75.8612<396.817 411.391 396.323 414.602> 357.207 105.853<480.43 489.94>
LayerCount: 2
Fore
SplineSet
601.395507812 661.844726562 m 2
 608.348632812 651.239257812 l 2
 620.126953125 651.239257812 627.223632812 646.915039062 627.223632812 638.258789062 c 0
 627.223632812 633.361328125 624.951171875 627.076171875 619.967773438 619.40234375 c 2
 608.478515625 608.797851562 l 1
 654.614257812 608.797851562 l 2
 703.069335938 605.258789062 740.498046875 602.900390625 772.280273438 602.900390625 c 0
 835.838867188 602.900390625 876.81640625 612.334960938 938.25 640.635742188 c 1
 947.477539062 640.635742188 l 1
 945.200195312 630.006835938 l 2
 917.640625 587.578125 811.592773438 566.356445312 765.458984375 566.356445312 c 0
 758.549804688 562.821289062 744.969726562 561.643554688 726.859375 561.643554688 c 0
 690.63671875 561.643554688 636.290039062 566.356445312 580.928710938 566.356445312 c 1
 530.387695312 502.70703125 489.051757812 439.045898438 450 386 c 1
 588.40625 386 l 1
 583.858398438 364.779296875 l 2
 572.35546875 354.163085938 563.118164062 354.163085938 551.62890625 343.55859375 c 2
 413.22265625 343.55859375 l 1
 227.206054688 78.33203125 139.877929688 -27.7587890625 77.69140625 -59.5966796875 c 0
 53.884765625 -66.0458984375 36.0517578125 -76.4072265625 12.767578125 -76.4072265625 c 0
 -2.271484375 -76.4072265625 -19.583984375 -72.0849609375 -42.2490234375 -59.5966796875 c 0
 -72.111328125 -49.04296875 -87.7841796875 -14.8671875 -87.7841796875 23.3486328125 c 0
 -87.7841796875 61.96875 -71.77734375 104.713867188 -38.2353515625 131.375976562 c 0
 -15.1162109375 145.267578125 4.94140625 153.094726562 21.5634765625 153.094726562 c 0
 43.021484375 153.094726562 58.7529296875 140.047851562 67.951171875 110.15625 c 0
 65.67578125 99.54296875 65.107421875 96.890625 63.9521484375 96.890625 c 0
 62.796875 96.890625 61.0556640625 99.5400390625 56.4384765625 99.5400390625 c 2
 56.4384765625 99.5400390625 47.0830078125 141.993164062 19.40234375 141.993164062 c 0
 -19.7822265625 131.375976562 -56.560546875 88.9365234375 -63.380859375 57.111328125 c 0
 -60.9775390625 25.2744140625 -53.8916015625 -27.7587890625 10.69921875 -27.7587890625 c 0
 12.97265625 -28.0576171875 15.2861328125 -28.205078125 17.638671875 -28.205078125 c 0
 98.8486328125 -28.205078125 226.459960938 147.666992188 367.098632812 343.55859375 c 1
 302.508789062 343.55859375 l 2
 296.471679688 352.762695312 290.4375 361.9765625 290.4375 371.19140625 c 0
 290.4375 372.592773438 290.577148438 373.995117188 290.877929688 375.396484375 c 2
 290.877929688 375.396484375 301.955078125 386.008789062 311.16015625 386.008789062 c 0
 311.30859375 386.008789062 311.45703125 386.005859375 311.604492188 386 c 2
 394.637695312 386 l 1
 394.639648438 386.002929688 486.515625 513.311523438 525.565429688 566.356445312 c 1
 470.213867188 566.356445312 417.127929688 576.973632812 398.673828125 576.973632812 c 0
 390.159179688 578.422851562 382.1640625 579.079101562 374.693359375 579.079101562 c 0
 327.484375 579.079101562 301.220703125 552.8515625 297.29296875 534.520507812 c 0
 296.936523438 532.859375 296.639648438 530.416992188 296.639648438 527.642578125 c 0
 296.639648438 518.385742188 299.946289062 505.428710938 315.3984375 505.428710938 c 0
 324.880859375 505.428710938 338.936523438 510.307617188 359.608398438 523.915039062 c 0
 365.775390625 523.915039062 367.821289062 523.915039062 367.821289062 520.75 c 0
 367.821289062 519.178710938 367.317382812 516.828125 366.563476562 513.311523438 c 0
 345.602539062 496.646484375 326.884765625 490.452148438 311.497070312 490.452148438 c 0
 283.969726562 490.452148438 267.096679688 510.274414062 267.096679688 525.436523438 c 0
 267.096679688 528.778320312 267.916015625 531.893554688 269.622070312 534.520507812 c 0
 280.994140625 587.578125 322.440429688 608.797851562 370.846679688 619.40234375 c 0
 398.528320312 619.40234375 472.344726562 619.40234375 553.126953125 608.797851562 c 0
 564.616210938 619.40234375 569.16796875 640.635742188 580.66796875 651.239257812 c 0
 589.89453125 651.239257812 592.16796875 661.844726562 601.395507812 661.844726562 c 2
EndSplineSet
EndChar

StartChar: G
Encoding: 71 71 39
Width: 828
Flags: MW
HStem: -154 21G<506.5 512> -39 26<175.5 221> 244 74 263 55 283 35 367 23<589.5 633> 599 41<609.5 666.5>
VStem: -15 57<93.5 179.5 93.5 194> 792 28<509.5 526.5>
LayerCount: 2
Fore
SplineSet
939 304 m 0xe780
 945 303 948 301 948 299 c 0
 948 292 925 286 879 283 c 2xcf80
 830 279 l 2
 811 277 798 276 791 276 c 1
 723 187 635 49 527 -138 c 0
 521 -149 515 -154 509 -154 c 0
 504 -154 501 -150 501 -141 c 0
 501 -117 520 -72 557 -6 c 1
 627 125 l 1
 584 88 531 55 469 26 c 1
 397 -9 328 -29 263 -36 c 0
 246 -38 229 -39 213 -39 c 0
 69 -39 -15 34 -15 143 c 0
 -15 245 47 349 170 454 c 0
 232 507 307 551 395 586 c 0
 483 622 564 640 637 640 c 0
 697 640 744 627 779 601 c 0
 806 580 820 556 820 529 c 0
 820 490 796 454 749 419 c 0
 702 384 656 367 610 367 c 0
 549 367 518 400 517 465 c 0
 516 498 522 515 534 515 c 0
 546 515 550 501 547 472 c 0
 540 417 563 390 616 390 c 0
 654 390 693 403 732 429 c 0
 772 456 792 484 792 514 c 0
 792 539 776 561 744 580 c 0
 722 593 689 599 644 599 c 0
 575 599 504 584 429 555 c 0
 338 520 257 467 185 397 c 0
 90 304 42 219 42 140 c 0
 42 47 119 -13 232 -13 c 0
 246 -13 260 -12 275 -10 c 0
 343 -2 420 27 506 76 c 0
 593 125 658 177 701 231 c 1
 730 274 l 1
 713 274 663 270 578 263 c 0xd780
 489 256 437 250 424 247 c 0
 416 245 408 244 400 244 c 0
 378 244 367 249 367 260 c 0
 367 277 396 291 455 304 c 0
 496 313 583 318 715 318 c 0
 827 318 902 313 939 304 c 0xe780
EndSplineSet
EndChar

StartChar: H
Encoding: 72 72 40
Width: 951
Flags: MW
HStem: -66 21G<750.5 764.5> 166 24 179 23<130.5 157.5> 689 21
VStem: 19 51<299.5 320.5 264 328.5> 635 54<594.5 612.5 577.5 636.5> 698 50<-7.5 8.5 -20.5 27.5>
LayerCount: 2
Fore
SplineSet
1260 722 m 0xde
 1219 699 1159 643 1081 552 c 0
 998 456 928 360 870 263 c 2
 831 197 l 1
 862 201 884 209 897 220 c 0
 900 222 902 221 904 217 c 0
 906 212 906 209 903 207 c 0
 883 192 855 181 818 174 c 1
 771 87 748 26 748 -9 c 0
 748 -32 758 -43 777 -43 c 0
 804 -43 845 -22 866 1 c 0
 867 2 868 3 869 3 c 0
 871 3 872 1 872 -3 c 0
 871 -8 870 -11 867 -14 c 0
 856 -25 840 -36 819 -47 c 0
 794 -60 773 -66 756 -66 c 0
 745 -66 737 -64 730 -59 c 0
 709 -45 698 -23 698 8 c 0
 698 47 716 100 751 166 c 1
 726 164 702 163 677 163 c 0
 659 163 625 164 575 166 c 2xde
 447 170 l 1
 400 95 362 27 333 -34 c 0
 324 -52 313 -61 298 -61 c 0
 288 -61 283 -56 283 -46 c 0
 283 -40 285 -33 289 -25 c 0
 312 24 349 90 398 171 c 1
 344 171 308 169 289 164 c 0
 260 157 237 142 222 119 c 0
 217 112 213 108 209 107 c 0
 205 106 203 108 203 112 c 0
 203 115 204 118 207 121 c 0
 232 155 258 179 284 192 c 0
 311 206 357 212 423 210 c 1
 464 272 521 364 594 486 c 1
 621 537 635 578 635 611 c 0
 635 662 604 688 541 689 c 0
 452 691 369 669 292 622 c 0
 225 581 171 528 129 463 c 0
 90 402 70 346 70 295 c 0
 70 233 99 202 157 202 c 0
 164 202 172 203 181 204 c 0
 216 209 249 231 279 268 c 0
 309 305 324 342 324 379 c 0
 324 399 319 416 308 430 c 0
 307 431 306 433 306 435 c 0
 306 440 309 442 314 442 c 0
 317 442 319 441 320 439 c 0
 333 422 340 401 340 377 c 0
 340 336 323 294 290 252 c 0
 257 211 222 187 185 182 c 0
 174 180 163 179 152 179 c 0xbe
 109 179 76 193 53 220 c 1
 30 245 19 279 19 320 c 0
 19 337 21 355 25 373 c 0
 45 462 102 541 197 608 c 0
 298 679 411 713 536 710 c 0
 574 709 607 700 636 683 c 0
 671 662 689 632 689 593 c 0
 689 562 677 526 652 486 c 2
 471 208 l 1
 497 207 540 203 599 197 c 0
 648 192 681 190 699 190 c 0
 729 190 751 190 765 191 c 1
 803 254 l 2
 869 365 942 464 1021 552 c 0
 1110 650 1186 711 1250 734 c 0
 1259 737 1263 735 1263 727 c 0
 1263 725 1262 723 1260 722 c 0xde
EndSplineSet
EndChar

StartChar: I
Encoding: 73 73 41
Width: 576
Flags: MW
HStem: -69 29 98 36<166.5 198.5 166.5 199.5> 580 33<799.5 823.5 799.5 836> 675 28
VStem: 21 42 339 25<325 362.5 313 366> 405 53<416.5 479 405.5 492.5> 714 32<385.5 394.5 375.5 401.5>
LayerCount: 2
Fore
SplineSet
876 601 m 0
 876 585 867 567 859 567 c 1
 860 567 844 580 828 580 c 0
 771 580 694 496 595 327 c 1
 624 324 651 329 676 343 c 0
 701 358 714 375 714 396 c 0
 714 407 707 420 707 423 c 0
 707 428 710 431 715 431 c 0
 718 431 720 430 723 428 c 0
 738 417 746 403 746 386 c 0
 746 365 734 346 711 329 c 0
 686 311 655 302 619 302 c 0
 608 302 596 303 585 305 c 1
 539 220 483 142 417 71 c 0
 329 -22 249 -69 177 -69 c 0
 71 -69 19 -5 21 122 c 0
 22 220 49 299 102 360 c 0
 147 413 199 440 258 440 c 0
 275 440 290 437 305 432 c 0
 344 417 364 386 364 339 c 0
 364 287 344 234 304 181 c 0
 263 126 221 98 178 98 c 0
 154 98 136 105 125 118 c 0
 104 141 102 183 114 217 c 0
 121 236 129 246 137 246 c 0
 143 246 146 243 146 237 c 0
 146 234 143 225 137 211 c 0
 131 198 128 186 128 176 c 0
 128 157 154 134 179 134 c 0
 218 134 255 159 290 209 c 0
 323 256 339 302 339 348 c 0
 339 384 326 407 301 418 c 0
 293 421 284 423 274 423 c 0
 226 423 179 390 132 325 c 1
 83 255 60 178 63 94 c 0
 64 58 73 28 90 3 c 0
 109 -24 134 -39 165 -40 c 0
 256 -45 372 75 515 319 c 1
 442 341 405 384 405 449 c 0
 405 536 454 607 536 655 c 0
 593 688 649 704 703 703 c 0
 742 702 776 696 807 683 c 0
 853 665 876 638 876 601 c 0
845 606 m 1
 844 625 831 641 806 655 c 1
 785 668 763 674 742 675 c 0
 698 677 651 667 602 645 c 0
 518 607 458 528 458 430 c 0
 458 381 483 353 532 344 c 1
 569 405 614 462 666 515 c 0
 729 580 780 613 819 613 c 0
 828 613 837 611 845 606 c 1
EndSplineSet
EndChar

StartChar: J
Encoding: 74 74 42
Width: 822
Flags: MW
HStem: -130 21<191 272.5> 297 25<358 358> 664 52
VStem: 39 50<7 30.5 -4.5 45.5> 451 45<201.5 223>
LayerCount: 2
Fore
SplineSet
1114 615 m 0
 1117 592 1114 580 1104 580 c 0
 1096 580 1093 588 1096 604 c 1
 1079 629 1046 646 997 656 c 1
 985 601 922 484 809 304 c 0
 734 186 647 87 546 6 c 0
 431 -85 323 -130 222 -130 c 0
 160 -130 113 -113 81 -80 c 0
 53 -51 39 -15 39 29 c 0
 39 62 46 92 61 120 c 0
 96 188 147 241 214 279 c 0
 267 310 316 324 359 322 c 0
 444 318 496 273 496 206 c 0
 496 197 495 189 493 180 c 0
 488 154 476 130 456 108 c 0
 439 89 426 80 416 80 c 0
 413 80 412 81 412 84 c 0
 412 86 413 89 415 93 c 0
 439 128 451 162 451 195 c 0
 451 251 414 293 358 297 c 0
 320 300 280 286 237 257 c 0
 187 224 146 175 114 110 c 0
 97 77 89 46 89 15 c 0
 89 -24 102 -55 128 -77 c 0
 156 -101 196 -112 248 -109 c 0
 413 -100 585 48 764 337 c 0
 874 514 931 623 934 663 c 1
 875 666 l 2
 842 667 803 659 757 643 c 0
 704 624 670 602 655 576 c 0
 649 566 646 556 646 547 c 0
 646 533 652 518 665 503 c 0
 678 488 684 479 684 477 c 0
 684 474 680 471 672 470 c 0
 655 467 639 473 624 488 c 0
 609 503 602 521 602 542 c 0
 602 560 608 577 620 593 c 0
 645 627 687 652 747 667 c 0
 790 678 836 684 883 683 c 0
 888 683 905 682 932 680 c 1
 929 697 950 716 971 716 c 0
 992 716 1001 702 1000 673 c 1
 1072 660 1110 640 1114 615 c 0
EndSplineSet
EndChar

StartChar: K
Encoding: 75 75 43
Width: 936
Flags: MW
HStem: -129 36<1019.5 1084> 320 25<290.5 300.5> 340 44<600 639.5> 703 41<1410 1537.5>
VStem: 22 40<35 84.5 35 101.5>
LayerCount: 2
Fore
SplineSet
1567 732 m 0xb8
 1580 727 1586 718 1586 704 c 0
 1586 693 1583 687 1576 687 c 0
 1573 687 1569 689 1566 693 c 0
 1560 700 1547 703 1528 703 c 0
 1507 703 1472 698 1423 687 c 0
 1347 670 1262 632 1169 575 c 0
 1110 538 1030 481 929 404 c 0
 826 325 755 274 716 249 c 1
 749 180 792 113 846 50 c 0
 901 -13 951 -54 997 -75 c 0
 1023 -87 1047 -93 1068 -93 c 0
 1100 -93 1116 -81 1116 -56 c 0
 1116 -53 1116 -49 1115 -46 c 0
 1112 -31 1121 -15 1130 -15 c 0
 1139 -15 1144 -25 1147 -46 c 0
 1151 -72 1140 -93 1115 -109 c 0
 1094 -122 1066 -129 1033 -129 c 0
 1006 -129 983 -124 964 -115 c 0
 909 -88 856 -41 803 24 c 0
 751 87 710 155 681 228 c 1
 645 207 615 195 590 193 c 1
 515 96 354 -76 191 -76 c 0
 87 -76 22 -26 22 88 c 0
 22 115 27 140 38 164 c 0
 72 239 123 291 192 320 c 0
 231 337 270 345 311 345 c 0
 344 345 368 333 381 308 c 0
 386 299 388 289 388 279 c 0
 388 270 387 265 384 262 c 0
 381 259 377 262 373 269 c 0
 357 299 340 315 322 318 c 0
 313 319 305 320 296 320 c 0xd8
 244 320 195 298 150 255 c 0
 116 222 92 188 78 153 c 0
 67 125 62 98 62 71 c 0
 62 -1 103 -42 184 -51 c 0
 215 -54 255 -41 305 -12 c 0
 380 31 460 105 544 208 c 1
 529 222 521 242 521 268 c 0
 521 297 531 323 550 346 c 0
 571 371 600 384 635 384 c 0
 644 384 654 383 663 381 c 1
 699 442 732 505 763 569 c 0
 792 629 807 664 807 675 c 0
 807 676 807 677 806 677 c 0
 802 679 779 669 736 648 c 0
 694 627 665 612 648 601 c 0
 625 586 603 568 580 545 c 0
 551 516 536 494 536 477 c 0
 536 470 539 464 546 459 c 0
 560 449 581 444 608 444 c 1
 611 443 613 441 613 440 c 0
 613 437 602 433 581 430 c 0
 560 427 543 426 531 427 c 1
 514 431 506 441 506 456 c 0
 506 479 520 507 549 540 c 0
 578 573 610 599 643 617 c 0
 742 670 805 697 832 697 c 0
 839 697 844 696 849 693 c 0
 852 691 853 687 853 682 c 0
 853 641 797 525 685 333 c 1
 689 317 696 296 707 270 c 1
 1005 497 l 2
 1206 650 1321 744 1499 744 c 0
 1524 744 1546 740 1567 732 c 0xb8
673 249 m 1
 667 265 663 278 660 289 c 1
 650 274 637 255 620 232 c 1
 626 232 630 232 633 233 c 0
 641 234 654 239 673 249 c 1
635 335 m 1
 628 338 621 340 614 340 c 0xb8
 586 340 565 311 565 282 c 0
 565 269 569 258 576 249 c 1
 583 259 l 2
 594 275 612 300 635 335 c 1
EndSplineSet
EndChar

StartChar: L
Encoding: 76 76 44
Width: 658
Flags: MW
HStem: -109 29<492.5 552 492.5 570.5> -48 27<68.5 86.5 66 100> 220 26<429.5 455 426.5 466.5> 659 20G<722.5 797>
VStem: 3 39<21.5 50> 825 34<586 621 565.5 621.5>
LayerCount: 2
Fore
SplineSet
859 592 m 0
 859 539 833 477 782 406 c 0
 742 350 687 304 618 269 c 0
 554 236 494 220 439 220 c 0
 420 220 402 222 387 227 c 1
 352 182 307 126 252 58 c 1
 299 -10 449 -80 536 -80 c 0
 568 -80 607 -77 634 -62 c 0
 664 -46 678 -21 678 4 c 0
 678 9 678 15 677 20 c 0
 675 30 679 35 682 35 c 0
 695 35 704 7 704 -5 c 0
 704 -28 692 -50 667 -71 c 0
 636 -96 596 -109 545 -109 c 0
 432 -109 304 -57 228 32 c 1
 175 -21 124 -48 76 -48 c 0
 61 -48 48 -45 38 -40 c 0
 15 -27 3 -4 3 29 c 0
 3 71 19 120 51 177 c 0
 81 230 105 258 123 261 c 1
 136 261 149 247 164 220 c 2
 227 98 l 1
 262 145 299 196 338 251 c 1
 283 276 256 311 256 358 c 0
 256 373 259 388 266 404 c 0
 281 441 320 471 355 471 c 0
 377 471 393 461 403 440 c 0
 405 436 403 430 400 432 c 0
 390 442 372 452 357 452 c 0
 314 453 279 392 283 358 c 1
 283 323 307 294 355 269 c 1
 378 302 404 342 435 387 c 0
 568 582 679 679 766 679 c 0
 828 679 859 650 859 592 c 0
790 659 m 0
 784 661 777 662 770 662 c 0
 737 662 695 634 646 578 c 0
 615 542 565 475 497 376 c 0
 470 337 438 294 403 249 c 1
 412 247 421 246 432 246 c 0
 478 246 530 261 588 292 c 0
 650 325 699 366 734 415 c 0
 795 500 825 564 825 608 c 0
 825 635 813 652 790 659 c 0
202 65 m 1
 183 91 162 129 137 178 c 0
 122 209 110 224 102 221 c 1
 90 219 77 198 63 157 c 0
 49 116 42 78 42 43 c 0
 42 0 54 -21 78 -21 c 0
 95 -21 116 -12 142 7 c 0
 165 24 185 43 202 65 c 1
EndSplineSet
EndChar

StartChar: M
Encoding: 77 77 45
Width: 1136
Flags: MW
HStem: -67 21G 630 21G<498.5 533.5>
VStem: 16 44<185.5 219.5 162 284.5> 360 21<227.5 242.5> 613 50<526.5 547.5> 903 43<-7.5 15 -18 34> 903 58
LayerCount: 2
Fore
SplineSet
1293 561 m 0xfa
 1296 550 1280 526 1245 490 c 0
 1162 405 1090 310 1029 204 c 0
 974 107 946 37 946 -7 c 0xfc
 946 -29 954 -38 971 -35 c 0
 981 -33 999 -26 1025 -15 c 0
 1054 -2 1072 5 1080 7 c 1
 1083 6 1085 4 1085 2 c 0
 1085 -8 1067 -22 1032 -40 c 0
 997 -58 968 -67 945 -67 c 0
 933 -67 925 -64 921 -58 c 0
 909 -41 903 -20 903 5 c 0
 903 63 934 145 995 252 c 1
 1035 320 1096 411 1177 524 c 1
 1107 467 1026 392 933 301 c 0
 812 182 735 92 702 33 c 0
 685 2 664 -14 639 -14 c 0
 628 -14 622 -10 622 -2 c 0
 622 1 623 3 625 6 c 0
 648 42 684 101 733 184 c 1
 804 308 856 408 888 483 c 0
 899 510 905 530 905 544 c 0
 905 555 901 560 894 560 c 0
 884 560 868 551 847 533 c 0
 774 472 691 386 598 274 c 0
 521 182 463 104 423 41 c 0
 407 16 399 -2 399 -12 c 0
 399 -20 408 -23 408 -23 c 2
 408 -24 402 -29 390 -38 c 1
 380 -43 368 -46 354 -46 c 0
 327 -46 315 -40 319 -27 c 0
 328 2 359 57 412 136 c 0
 480 237 525 307 546 345 c 0
 591 426 613 490 613 538 c 0
 613 557 610 574 603 589 c 0
 590 616 559 630 508 630 c 0
 430 630 349 596 266 529 c 0
 199 475 147 416 110 353 c 0
 77 296 60 243 60 196 c 0
 60 128 90 93 150 92 c 0
 231 90 293 118 336 175 c 0
 352 197 360 218 360 237 c 0
 360 248 357 256 350 260 c 0
 349 261 349 262 349 263 c 0
 349 266 351 267 355 267 c 0
 372 267 381 256 381 233 c 0
 381 218 375 201 363 180 c 0
 348 154 325 131 294 112 c 0
 255 88 212 76 166 76 c 0
 75 76 16 139 16 232 c 0
 16 337 85 445 222 555 c 0
 257 583 303 606 361 624 c 0
 419 642 473 651 524 651 c 0
 578 651 616 641 638 620 c 0
 655 604 663 581 663 550 c 0
 663 503 644 440 606 361 c 0
 594 336 567 291 525 226 c 1
 602 324 l 2
 641 375 706 444 796 532 c 0
 835 569 890 600 925 600 c 0
 949 600 961 587 961 562 c 0
 961 540 952 510 934 472 c 0
 910 421 880 362 844 295 c 0
 821 254 816 221 813 217 c 1
 818 224 839 248 876 291 c 0
 921 342 984 402 1065 472 c 1
 1225 604 l 2
 1238 615 1250 620 1259 620 c 0
 1269 620 1277 613 1282 599 c 0
 1283 597 1287 584 1293 561 c 0xfa
EndSplineSet
EndChar

StartChar: N
Encoding: 78 78 46
Width: 925
Flags: MW
HStem: -96 21G 596 24<490 520.5>
VStem: 2 37<147 183.5 129 243> 339 20<198.5 213.5> 592 50<496.5 518> 711 43<-36.5 -15 -47.5 5>
LayerCount: 2
Fore
SplineSet
1101 532 m 0
 1104 521 1088 497 1053 461 c 0
 970 376 898 281 837 175 c 0
 782 78 754 7 754 -37 c 0
 754 -58 762 -67 779 -64 c 0
 789 -62 807 -55 833 -44 c 0
 862 -31 880 -24 888 -22 c 1
 891 -23 893 -25 893 -27 c 0
 893 -37 875 -51 840 -69 c 0
 805 -87 776 -96 753 -96 c 0
 742 -96 734 -93 729 -87 c 0
 717 -70 711 -49 711 -24 c 0
 711 34 742 116 803 223 c 1
 843 291 904 382 985 495 c 1
 897 487 782 417 641 285 c 0
 530 180 450 89 402 12 c 0
 386 -13 378 -31 378 -41 c 0
 378 -50 387 -52 387 -52 c 2
 387 -53 381 -58 368 -67 c 1
 359 -72 347 -75 333 -75 c 0
 305 -75 293 -69 297 -56 c 0
 306 -27 337 27 390 106 c 0
 458 207 503 277 524 315 c 0
 569 396 592 460 592 508 c 0
 592 528 588 545 581 560 c 0
 570 584 542 596 499 596 c 0
 420 596 336 560 246 487 c 0
 179 432 126 374 89 313 c 0
 56 257 39 206 39 161 c 0
 39 97 69 64 128 63 c 0
 211 61 273 89 315 146 c 0
 331 168 339 189 339 208 c 0
 339 219 335 227 328 231 c 0
 327 232 327 233 327 234 c 0
 327 237 329 238 333 238 c 0
 350 238 359 227 359 204 c 0
 359 189 353 172 342 151 c 0
 327 125 304 102 273 83 c 0
 234 59 191 47 145 47 c 0
 58 47 2 103 2 191 c 0
 2 295 73 404 216 519 c 0
 252 548 299 572 356 591 c 0
 413 610 466 620 514 620 c 0
 561 620 595 610 616 591 c 0
 633 575 642 551 642 520 c 0
 642 473 623 411 584 332 c 0
 567 297 540 252 504 197 c 1
 525 224 559 257 605 296 c 0
 773 437 916 528 1033 571 c 0
 1040 574 1047 575 1053 575 c 0
 1078 575 1094 561 1101 532 c 0
EndSplineSet
EndChar

StartChar: O
Encoding: 79 79 47
Width: 784
Flags: MW
HStem: -59 21G<236.5 324.5> -58 20 533 23 615 21<621.5 661 621.5 663.5>
VStem: 24 54<69.5 128 57.5 149.5> 801 31<489 501.5>
LayerCount: 2
Fore
SplineSet
815 432 m 2x7c
 804 411 l 1
 809 394 812 375 812 356 c 0
 812 273 769 193 684 117 c 0
 553 0 406 -59 243 -59 c 0xbc
 230 -59 216 -59 201 -58 c 0
 96 -53 24 14 24 125 c 0
 24 174 38 228 65 288 c 0
 100 365 165 437 261 506 c 0
 368 583 477 625 588 634 c 0
 601 635 615 636 628 636 c 0
 694 636 745 623 781 596 c 0
 815 571 832 539 832 500 c 0
 832 478 826 455 815 432 c 2x7c
791 441 m 1
 798 458 801 474 801 490 c 0
 801 513 794 534 779 555 c 0
 750 595 700 615 627 615 c 0
 526 615 430 583 337 518 c 0
 251 458 183 381 133 286 c 0
 96 217 78 155 78 101 c 0
 78 14 122 -33 211 -38 c 0
 352 -46 487 7 614 120 c 0
 699 196 745 268 752 337 c 1
 717 298 657 253 572 201 c 1
 568 200 565 199 564 199 c 0
 558 199 567 208 590 227 c 2
 646 273 l 1
 693 314 728 348 751 376 c 1
 746 413 728 445 697 472 c 0
 670 496 638 513 601 524 c 0
 582 529 551 532 509 533 c 0
 474 534 456 536 456 538 c 0
 456 539 457 540 458 541 c 0
 489 551 519 556 548 556 c 0
 574 556 606 552 644 543 c 0
 714 526 763 492 791 441 c 1
EndSplineSet
EndChar

StartChar: P
Encoding: 80 80 48
Width: 1057
Flags: MW
HStem: -108 26<187 216.5 187 219.5> 198 24<751.5 766.5 727.5 815.5> 261 21<286 286> 366 30<293 299.5> 604 22 604 41
VStem: 43 37<13.5 56 13.5 62.5> 183 51<430 447.5> 378 43<184 205.5> 1149 47<440 472.5 430.5 478>
LayerCount: 2
Fore
SplineSet
1147 337 m 0xf7c0
 1112 295 1059 261 988 235 c 0
 920 210 851 198 780 198 c 0
 723 198 674 206 635 223 c 1
 554 104 500 29 471 0 c 0
 410 -61 338 -97 254 -106 c 0
 239 -107 226 -108 213 -108 c 0
 156 -108 113 -94 83 -66 c 0
 56 -41 43 -7 43 34 c 0
 43 91 65 145 110 194 c 0
 158 247 217 277 286 282 c 0
 370 289 421 254 421 194 c 0
 421 174 408 148 382 116 c 0
 356 84 343 73 343 84 c 0
 343 86 344 89 346 92 c 0
 367 123 378 152 378 180 c 0
 378 231 341 264 286 261 c 0
 231 258 183 231 140 180 c 0
 100 132 80 82 80 30 c 0
 80 -3 90 -30 110 -49 c 0
 132 -71 165 -82 209 -82 c 0
 224 -82 241 -81 258 -78 c 0
 320 -68 374 -42 420 1 c 0
 453 32 488 79 523 141 c 2
 610 298 l 1
 655 370 704 472 759 604 c 1
 664 605 571 596 479 576 c 0
 382 555 310 526 264 490 c 0
 244 475 234 459 234 444 c 0
 234 416 269 396 317 396 c 0
 334 396 357 399 384 406 c 0
 421 416 448 428 464 442 c 0
 470 447 475 450 478 450 c 0
 483 450 484 447 481 442 c 0
 457 414 421 393 372 379 c 0
 341 370 312 366 287 366 c 0
 222 366 183 395 183 436 c 0
 183 459 195 483 219 506 c 0
 265 551 346 583 462 604 c 0
 553 620 657 627 774 626 c 1xfbc0
 789 639 803 645 816 645 c 0
 829 645 834 638 831 624 c 1
 934 617 1017 600 1082 572 c 0
 1158 540 1196 498 1196 447 c 0
 1196 414 1180 377 1147 337 c 0xf7c0
1149 457 m 0
 1149 499 1115 533 1047 560 c 0
 988 583 914 597 824 602 c 1
 792 502 l 1
 769 445 728 369 668 274 c 1
 646 240 l 1
 655 235 667 232 680 229 c 0
 697 226 713 222 742 222 c 0
 791 222 846 231 905 250 c 0
 978 273 1037 304 1082 345 c 0
 1127 386 1149 423 1149 457 c 0
EndSplineSet
EndChar

StartChar: Q
Encoding: 81 81 49
Width: 797
Flags: MW
HStem: -206 33<693.5 727 693.5 733.5> -58 20 46 56<180.5 203> 533 23 615 21<621.5 661 621.5 663.5>
VStem: 24 54<93.5 128 84 149.5> 759 25<-152.5 -150 -170.5 -140> 801 31<489 501.5>
LayerCount: 2
Fore
SplineSet
815 432 m 2
 804 411 l 1
 809 394 812 375 812 356 c 0
 812 273 769 193 684 117 c 0
 608 49 528 1 443 -27 c 1
 578 -124 670 -173 717 -173 c 0
 737 -173 759 -162 759 -143 c 0
 759 -137 757 -130 752 -123 c 1
 750 -118 749 -115 749 -112 c 0
 749 -103 755 -105 766 -117 c 0
 778 -130 784 -143 784 -157 c 0
 784 -184 755 -206 712 -206 c 0
 643 -206 532 -152 381 -45 c 1
 326 -58 266 -62 201 -58 c 0
 170 -56 143 -49 118 -37 c 1
 109 -67 102 -82 97 -82 c 0
 90 -82 87 -73 86 -54 c 0
 85 -39 86 -28 88 -19 c 1
 45 14 24 62 24 125 c 0
 24 174 38 228 65 288 c 0
 100 365 165 437 261 506 c 0
 368 583 477 625 588 634 c 0
 601 635 615 636 628 636 c 0
 694 636 745 623 781 596 c 0
 815 571 832 539 832 500 c 0
 832 478 826 455 815 432 c 2
791 441 m 1
 798 458 801 474 801 490 c 0
 801 513 794 534 779 555 c 0
 750 595 700 615 627 615 c 0
 526 615 430 583 337 518 c 0
 251 458 183 381 133 286 c 0
 96 217 78 155 78 101 c 0
 78 67 85 39 100 17 c 1
 108 36 117 52 127 66 c 0
 144 90 167 102 194 102 c 0
 219 102 250 92 287 72 c 0
 303 63 339 41 394 6 c 2
 411 -5 l 1
 484 22 551 64 614 120 c 0
 699 195 745 268 752 337 c 1
 717 298 657 253 572 201 c 1
 568 200 565 199 564 199 c 0
 558 199 567 208 590 227 c 2
 646 273 l 1
 693 314 728 348 751 376 c 1
 746 413 728 445 697 472 c 0
 670 496 638 513 601 524 c 0
 582 529 551 532 509 533 c 0
 474 534 456 536 456 538 c 0
 456 539 457 540 458 541 c 0
 489 551 519 556 548 556 c 0
 574 556 606 552 644 543 c 0
 714 526 763 492 791 441 c 1
350 -24 m 1
 273 23 219 46 187 46 c 0
 163 46 146 35 136 14 c 1
 126 -10 l 1
 148 -27 176 -37 211 -38 c 0
 256 -40 303 -35 350 -24 c 1
EndSplineSet
EndChar

StartChar: R
Encoding: 82 82 50
Width: 752
Flags: MW
HStem: -112 41<646 653.5> -74 28 258 23<164 179.5> 270 36<554.5 607.5> 270 226<554.5 665> 602 22<551.5 614.5>
VStem: -42 28<-11.5 0.5> 854 58<466.5 482 455.5 488.5>
LayerCount: 2
Fore
SplineSet
901 414 m 0xa7
 880 365 835 328 766 302 c 0
 708 281 643 270 572 270 c 0
 537 270 506 273 479 278 c 1
 487 253 507 186 538 79 c 0
 547 50 561 20 582 -12 c 0
 609 -51 634 -71 658 -71 c 0
 686 -71 709 -43 728 14 c 1
 731 27 735 34 739 34 c 0
 742 34 745 28 748 15 c 0
 752 -2 743 -26 721 -57 c 0
 696 -94 669 -112 638 -112 c 0x97
 610 -112 583 -96 556 -64 c 0
 533 -37 509 19 483 105 c 0
 458 186 448 234 452 249 c 1
 373 144 316 74 280 39 c 0
 210 -29 139 -66 67 -73 c 0
 58 -74 50 -74 43 -74 c 0
 -14 -74 -42 -53 -42 -10 c 0
 -42 11 -35 35 -21 62 c 0
 -8 87 6 107 23 124 c 0
 45 146 63 157 78 157 c 0
 81 157 82 156 82 155 c 0
 82 152 77 146 67 138 c 0
 20 101 -14 47 -14 7 c 0
 -14 -30 12 -48 65 -46 c 0
 150 -43 270 61 423 266 c 0
 431 277 438 285 445 290 c 1
 429 296 l 1
 421 293 414 291 408 291 c 0
 394 291 387 297 387 308 c 0
 387 323 397 333 418 338 c 0
 430 341 446 336 467 321 c 1
 520 380 550 414 557 421 c 0
 606 471 639 496 657 496 c 0x4f
 673 496 681 489 681 474 c 0
 681 462 674 446 666 446 c 1
 662 445 660 447 660 452 c 0
 660 455 662 459 666 464 c 1
 667 471 666 475 662 477 c 0
 645 488 591 431 502 308 c 1
 517 307 533 306 552 306 c 0x97
 706 306 803 346 842 426 c 0
 850 443 854 459 854 474 c 0
 854 503 840 529 813 551 c 0
 788 571 754 585 712 592 c 0
 673 599 634 602 595 602 c 0
 508 602 413 578 312 529 c 0
 191 470 130 401 130 320 c 0
 130 294 147 281 181 281 c 0
 213 281 248 294 287 319 c 0
 320 341 344 364 357 388 c 0
 362 397 366 401 370 401 c 0
 375 401 376 398 374 393 c 0
 361 355 332 323 289 297 c 0
 246 271 202 258 157 258 c 0
 103 258 78 275 82 310 c 0
 92 398 146 472 243 533 c 0
 340 594 457 624 593 624 c 0
 636 624 679 621 722 614 c 0
 783 605 830 586 864 558 c 0
 896 531 912 500 912 464 c 0
 912 447 908 431 901 414 c 0xa7
EndSplineSet
EndChar

StartChar: S
Encoding: 83 83 51
Width: 748
Flags: MW
HStem: -95 58<265.5 286> 597 28<630 686.5>
VStem: -17 37<131.5 150.5> 277 59<407.5 428> 655 66<197.5 198.5> 811 41<492.5 505>
LayerCount: 2
Fore
SplineSet
849 535 m 0
 851 528 852 520 852 513 c 0
 852 472 832 444 791 428 c 0
 766 418 745 413 728 413 c 0
 717 413 709 415 703 419 c 0
 702 420 701 422 701 424 c 0
 701 428 710 431 729 432 c 0
 752 433 766 436 773 439 c 0
 798 452 811 471 811 498 c 0
 811 512 807 526 800 540 c 0
 779 578 728 597 645 597 c 0
 598 597 551 590 505 576 c 0
 456 561 417 540 388 513 c 0
 353 481 336 452 336 427 c 0
 336 388 374 360 451 342 c 1
 569 320 l 2
 617 311 652 299 675 284 c 0
 706 265 721 239 721 204 c 0
 721 191 719 176 714 159 c 0
 693 87 638 32 549 -6 c 0
 474 -39 386 -55 287 -55 c 0
 261 -55 236 -54 212 -51 c 1
 231 -62 259 -73 297 -82 c 1
 296 -82 l 1
 299 -83 300 -85 300 -86 c 0
 300 -92 293 -95 279 -95 c 0
 252 -95 218 -79 177 -46 c 1
 120 -37 79 -21 53 0 c 0
 36 14 20 34 6 59 c 0
 -9 88 -17 115 -17 141 c 0
 -17 160 -13 176 -4 191 c 0
 16 226 41 244 72 244 c 0
 95 244 109 224 113 185 c 0
 122 112 128 68 132 55 c 0
 142 23 159 -5 183 -28 c 1
 211 -34 241 -37 274 -37 c 0
 347 -37 416 -23 481 4 c 0
 553 34 605 75 636 128 c 0
 649 149 655 167 655 183 c 0
 655 214 627 239 572 256 c 1
 396 296 l 2
 324 313 277 356 277 408 c 0
 277 448 302 488 352 528 c 0
 390 559 438 583 495 600 c 0
 549 617 603 625 657 625 c 0
 756 625 832 594 849 535 c 0
147 -18 m 1
 130 1 116 21 105 44 c 0
 90 77 79 118 72 167 c 0
 67 202 62 220 55 220 c 0
 44 220 20 209 20 157 c 0
 20 106 38 62 74 25 c 0
 92 6 116 -8 147 -18 c 1
EndSplineSet
EndChar

StartChar: T
Encoding: 84 84 52
Width: 661
Flags: MW
HStem: -101 21G<142.5 208.5> 117 45<184.5 209> 247 24 441 27<362.5 402 347.5 405.5> 475 54<776 776 776 794> 513 28<955.5 982.5> 674 40<373 427.5 342.5 459.5>
VStem: 18 39
LayerCount: 2
Fore
SplineSet
1049 537 m 0xf7
 1026 521 999 513 966 513 c 0xf7
 917 513 843 535 745 580 c 0
 634 631 564 660 536 665 c 0
 508 671 477 674 442 674 c 0
 304 674 195 629 116 540 c 0
 106 529 96 510 85 484 c 0
 71 451 64 420 64 392 c 0
 64 353 78 323 105 302 c 1
 139 352 179 392 225 421 c 0
 274 452 323 468 372 468 c 0
 432 468 462 445 462 398 c 0
 462 342 429 281 363 215 c 0
 298 150 237 117 181 117 c 0
 145 117 127 132 127 163 c 0
 127 184 140 204 156 200 c 1
 156 193 154 181 154 177 c 0
 154 167 169 162 200 162 c 0
 245 162 294 186 346 234 c 0
 394 279 424 324 435 369 c 1
 448 417 430 441 381 441 c 0
 344 441 303 426 260 395 c 0
 219 366 182 328 147 281 c 1
 154 278 165 276 178 273 c 0
 182 273 201 272 238 271 c 0
 267 270 282 266 282 261 c 0
 282 251 266 246 234 247 c 0
 213 247 194 248 176 251 c 0
 161 253 147 257 134 262 c 1
 83 184 57 112 57 45 c 0
 57 -40 90 -83 156 -83 c 0
 231 -83 308 -31 389 73 c 1
 585 365 l 1
 658 471 721 526 776 529 c 1
 814 520 l 1
 827 513 833 499 832 480 c 0
 831 473 828 470 822 470 c 0
 818 470 798 475 790 475 c 0xfb
 744 475 685 425 613 326 c 2
 414 48 l 1
 329 -51 248 -101 169 -101 c 0
 116 -101 78 -86 56 -56 c 0
 37 -29 27 14 28 73 c 0
 29 144 51 213 92 281 c 1
 43 312 18 359 18 420 c 0
 18 494 51 560 116 617 c 0
 190 682 285 714 400 714 c 0
 455 714 512 706 572 691 c 0
 586 688 650 660 764 607 c 0
 861 563 933 541 978 541 c 0
 1009 541 1032 550 1047 567 c 0
 1055 576 1059 586 1059 595 c 0
 1059 605 1055 614 1046 622 c 1
 1041 629 1039 633 1039 636 c 0
 1039 637 1040 638 1041 638 c 0
 1052 638 1077 611 1077 584 c 0
 1077 566 1068 550 1049 537 c 0xf7
EndSplineSet
EndChar

StartChar: U
Encoding: 85 85 53
Width: 801
Flags: MW
HStem: -19 45<333 394> 638 23<579 597.5>
VStem: 14 33<172.5 188.5 150 238.5> 656 42<595.5 612.5>
LayerCount: 2
Fore
SplineSet
967 546 m 1
 970 531 962 510 944 483 c 2
 826 316 l 2
 782 252 742 191 707 132 c 0
 665 62 645 21 648 10 c 1
 666 16 l 1
 679 23 694 33 709 44 c 0
 727 57 742 70 753 81 c 1
 762 88 767 91 769 91 c 1
 770 90 771 90 771 89 c 0
 771 83 762 70 744 51 c 1
 697 10 662 -10 640 -10 c 0
 623 -10 614 -4 614 9 c 0
 614 22 627 52 654 101 c 0
 702 190 764 289 839 400 c 1
 829 388 808 364 776 329 c 1
 691 242 632 183 599 150 c 0
 538 89 498 51 481 38 c 0
 432 0 386 -19 345 -19 c 0
 321 -19 307 -11 303 4 c 0
 296 34 344 122 447 267 c 0
 526 378 575 448 595 479 c 0
 636 542 656 584 656 607 c 0
 656 618 652 625 643 628 c 0
 626 635 608 638 587 638 c 0
 514 638 420 599 306 521 c 0
 233 470 170 409 119 337 c 0
 71 268 47 211 47 166 c 0
 47 134 60 115 87 110 c 0
 98 108 108 107 119 107 c 0
 153 107 188 118 224 140 c 0
 242 151 265 169 292 193 c 1
 310 199 l 1
 297 174 272 151 234 128 c 0
 191 102 148 89 106 89 c 0
 96 89 86 90 76 92 c 0
 60 95 46 104 35 119 c 0
 21 137 14 159 14 186 c 0
 14 291 113 414 310 555 c 0
 349 583 394 607 447 627 c 0
 506 650 557 661 601 661 c 0
 624 661 645 657 662 650 c 0
 686 640 698 625 698 604 c 0
 698 583 683 550 654 504 c 0
 634 472 589 409 520 315 c 0
 491 276 462 232 432 181 c 0
 391 112 371 66 371 43 c 0
 371 32 376 26 385 26 c 0
 403 26 437 45 486 82 c 0
 603 171 741 316 900 517 c 0
 925 549 946 565 961 565 c 0
 967 565 970 562 970 556 c 0
 970 553 969 550 967 546 c 1
EndSplineSet
EndChar

StartChar: V
Encoding: 86 86 54
Width: 690
Flags: MW
HStem: 638 21G<366.5 395.5> 658 32 671 20G<1145 1165.5>
VStem: -19 38<262.5 303.5 262.5 315>
LayerCount: 2
Fore
SplineSet
1165 658 m 0x50
 1130 658 1093 648 1054 627 c 0
 977 586 888 512 788 405 c 0
 731 344 654 253 558 132 c 0
 483 37 437 -16 421 -25 c 0
 364 -58 333 -74 329 -71 c 1
 328 -69 327 -66 327 -61 c 0
 327 -38 346 18 383 107 c 1
 406 159 428 211 450 263 c 1
 496 398 l 2
 512 443 520 476 520 497 c 0
 520 544 506 579 478 604 c 0
 452 627 417 638 374 638 c 0
 318 638 261 620 204 585 c 1
 143 546 95 495 62 431 c 0
 33 376 19 326 19 281 c 0
 19 244 29 213 48 187 c 0
 63 166 81 152 102 144 c 0
 119 138 136 135 153 135 c 0
 188 135 219 147 245 170 c 0
 272 193 285 222 285 257 c 0
 285 262 285 268 284 274 c 1
 281 282 283 286 290 286 c 0
 297 286 301 281 302 270 c 0
 303 265 304 259 304 253 c 0
 304 220 288 189 255 160 c 0
 222 131 184 116 141 116 c 0
 114 116 87 123 62 136 c 0
 8 165 -19 216 -19 289 c 0
 -19 341 -5 391 23 440 c 0
 62 508 119 562 194 603 c 0
 263 640 332 659 401 659 c 0
 451 659 492 648 523 627 c 0
 557 604 575 571 578 528 c 0
 582 466 554 369 494 237 c 0
 430 96 398 17 398 0 c 0
 398 -5 400 -6 403 -5 c 0
 420 6 499 96 638 263 c 0
 781 434 880 540 937 581 c 1
 988 619 1025 644 1048 657 c 0
 1090 680 1128 691 1162 691 c 0xb0
 1169 691 1176 691 1183 690 c 0
 1201 689 1210 680 1210 662 c 0
 1210 653 1207 649 1201 649 c 0
 1197 649 1180 658 1165 658 c 0x50
EndSplineSet
EndChar

StartChar: W
Encoding: 87 87 55
Width: 1135
Flags: MW
HStem: 535 70<1115.5 1214 1115.5 1182> 609 28<486.5 587.5>
VStem: 15 57<210.5 242.5> 585 55<563.5 586.5> 1153 41<449.5 514>
LayerCount: 2
Fore
SplineSet
1238 544 m 1
 1231 539 1223 536 1214 535 c 1
 1182 535 l 1
 1190 508 1194 489 1194 476 c 0
 1194 423 1169 354 1118 269 c 0
 1067 184 1002 108 921 41 c 0
 820 -44 734 -76 661 -55 c 0
 622 -44 603 -14 603 35 c 0
 603 85 624 157 667 252 c 2
 739 409 l 1
 641 333 l 1
 608 306 577 278 547 249 c 0
 513 216 458 153 382 62 c 1
 266 -80 l 2
 249 -100 233 -111 219 -112 c 0
 206 -113 199 -106 199 -89 c 0
 199 -74 205 -56 217 -33 c 1
 410 245 l 1
 527 417 585 526 585 571 c 0
 585 602 542 609 515 609 c 0
 458 609 379 574 278 505 c 0
 221 466 173 418 132 363 c 0
 92 308 72 262 72 225 c 0
 72 196 85 179 112 173 c 0
 123 170 135 169 146 169 c 0
 174 169 202 177 230 192 c 0
 247 201 267 215 288 233 c 0
 306 248 316 255 318 255 c 0
 321 255 322 253 321 248 c 0
 314 223 288 199 241 176 c 0
 194 153 152 141 115 141 c 0
 108 141 101 141 96 142 c 1
 95 142 l 1
 42 153 15 179 15 222 c 0
 15 263 39 313 86 372 c 0
 131 429 187 480 254 525 c 0
 294 552 342 577 398 599 c 0
 463 624 517 637 561 637 c 0
 614 637 640 620 640 585 c 0
 640 542 608 470 545 368 c 0
 500 297 441 213 368 116 c 0
 307 35 277 -5 276 -5 c 1
 278 -5 310 29 372 98 c 0
 448 183 515 250 573 301 c 0
 601 326 641 364 694 415 c 0
 721 440 753 466 791 491 c 0
 799 496 810 499 824 499 c 0
 843 499 856 494 862 485 c 1
 800 408 743 315 690 206 c 0
 620 61 614 -19 673 -36 c 0
 682 -39 691 -40 700 -40 c 0
 759 -40 832 3 917 90 c 0
 994 168 1055 252 1100 341 c 0
 1135 411 1153 467 1153 510 c 0
 1153 518 1152 525 1151 530 c 1
 1136 530 1121 538 1106 553 c 1
 1106 552 l 1
 1096 560 1091 568 1091 577 c 0
 1091 593 1107 605 1124 605 c 0
 1137 605 1146 599 1152 588 c 0
 1155 582 1161 575 1168 568 c 0
 1173 563 1176 559 1175 556 c 1
 1179 550 1186 547 1195 547 c 0
 1202 547 1211 551 1222 559 c 0
 1233 567 1242 571 1249 571 c 0
 1254 571 1257 569 1257 565 c 0
 1257 558 1251 551 1238 544 c 1
1207 534 m 1
 1214 534 1216 535 1214 535 c 0
 1212 534 1210 534 1207 534 c 1
EndSplineSet
EndChar

StartChar: X
Encoding: 88 88 56
Width: 640
Flags: MW
VStem: -167 33<35 51.5> 440 54<-2 55> 440 232<-2 119.5> 534 46<472.5 520.5 465.5 525>
LayerCount: 2
Fore
SplineSet
1008 644 m 0xd0
 965 645 883 598 764 502 c 0
 686 439 617 377 558 318 c 1
 553 304 546 281 537 249 c 0
 508 144 494 73 494 37 c 0xd0
 494 18 500 8 511 8 c 0
 538 8 586 42 655 110 c 0
 666 121 672 123 672 116 c 0xa0
 672 96 647 68 597 31 c 0
 553 -2 519 -23 495 -30 c 0
 486 -33 479 -34 473 -34 c 0
 451 -34 440 -18 440 14 c 0
 440 41 455 112 486 227 c 1
 497 271 l 1
 348 140 219 46 110 -13 c 0
 23 -60 -44 -81 -89 -75 c 0
 -141 -68 -167 -35 -167 25 c 0
 -167 78 -148 137 -110 200 c 0
 -96 223 -85 235 -76 235 c 0
 -73 235 -72 233 -72 230 c 0
 -72 225 -74 219 -79 212 c 0
 -116 153 -134 99 -134 49 c 0
 -134 21 -128 -2 -116 -21 c 1
 -101 -42 -81 -53 -55 -53 c 0
 -2 -53 86 -9 210 80 c 0
 302 146 397 224 495 313 c 1
 511 327 l 1
 526 392 534 449 534 496 c 0
 534 554 522 591 498 607 c 0
 483 617 463 622 440 622 c 0
 421 622 401 619 379 612 c 0
 302 588 240 543 191 478 c 0
 149 421 128 366 128 313 c 0
 128 263 147 238 186 238 c 0
 208 238 234 248 265 267 c 0
 274 273 279 276 277 277 c 1
 278 277 278 276 278 276 c 2
 279 275 277 271 270 264 c 0
 243 237 208 224 165 224 c 0
 139 224 118 231 103 244 c 0
 86 259 78 282 81 311 c 0
 89 400 133 477 214 543 c 0
 289 604 365 634 444 634 c 0
 464 634 483 632 500 627 c 0
 553 610 580 561 580 480 c 0
 580 451 576 418 569 381 c 1
 640 444 711 502 781 555 c 0
 864 618 919 653 946 661 c 0
 981 671 1003 674 1014 669 c 0
 1027 664 1033 658 1033 652 c 0
 1033 646 1025 643 1008 644 c 0xd0
EndSplineSet
EndChar

StartChar: Y
Encoding: 89 89 57
Width: 882
Flags: MW
HStem: -254 21G<323.5 355.5> 4 45<319 367.5> 154 32<140 142.5> 642 20G<507 547>
VStem: 14 40<258.5 287.5 248 319>
LayerCount: 2
Fore
SplineSet
948 540 m 0
 877 416 763 221 605 -44 c 1
 562 -114 514 -168 463 -205 c 0
 418 -238 375 -254 336 -254 c 0
 311 -254 287 -246 264 -229 c 0
 238 -210 225 -190 225 -167 c 0
 225 -153 232 -146 246 -146 c 0
 251 -146 256 -147 261 -148 c 1
 269 -177 276 -196 281 -205 c 0
 291 -221 308 -230 331 -232 c 0
 414 -240 518 -128 641 104 c 1
 821 425 l 1
 717 314 l 1
 631 224 575 166 549 140 c 0
 494 85 457 52 437 40 c 0
 397 16 364 4 338 4 c 0
 300 4 281 26 281 71 c 0
 281 125 304 180 349 236 c 0
 382 276 416 316 449 357 c 0
 504 426 543 481 568 524 c 0
 601 583 606 618 583 630 c 0
 564 640 542 645 517 645 c 0
 446 645 348 602 224 517 c 0
 172 482 130 440 99 392 c 0
 69 347 54 306 54 269 c 0
 54 227 73 201 111 191 c 0
 122 188 134 186 146 186 c 0
 180 186 218 201 259 230 c 1
 308 263 335 280 341 282 c 1
 334 257 307 230 262 201 c 0
 212 170 165 154 120 154 c 0
 111 154 102 155 93 156 c 0
 73 159 55 171 40 192 c 0
 23 215 14 243 14 274 c 0
 14 364 80 457 213 552 c 0
 252 580 302 605 362 627 c 0
 427 650 483 662 531 662 c 0
 563 662 588 656 607 645 c 0
 628 632 639 614 639 590 c 0
 639 559 619 513 580 453 c 0
 546 401 488 325 406 226 c 0
 389 206 374 181 360 150 c 0
 346 119 339 95 339 76 c 0
 339 58 346 49 360 49 c 0
 375 49 396 59 425 80 c 0
 505 137 589 210 676 299 c 0
 753 377 810 444 847 499 c 0
 874 538 903 558 934 558 c 0
 945 558 950 555 950 548 c 0
 950 545 949 543 948 540 c 0
EndSplineSet
EndChar

StartChar: Z
Encoding: 90 90 58
Width: 739
Flags: MW
HStem: -118 21G<609.5 615.5> -19 77 14 44 581 31<493.5 509 426.5 568> 595 20G<853.5 871.5>
LayerCount: 2
Fore
SplineSet
908 533 m 0xc8
 907 533 871 538 801 549 c 1
 694 488 574 413 441 322 c 0
 280 211 153 113 60 26 c 1
 139 35 243 46 371 57 c 0
 389 58 406 58 423 58 c 0
 592 58 692 22 692 -30 c 0
 692 -47 682 -64 663 -83 c 1
 638 -106 620 -118 611 -118 c 0
 608 -118 606 -116 606 -113 c 0
 606 -105 610 -97 619 -89 c 0
 626 -83 629 -77 629 -71 c 0
 629 -50 597 -31 532 -13 c 0
 473 4 414 13 354 14 c 0xb0
 307 15 243 10 162 -2 c 0
 81 -14 17 -20 -28 -19 c 1
 -38 -28 -45 -33 -48 -33 c 0
 -49 -33 -50 -32 -50 -30 c 0
 -50 -27 -48 -23 -44 -16 c 1
 -67 -15 -80 -9 -81 2 c 0
 -82 13 -77 24 -66 35 c 0
 -55 46 -45 52 -37 52 c 0
 -35 52 -34 51 -33 50 c 0
 -30 45 -16 40 10 36 c 1
 178 211 420 386 735 559 c 1
 705 565 l 1
 656 576 600 581 536 581 c 0
 451 581 382 571 327 551 c 1
 314 548 299 542 280 533 c 0
 251 518 232 503 222 487 c 0
 215 475 213 462 216 448 c 0
 221 425 212 426 205 426 c 0
 190 426 177 447 177 474 c 0
 177 483 179 493 182 503 c 0
 195 546 236 577 305 597 c 0
 340 607 392 612 461 612 c 0
 557 612 646 605 729 590 c 0
 740 589 756 586 779 581 c 1xd0
 834 611 l 2
 840 614 848 615 859 615 c 0
 884 615 896 612 896 605 c 0
 896 602 893 600 887 598 c 1
 880 593 863 584 836 569 c 1
 875 566 l 2
 906 563 920 570 916 591 c 0
 915 594 916 596 918 596 c 0
 925 596 941 574 941 558 c 0
 941 541 930 533 908 533 c 0xc8
EndSplineSet
EndChar

StartChar: bracketleft
Encoding: 91 91 59
Width: 585
Flags: MW
HStem: -17 26 687 31<471.5 494>
VStem: 48 39
LayerCount: 2
Fore
SplineSet
573 697 m 1
 573 697 573 693 572 684 c 1
 568 683 563 683 558 683 c 0
 542 683 502 687 486 687 c 0
 457 687 439 685 431 680 c 0
 416 671 396 651 370 620 c 0
 317 557 259 468 196 351 c 0
 123 217 87 120 87 60 c 0
 87 23 113 4 164 4 c 0
 181 4 223 9 239 9 c 0
 258 9 268 5 268 -3 c 0
 268 -12 231 -17 156 -17 c 0
 84 -17 23 -5 23 19 c 0
 23 98 66 221 152 386 c 0
 239 551 315 656 380 701 c 0
 397 712 445 718 472 718 c 0
 539 718 573 711 573 697 c 1
EndSplineSet
EndChar

StartChar: backslash
Encoding: 92 92 60
Width: 551
Flags: MW
HStem: -124 21G<566.5 576.5> -116 21G 678 20G<50.5 62> 695 20G
VStem: 497 26
LayerCount: 2
Fore
SplineSet
35 690 m 0x98
 40 695 47 698 54 698 c 0x68
 70 698 154 597 305 396 c 1
 458 190 545 59 566 2 c 0
 581 -39 588 -71 588 -95 c 0x58
 588 -114 582 -124 571 -124 c 0
 562 -124 555 -121 550 -114 c 0
 547 -109 547 -106 550 -105 c 0
 557 -101 561 -93 561 -80 c 0
 561 -71 559 -60 555 -48 c 0
 534 8 461 120 335 289 c 0
 228 432 130 555 39 660 c 0
 28 673 27 683 35 690 c 0x98
EndSplineSet
EndChar

StartChar: bracketright
Encoding: 93 93 61
Width: 556
Flags: MW
HStem: -17 25 687 29
VStem: 499 39
LayerCount: 2
Fore
SplineSet
23 4 m 1
 23 4 23 8 24 17 c 1
 28 18 33 18 38 18 c 0
 54 18 94 14 110 14 c 0
 139 14 157 16 165 21 c 0
 180 30 200 50 226 81 c 0
 279 144 337 233 400 350 c 0
 473 484 509 581 509 641 c 0
 509 678 483 697 432 697 c 0
 415 697 373 692 357 692 c 0
 338 692 328 696 328 704 c 0
 328 713 365 718 440 718 c 0
 512 718 573 706 573 682 c 0
 573 603 530 480 444 315 c 0
 357 150 281 45 216 0 c 0
 199 -11 151 -17 124 -17 c 0
 57 -17 23 -10 23 4 c 1
EndSplineSet
EndChar

StartChar: asciicircum
Encoding: 94 94 62
Width: 370
Flags: MW
HStem: 324 21G<332 332> 431 20G<200 200>
LayerCount: 2
Fore
SplineSet
336 331 m 1
 332 324 l 1
 318 325 293 336 257 359 c 0
 222 382 198 399 186 412 c 1
 119 356 81 328 72 328 c 0
 67 328 64 331 64 338 c 0
 64 345 84 365 125 398 c 0
 166 432 191 450 200 451 c 1
 206 449 l 1
 232 420 274 384 331 341 c 1
 336 331 l 1
EndSplineSet
EndChar

StartChar: underscore
Encoding: 95 95 63
Width: 806
Flags: MW
HStem: -73 21G<19.5 37.5> -70 45
LayerCount: 2
Fore
SplineSet
793 -53 m 1x40
 786 -60 l 1
 599 -60 410 -62 219 -67 c 0
 204 -67 171 -68 122 -70 c 0x40
 82 -72 50 -73 25 -73 c 0x80
 14 -73 8 -63 8 -44 c 0
 8 -31 14 -25 25 -25 c 2
 765 -25 l 2
 782 -25 791 -34 793 -53 c 1x40
EndSplineSet
EndChar

StartChar: grave
Encoding: 96 96 64
Width: 221
Flags: MW
HStem: 300 21G<164.5 168.5> 382 20G<43.5 49>
LayerCount: 2
Fore
SplineSet
173 305 m 0
 173 302 171 300 166 300 c 0
 163 300 144 310 109 331 c 0
 74 352 53 365 46 371 c 0
 40 375 37 381 37 389 c 0
 37 398 40 402 47 402 c 0
 51 402 57 399 64 394 c 0
 90 375 125 348 169 312 c 0
 172 310 173 308 173 305 c 0
EndSplineSet
EndChar

StartChar: a
Encoding: 97 97 65
Width: 412
Flags: MW
HStem: -5 31 304 37<275.5 288 252 302.5>
LayerCount: 2
Fore
SplineSet
468 175 m 0
 383 61 318 4 273 4 c 0
 267 4 261 5 256 7 c 0
 227 18 212 40 212 73 c 0
 212 83 213 94 216 107 c 1
 154 47 l 1
 114 12 85 -5 67 -5 c 0
 35 -5 -4 21 -8 52 c 0
 -15 104 18 165 89 235 c 0
 160 306 224 341 280 341 c 0
 296 341 308 337 316 330 c 0
 325 321 329 299 332 299 c 0
 337 299 341 302 346 302 c 0
 362 302 376 286 377 277 c 0
 378 275 356 242 313 178 c 0
 270 115 250 72 254 49 c 0
 257 34 264 26 276 26 c 0
 311 26 374 83 466 198 c 0
 468 201 470 202 472 202 c 0
 475 202 477 200 477 195 c 0
 477 190 474 183 468 175 c 0
322 290 m 1
 317 299 309 304 296 304 c 0
 255 304 200 271 131 206 c 0
 59 139 27 84 34 41 c 0
 37 25 45 17 58 17 c 0
 96 17 149 59 216 144 c 1
 322 290 l 1
EndSplineSet
EndChar

StartChar: b
Encoding: 98 98 66
Width: 365
Flags: MW
HStem: -1 29<30.5 87> 101 22<324 339.5 324 339.5> 460 20G<271.5 300>
VStem: -5 49<64 83.5 64 100.5> 228 68<239 294.5>
LayerCount: 2
Fore
SplineSet
393 138 m 0
 372 113 351 101 328 101 c 0
 295 101 269 125 249 173 c 1
 228 126 199 86 162 53 c 0
 123 17 85 -1 48 -1 c 0
 13 -1 -5 26 -5 79 c 0
 -5 122 34 198 111 309 c 0
 190 423 251 480 292 480 c 0
 308 480 326 469 326 453 c 1
 326 454 302 428 253 375 c 0
 197 314 152 261 117 214 c 0
 68 147 44 99 44 68 c 0
 44 60 46 52 50 44 c 0
 55 33 63 28 72 28 c 0
 102 28 136 51 175 96 c 1
 208 136 228 170 235 197 c 1
 230 212 228 229 228 249 c 0
 228 299 245 321 279 316 c 0
 290 314 296 304 296 285 c 0
 296 272 293 254 288 232 c 1
 284 219 280 206 277 193 c 1
 279 181 284 168 291 154 c 0
 302 133 316 123 332 123 c 0
 347 123 364 134 383 155 c 0
 387 160 391 162 395 162 c 0
 398 162 400 160 401 155 c 0
 401 150 398 145 393 138 c 0
EndSplineSet
EndChar

StartChar: c
Encoding: 99 99 67
Width: 283
Flags: MW
HStem: -13 20<72.5 93.5> 201 115<229.5 246.5>
LayerCount: 2
Fore
SplineSet
335 169 m 0
 298 120 255 78 206 43 c 0
 154 6 111 -13 76 -13 c 0
 69 -13 62 -12 56 -10 c 0
 13 2 -8 26 -8 62 c 0
 -8 109 21 163 79 224 c 0
 138 285 191 316 238 316 c 0
 270 316 290 297 290 273 c 0
 290 256 286 241 278 227 c 0
 269 210 255 201 238 201 c 0
 221 201 212 206 212 217 c 0
 212 224 216 235 225 250 c 0
 234 265 239 273 239 274 c 0
 239 275 238 276 236 276 c 0
 217 274 191 260 158 235 c 0
 128 212 106 192 93 174 c 2
 54 117 l 2
 47 106 41 87 36 62 c 0
 31 31 52 7 83 7 c 0
 117 7 161 29 215 72 c 0
 260 107 295 142 321 177 c 0
 324 181 328 183 333 183 c 0
 342 183 342 178 335 169 c 0
EndSplineSet
EndChar

StartChar: d
Encoding: 100 100 68
Width: 467
Flags: MW
HStem: -5 25 304 37<276.5 289.5 252 302.5>
LayerCount: 2
Fore
SplineSet
511 454 m 0
 471 405 431 356 392 307 c 0
 326 224 287 163 270 121 c 0
 258 92 245 20 296 20 c 0
 340 20 404 59 489 157 c 0
 494 162 499 167 504 168 c 0
 510 169 513 167 513 164 c 0
 513 161 511 158 507 153 c 0
 482 123 448 84 405 51 c 0
 359 16 324 2 301 -2 c 0
 296 -3 292 -3 287 -3 c 0
 220 -3 215 77 236 127 c 1
 155 46 l 1
 118 12 88 -5 67 -5 c 0
 27 -5 -4 20 -8 52 c 0
 -15 104 18 165 89 235 c 0
 160 306 224 341 280 341 c 0
 299 341 312 336 319 326 c 0
 321 323 324 316 328 303 c 1
 397 415 447 475 476 484 c 0
 488 488 516 480 516 467 c 0
 516 463 514 459 511 454 c 0
321 292 m 1
 316 300 308 304 297 304 c 0
 256 304 200 271 131 206 c 0
 59 139 27 84 34 41 c 0
 37 25 45 17 58 17 c 0
 87 17 134 56 201 135 c 0
 208 143 247 193 321 292 c 1
EndSplineSet
EndChar

StartChar: e
Encoding: 101 101 69
Width: 257
Flags: MW
HStem: -13 21<47.5 68.5> 115 22<54.5 60.5> 287 29<209 227.5>
VStem: -33 47<44 70 42.5 85.5>
LayerCount: 2
Fore
SplineSet
310 168 m 0
 273 119 230 78 181 43 c 0
 130 6 86 -13 51 -13 c 0
 44 -13 37 -12 31 -10 c 0
 -12 2 -33 26 -33 62 c 0
 -33 109 -4 163 54 224 c 0
 113 285 166 316 213 316 c 0
 244 316 265 297 265 273 c 0
 265 236 235 199 176 163 c 0
 123 131 78 115 43 115 c 0
 37 115 32 116 29 117 c 1
 19 99 14 80 14 60 c 0
 14 25 30 8 63 8 c 0
 96 8 139 30 192 75 c 1
 233 108 267 142 296 179 c 0
 302 187 307 191 312 191 c 0
 316 191 318 189 318 185 c 0
 318 180 315 175 310 168 c 0
238 266 m 0
 243 280 236 287 219 287 c 0
 199 287 171 272 135 242 c 0
 107 219 85 196 68 174 c 0
 60 163 52 152 44 139 c 1
 47 138 52 137 57 137 c 0
 83 137 116 150 156 175 c 1
 200 204 227 234 238 266 c 0
EndSplineSet
EndChar

StartChar: f
Encoding: 102 102 70
Width: 242
Flags: MW
HStem: -205 30<-186 -153 -186 -142.5> 276 46 520 20G<309.5 347.5>
LayerCount: 2
Fore
SplineSet
400 510 m 0
 405 505 408 498 408 489 c 0
 408 468 402 458 390 458 c 0
 386 458 383 461 380 466 c 0
 375 475 361 482 350 482 c 0
 335 482 328 482 309 468 c 0
 290 455 273 431 264 416 c 0
 255 401 239 370 214 322 c 1
 226 322 l 2
 299 322 347 323 371 325 c 1
 374 324 375 322 375 321 c 0
 375 316 351 308 304 299 c 1
 267 293 231 287 194 280 c 1
 176 242 151 191 119 128 c 1
 56 11 16 -58 0 -81 c 0
 -58 -164 -115 -205 -170 -205 c 0
 -210 -205 -242 -165 -243 -126 c 1
 -241 -118 -238 -114 -234 -114 c 0
 -226 -114 -231 -140 -211 -160 c 0
 -201 -170 -191 -175 -181 -175 c 0
 -125 -175 -73 -140 -26 -70 c 0
 -1 -33 36 39 83 146 c 1
 137 276 l 1
 70 277 37 285 37 300 c 0
 37 307 41 313 48 318 c 0
 53 322 58 324 63 324 c 1
 60 324 92 323 157 322 c 1
 222 467 282 540 337 540 c 0
 358 540 379 530 400 510 c 0
EndSplineSet
EndChar

StartChar: g
Encoding: 103 103 71
Width: 370
Flags: MW
HStem: -205 30<-27.5 -4 -27.5 17> 0 23<53.5 78.5> 310 36<278.5 290 254 305.5>
LayerCount: 2
Fore
SplineSet
375 281 m 1
 374 274 364 256 346 227 c 1
 320 182 301 148 288 124 c 0
 235 25 194 -44 164 -83 c 0
 103 -164 45 -205 -11 -205 c 0
 -51 -205 -83 -165 -84 -126 c 1
 -82 -118 -79 -114 -75 -114 c 0
 -67 -114 -72 -140 -52 -160 c 0
 -42 -170 -32 -175 -23 -175 c 0
 15 -175 56 -150 99 -100 c 0
 130 -64 161 -15 194 46 c 1
 244 145 l 1
 169 69 l 1
 121 23 88 0 69 0 c 0
 37 0 -2 27 -6 58 c 0
 -13 110 20 171 91 241 c 0
 162 311 226 346 282 346 c 0
 298 346 310 342 318 335 c 0
 327 327 331 305 334 305 c 0
 339 305 343 308 348 308 c 0
 365 308 379 293 375 281 c 1
324 296 m 1
 320 305 312 310 299 310 c 0
 258 310 202 277 133 212 c 0
 61 144 29 89 36 47 c 0
 39 31 47 23 60 23 c 0
 98 23 151 65 218 150 c 1
 324 296 l 1
EndSplineSet
EndChar

StartChar: h
Encoding: 104 104 72
Width: 376
Flags: MW
HStem: -5 21G<-36.5 -24.5>
VStem: 178 45<50 70.5 47.5 86>
LayerCount: 2
Fore
SplineSet
412 149 m 0
 381 110 270 4 237 4 c 0
 198 4 178 27 178 73 c 0
 178 99 190 133 214 175 c 0
 233 207 253 239 273 271 c 1
 187 228 110 165 41 82 c 1
 31 67 21 52 10 37 c 0
 -10 9 -22 -5 -27 -5 c 0
 -46 -5 -56 1 -56 12 c 0
 -56 19 -52 29 -44 44 c 0
 17 153 66 238 103 297 c 0
 182 424 238 493 271 504 c 0
 282 507 289 501 293 484 c 1
 291 469 256 419 189 332 c 1
 118 242 79 184 70 158 c 1
 107 185 144 211 181 237 c 0
 254 288 302 315 325 318 c 0
 350 321 362 313 362 293 c 0
 362 291 362 289 361 287 c 0
 361 286 337 253 289 188 c 0
 245 129 223 85 223 56 c 0
 223 39 230 33 240 33 c 0
 289 35 374 130 402 163 c 0
 407 168 413 172 416 172 c 0
 419 172 420 171 420 168 c 0
 420 163 418 157 412 149 c 0
EndSplineSet
EndChar

StartChar: i
Encoding: 105 105 73
Width: 226
Flags: MW
HStem: -12 22 344 64<209.5 226.5 204.5 229>
VStem: -15 38<30.5 54.5 29.5 58> 179 80<370.5 384.5 367 389.5>
LayerCount: 2
Fore
SplineSet
259 375 m 0
 259 359 237 344 221 344 c 0
 198 344 179 361 179 380 c 0
 179 399 192 408 217 408 c 0
 236 408 259 394 259 375 c 0
226 108 m 0
 177 59 115 -11 36 -11 c 0
 7 -11 -15 6 -15 55 c 0
 -15 61 -14 67 -13 73 c 0
 -7 108 13 154 47 209 c 0
 84 269 114 300 139 301 c 0
 151 301 174 289 174 277 c 1
 174 278 149 245 98 179 c 0
 48 114 23 68 23 41 c 0
 23 18 33 9 48 9 c 0
 81 9 147 59 161 71 c 0
 197 101 218 121 238 146 c 0
 251 163 262 169 265 169 c 0
 268 169 269 167 269 163 c 0
 269 156 252 135 226 108 c 0
EndSplineSet
EndChar

StartChar: j
Encoding: 106 106 74
Width: 201
Flags: MW
HStem: -205 27<-193.5 -163.5 -199 -157.5> 346 64<196.5 213.5 191.5 216>
VStem: 166 80<371.5 385.5 368 390.5>
LayerCount: 2
Fore
SplineSet
246 376 m 0
 246 360 224 346 208 346 c 0
 185 346 166 362 166 381 c 0
 166 400 179 410 204 410 c 0
 223 410 246 395 246 376 c 0
185 272 m 0
 185 269 173 247 150 206 c 2
 106 130 l 1
 55 33 15 -36 -13 -75 c 0
 -74 -162 -131 -205 -184 -205 c 0
 -203 -205 -222 -199 -239 -186 c 0
 -256 -173 -265 -160 -265 -146 c 0
 -265 -133 -262 -127 -256 -127 c 0
 -255 -127 -249 -135 -236 -152 c 0
 -223 -169 -208 -178 -190 -178 c 0
 -137 -178 -76 -118 -8 3 c 0
 33 77 62 138 78 186 c 1
 70 177 57 164 40 148 c 0
 18 128 4 118 -3 118 c 0
 -5 118 -6 119 -6 121 c 0
 -6 127 -2 134 7 142 c 0
 20 153 35 171 52 195 c 0
 71 222 82 237 85 240 c 2
 118 275 l 1
 132 288 145 294 158 294 c 0
 176 294 185 287 185 272 c 0
EndSplineSet
EndChar

StartChar: k
Encoding: 107 107 75
Width: 394
Flags: MW
HStem: -12 30<199.5 221> 142 26 318 23<304.5 327.5> 318 181<303 304.5 290 327.5>
LayerCount: 2
Fore
SplineSet
431 149 m 0xe0
 413 127 372 79 329 45 c 0
 278 5 237 -12 205 -12 c 0
 138 -12 97 54 71 113 c 1
 62 101 52 82 39 57 c 2
 8 -5 l 1
 -16 4 -28 17 -28 33 c 0
 -28 62 16 142 103 272 c 0
 188 399 247 474 278 496 c 0
 281 498 286 499 294 499 c 0xd0
 315 499 325 494 325 483 c 0
 325 478 303 449 259 397 c 0
 211 340 184 306 178 294 c 1
 238 325 286 341 323 341 c 0
 343 341 361 333 376 316 c 1
 392 300 399 284 397 267 c 0
 392 230 366 198 317 173 c 0
 278 152 242 142 211 142 c 0
 177 142 153 146 139 155 c 1
 131 156 125 151 128 142 c 0
 147 59 178 18 221 18 c 0
 264 18 340 68 420 163 c 0
 425 168 427 170 433 170 c 0
 436 170 438 167 438 164 c 0
 438 161 436 156 431 149 c 0xe0
349 294 m 0
 349 305 334 318 321 318 c 0
 285 318 243 304 195 276 c 0
 142 244 110 209 99 171 c 1
 114 171 144 168 147 168 c 0
 177 168 216 180 265 205 c 0
 321 233 349 263 349 294 c 0
EndSplineSet
EndChar

StartChar: l
Encoding: 108 108 76
Width: 243
Flags: MW
HStem: -2 22<59 92.5 59 106.5> 478 20G<256.5 279.5>
LayerCount: 2
Fore
SplineSet
305 474 m 1
 305 474 282 443 235 380 c 0
 180 306 136 244 104 195 c 1
 80 156 39 102 39 51 c 0
 39 35 47 20 71 20 c 0
 114 20 190 68 258 150 c 0
 264 158 274 166 279 166 c 0
 282 166 284 164 284 160 c 0
 284 156 272 141 267 135 c 2
 243 108 l 2
 202 63 137 -2 76 -2 c 0
 37 -2 -3 15 -3 61 c 0
 -3 86 5 114 14 137 c 0
 31 177 61 234 107 308 c 0
 185 435 240 498 273 498 c 0
 286 498 304 486 305 474 c 1
EndSplineSet
EndChar

StartChar: m
Encoding: 109 109 77
Width: 631
Flags: MW
HStem: -2 21G<228 240> -1 21G<26.5 38> 12 23<472 489> 309 20G<344 364.5>
LayerCount: 2
Fore
SplineSet
672 154 m 0x30
 640 116 609 85 571 56 c 1
 531 27 500 12 478 12 c 0x30
 433 12 410 33 410 75 c 0
 410 81 411 87 412 93 c 0
 416 114 427 143 446 180 c 0
 465 217 486 250 509 279 c 1
 466 258 420 223 371 176 c 0
 313 119 274 62 253 6 c 1
 250 1 244 -2 236 -2 c 0x90
 220 -2 212 7 212 25 c 1
 219 62 234 104 257 151 c 0
 278 196 300 240 322 285 c 1
 272 252 223 211 176 161 c 0
 149 132 117 94 81 48 c 0
 55 15 40 -1 36 -1 c 0x50
 17 -1 4 22 4 34 c 0
 4 44 12 66 27 101 c 0
 36 123 46 145 56 167 c 1
 -4 104 l 2
 -7 101 -24 82 -32 82 c 0
 -35 82 -37 84 -37 89 c 0
 -37 91 -36 96 -29 103 c 0
 -9 123 12 145 35 174 c 0
 52 196 85 241 133 309 c 0
 140 319 151 324 164 324 c 0
 177 324 184 318 184 305 c 0
 184 300 167 269 133 212 c 1
 98 151 77 112 72 94 c 1
 101 126 142 166 195 215 c 0
 277 291 331 329 357 329 c 0
 372 329 389 319 389 304 c 0
 389 301 376 276 350 231 c 0
 324 184 310 156 308 149 c 1
 382 211 419 242 419 243 c 0
 482 292 527 316 554 316 c 0
 570 316 587 304 587 291 c 0
 587 290 566 262 523 207 c 0
 478 151 454 106 449 71 c 0
 446 47 458 35 486 35 c 0
 519 35 585 80 650 155 c 0
 658 164 668 175 675 175 c 0
 679 175 681 173 681 170 c 0
 681 166 677 159 672 154 c 0x30
EndSplineSet
EndChar

StartChar: n
Encoding: 110 110 78
Width: 403
Flags: MW
HStem: -2 21G<237 280> -1 21G<37 44.5>
VStem: 206 44<49.5 65 49.5 72>
LayerCount: 2
Fore
SplineSet
142 304 m 0x60
 149 313 158 316 161 316 c 0
 179 316 188 309 188 295 c 0
 188 291 187 287 185 283 c 0
 125 200 89 137 77 94 c 1
 232 249 327 327 360 327 c 1
 385 330 397 322 397 303 c 0
 397 300 397 298 396 295 c 0
 394 290 380 271 355 239 c 1
 324 202 301 171 286 148 c 0
 262 110 250 76 250 54 c 0
 250 45 250 27 264 27 c 0
 279 27 303 40 336 67 c 0
 367 93 393 121 417 148 c 0
 422 153 438 175 441 175 c 0
 444 175 445 172 445 167 c 0
 445 162 437 146 431 139 c 0
 401 105 305 -2 255 -2 c 0xa0
 219 -2 206 21 206 52 c 0
 206 92 219 129 246 176 c 1
 310 280 l 1
 264 246 219 204 175 155 c 0
 151 128 121 92 85 46 c 0
 61 15 47 -1 42 -1 c 0
 32 -1 24 4 18 13 c 0
 13 20 10 27 10 34 c 0
 10 45 18 80 27 101 c 0
 36 123 46 145 56 167 c 1
 -4 104 l 2
 -7 101 -24 82 -32 82 c 0
 -35 82 -37 84 -37 89 c 0
 -37 91 -36 96 -29 103 c 0
 -9 123 12 145 35 174 c 0
 52 196 105 260 142 304 c 0x60
EndSplineSet
EndChar

StartChar: o
Encoding: 111 111 79
Width: 281
Flags: MW
HStem: -2 30<34.5 75 53.5 59> 324 20G<201 236>
VStem: -10 47
LayerCount: 2
Fore
SplineSet
339 270 m 1
 338 258 311 242 260 221 c 1
 267 199 245 157 194 95 c 0
 141 30 96 -2 59 -2 c 2
 43 -2 l 2
 26 -2 12 7 2 25 c 0
 -6 38 -10 52 -10 67 c 0
 -10 107 19 163 77 235 c 0
 136 308 183 344 219 344 c 0
 253 344 270 326 270 290 c 0
 270 279 268 267 265 254 c 1
 266 252 270 251 275 251 c 0
 292 251 314 257 339 270 c 1
236 218 m 1
 225 224 212 239 196 264 c 1
 173 264 141 237 98 182 c 0
 56 128 36 87 37 59 c 0
 38 38 46 28 61 28 c 0
 89 28 126 54 171 107 c 0
 214 158 236 195 236 218 c 1
EndSplineSet
EndChar

StartChar: p
Encoding: 112 112 80
Width: 377
Flags: MW
HStem: 0 28<108.5 129.5 102.5 146.5> 274 28 290 20G<174 181.5>
VStem: -100 38<-123.5 -114.5 -139.5 -78.5> 326 51<208 248.5>
LayerCount: 2
Fore
SplineSet
377 226 m 0xd8
 377 172 345 120 280 69 c 0
 221 23 169 0 124 0 c 0
 93 0 72 2 62 5 c 0
 46 10 30 22 13 42 c 1
 2 33 -13 10 -31 -26 c 0
 -52 -67 -62 -101 -62 -128 c 0
 -62 -151 -51 -165 -43 -178 c 1
 -40 -185 -51 -193 -58 -189 c 0
 -86 -174 -100 -145 -100 -102 c 0
 -100 -55 -62 23 13 134 c 0
 85 241 135 299 163 308 c 0
 168 309 172 310 176 310 c 0xb8
 187 310 193 298 193 273 c 1
 200 280 214 286 236 292 c 0
 256 298 271 301 281 302 c 0
 336 305 377 273 377 226 c 0xd8
326 236 m 0
 326 261 310 274 279 274 c 0xd8
 251 274 224 268 199 255 c 0
 186 249 156 220 107 169 c 0
 54 114 28 79 28 64 c 0
 28 51 39 42 61 35 c 0
 77 30 94 28 111 28 c 0
 148 28 191 47 240 85 c 0
 297 130 326 180 326 236 c 0
EndSplineSet
EndChar

StartChar: q
Encoding: 113 113 81
Width: 332
Flags: MW
HStem: -242 20<108.5 121.5> 251 50<274.5 277>
VStem: 81 31 81 194
LayerCount: 2
Fore
SplineSet
338 228 m 2
 259 153 l 1
 210 103 175 56 156 12 c 1
 159 13 170 14 188 14 c 0
 207 14 222 5 233 -13 c 0
 242 -27 246 -41 246 -56 c 0
 246 -88 232 -126 204 -169 c 0
 173 -218 139 -242 104 -242 c 0
 69 -242 52 -216 52 -165 c 0
 52 -134 60 -99 77 -59 c 2
 123 48 l 1
 84 21 52 6 29 4 c 0
 -9 1 -28 19 -28 58 c 0
 -28 87 -10 121 25 162 c 0
 56 197 87 223 118 240 c 0
 192 281 252 301 297 301 c 0
 312 301 321 295 324 284 c 1
 324 252 l 1
 336 243 l 2
 339 240 341 238 341 236 c 0
 341 234 340 231 338 228 c 2
286 245 m 1
 285 249 281 251 273 251 c 0
 240 251 190 230 125 188 c 0
 52 141 12 94 3 49 c 0
 0 32 7 24 26 24 c 0
 59 24 104 53 160 111 c 1
 286 245 l 1
206 -61 m 0
 205 -40 200 -26 190 -19 c 0
 183 -14 168 -10 146 -9 c 1
 133 -30 120 -57 106 -91 c 0
 91 -130 83 -160 83 -179 c 0
 83 -186 85 -195 90 -204 c 0
 96 -216 104 -222 113 -222 c 0
 137 -222 160 -199 181 -153 c 0
 198 -114 207 -83 206 -61 c 0
EndSplineSet
EndChar

StartChar: r
Encoding: 114 114 82
Width: 394
Flags: MW
HStem: -5 24<193.5 221.5> 385 20G<181.5 200.5>
VStem: 129 35<52.5 80.5 49 92.5>
LayerCount: 2
Fore
SplineSet
426 144 m 2
 394 108 l 2
 378 91 360 74 334 54 c 0
 282 15 239 -5 204 -5 c 0
 147 -5 129 27 129 78 c 0
 129 107 138 140 155 178 c 0
 168 208 183 233 199 254 c 1
 194 253 190 253 186 253 c 0
 170 253 157 264 146 287 c 1
 72 191 l 1
 31 140 7 114 0 114 c 0
 -4 114 -5 115 -5 118 c 0
 -5 122 -3 126 0 131 c 0
 3 136 7 141 12 147 c 0
 63 206 107 263 135 318 c 1
 150 376 170 405 193 405 c 0
 208 405 216 398 216 384 c 0
 216 372 208 355 191 334 c 0
 175 313 167 303 167 302 c 0
 167 288 177 281 198 281 c 0
 210 281 223 285 238 294 c 2
 264 310 l 2
 266 311 268 311 270 311 c 0
 286 311 301 294 297 283 c 1
 228 196 l 2
 185 141 164 97 164 64 c 0
 164 34 179 19 208 19 c 0
 238 19 276 35 321 68 c 0
 350 89 373 110 394 133 c 2
 418 161 l 2
 421 164 425 169 428 169 c 0
 432 169 435 167 435 162 c 0
 435 159 433 152 426 144 c 2
EndSplineSet
EndChar

StartChar: s
Encoding: 115 115 83
Width: 359
Flags: MW
HStem: -2 64 383 20G<281.5 296.5>
LayerCount: 2
Fore
SplineSet
402 156 m 0
 364 111 328 79 294 61 c 0
 276 52 250 43 216 36 c 1
 184 15 l 1
 165 4 142 -2 115 -2 c 0
 85 -2 62 8 46 28 c 0
 33 44 20 73 9 115 c 1
 -11 95 -21 92 -21 105 c 0
 -21 109 -19 113 -16 116 c 2
 -16 116 17 157 96 234 c 1
 222 352 l 2
 257 385 277 403 286 403 c 0
 307 403 318 395 318 379 c 0
 318 371 314 362 305 351 c 0
 292 335 286 326 285 325 c 0
 273 304 262 267 252 214 c 0
 237 135 226 84 220 62 c 1
 276 63 328 94 391 170 c 0
 394 173 399 180 405 180 c 0
 410 180 411 178 411 175 c 0
 411 168 406 161 402 156 c 0
232 329 m 1
 201 306 150 260 105 213 c 0
 60 166 51 147 50 137 c 0
 48 114 54 88 71 72 c 0
 86 57 106 49 127 49 c 0
 141 49 154 52 165 60 c 1
 180 68 194 107 207 162 c 0
 218 209 225 253 228 295 c 1
 232 329 l 1
EndSplineSet
EndChar

StartChar: t
Encoding: 116 116 84
Width: 297
Flags: MW
VStem: -7 35<41 70 41 77.5>
LayerCount: 2
Fore
SplineSet
405 324 m 1
 407 323 408 322 408 321 c 0
 408 315 369 307 290 297 c 0
 200 285 153 278 149 277 c 1
 136 266 114 235 83 184 c 0
 57 140 28 88 28 52 c 0
 28 30 43 15 79 15 c 0
 115 15 181 45 202 58 c 0
 236 79 280 116 322 161 c 0
 331 170 337 175 341 175 c 0
 343 175 344 174 344 171 c 0
 344 166 339 157 329 145 c 0
 297 106 258 70 210 41 c 0
 163 12 119 -1 81 -5 c 0
 26 -10 -7 4 -7 65 c 0
 -7 90 5 127 29 174 c 0
 47 210 65 246 84 281 c 1
 49 274 31 281 31 301 c 0
 31 308 35 314 42 319 c 0
 46 322 51 324 55 325 c 2
 55 325 58 325 64 326 c 1
 122 326 l 1
 135 342 147 358 159 375 c 1
 177 398 191 411 202 415 c 0
 207 416 214 414 225 408 c 0
 236 402 241 396 241 390 c 0
 241 381 225 359 193 323 c 1
 210 322 248 321 308 322 c 0
 363 323 395 323 405 324 c 1
EndSplineSet
EndChar

StartChar: u
Encoding: 117 117 85
Width: 425
Flags: MW
HStem: -11 31 296 20G<371 390>
LayerCount: 2
Fore
SplineSet
463 150 m 0
 433 115 411 92 369 55 c 0
 325 17 295 -3 280 -6 c 0
 275 -7 271 -7 266 -7 c 0
 235 -7 209 11 209 40 c 0
 209 52 211 67 216 84 c 0
 220 97 224 110 227 123 c 1
 133 13 74 -11 47 -11 c 0
 20 -11 5 6 2 40 c 0
 -1 69 19 114 54 163 c 1
 54 163 25 137 -5 103 c 0
 -7 101 -11 99 -15 99 c 0
 -18 99 -19 101 -19 104 c 0
 -19 108 -16 113 -10 121 c 2
 128 283 l 2
 145 303 165 313 185 313 c 0
 200 313 208 307 208 295 c 0
 208 290 206 286 202 282 c 0
 177 259 145 221 108 168 c 0
 61 102 38 55 41 27 c 0
 42 18 46 14 53 14 c 0
 66 14 104 23 175 97 c 0
 183 105 218 144 277 219 c 0
 329 284 363 316 379 316 c 0
 401 316 413 307 415 289 c 0
 416 283 402 263 373 230 c 1
 335 184 309 151 295 131 c 0
 267 90 254 59 256 38 c 0
 257 26 262 20 271 20 c 0
 275 20 280 21 287 24 c 0
 335 45 390 93 452 164 c 0
 456 169 460 171 464 171 c 0
 468 171 470 169 470 165 c 0
 470 162 469 157 463 150 c 0
EndSplineSet
EndChar

StartChar: v
Encoding: 118 118 86
Width: 301
Flags: MW
HStem: -3 21G<26.5 33>
VStem: 317 21
LayerCount: 2
Fore
SplineSet
271 393 m 0
 309 393 343 367 343 317 c 0
 343 264 296 195 212 119 c 0
 139 53 80 12 33 -3 c 1
 20 -3 -13 16 -14 29 c 0
 -15 40 0 90 33 177 c 0
 66 265 89 313 100 322 c 0
 103 325 107 326 111 326 c 0
 126 326 142 311 143 294 c 0
 143 292 126 253 93 176 c 0
 60 100 45 55 47 41 c 1
 76 50 125 83 194 140 c 0
 276 209 311 266 311 311 c 0
 311 338 300 360 267 375 c 0
 262 377 260 380 260 384 c 0
 260 392 263 393 271 393 c 0
EndSplineSet
EndChar

StartChar: w
Encoding: 119 119 87
Width: 449
Flags: MW
HStem: -2 21G<22.5 26> 9 23<261 273.5> 303 20G<123 141>
VStem: 171 48<102 107 74 125.5> 415 33
LayerCount: 2
Fore
SplineSet
448 232 m 0x78
 448 185 428 136 387 87 c 0
 344 35 298 9 249 9 c 0x78
 225 9 206 21 191 45 c 0
 178 66 171 89 171 115 c 0
 171 136 176 165 187 201 c 1
 169 183 142 152 107 108 c 0
 68 59 41 23 26 -2 c 1xb8
 19 -2 10 2 -1 9 c 0
 -13 16 -19 23 -19 30 c 0
 -19 47 1 98 40 184 c 0
 82 277 113 323 133 323 c 0
 149 323 162 303 162 294 c 0
 162 292 144 259 107 194 c 0
 71 129 53 90 54 76 c 1
 88 117 122 157 155 198 c 1
 220 273 262 310 282 310 c 0
 297 310 314 294 314 282 c 0
 314 279 306 266 289 244 c 0
 269 217 254 195 244 177 c 0
 227 146 219 119 219 95 c 0
 219 53 233 32 261 32 c 2
 274 32 l 2
 310 32 344 61 376 120 c 0
 404 172 419 218 417 254 c 0
 416 279 411 297 404 309 c 0
 401 313 402 320 408 320 c 0
 416 320 427 318 436 298 c 1
 443 287 448 250 448 232 c 0x78
EndSplineSet
EndChar

StartChar: x
Encoding: 120 120 88
Width: 427
Flags: MW
HStem: -102 21G<-22 -16.5> -16 43 396 20G<448 453.5>
VStem: 178 47
LayerCount: 2
Fore
SplineSet
461 148 m 0
 426 107 401 77 362 44 c 0
 314 4 274 -16 243 -16 c 0
 211 -16 190 7 180 53 c 0
 176 74 174 102 173 137 c 1
 92 51 31 -27 -10 -98 c 0
 -12 -101 -15 -102 -18 -102 c 0
 -26 -102 -30 -98 -30 -91 c 0
 -30 -89 -29 -87 -28 -86 c 0
 34 12 101 98 173 172 c 1
 174 204 175 255 178 326 c 1
 163 323 126 278 80 210 c 0
 35 143 -12 95 -17 91 c 0
 -22 87 -26 85 -30 85 c 0
 -33 85 -35 85 -35 90 c 0
 -35 95 -32 98 -15 117 c 0
 21 157 37 178 71 230 c 0
 92 262 137 329 163 352 c 0
 176 364 192 369 206 369 c 0
 222 369 240 365 236 342 c 0
 236 340 228 300 223 221 c 1
 248 245 325 313 444 414 c 0
 445 415 447 416 449 416 c 0
 458 416 472 402 472 390 c 0
 472 384 469 379 464 374 c 0
 443 357 403 327 344 284 c 0
 291 246 248 210 221 185 c 1
 216 76 230 23 273 23 c 0
 314 23 382 83 449 160 c 0
 455 166 459 170 464 170 c 0
 467 170 469 168 469 164 c 0
 469 161 468 156 461 148 c 0
EndSplineSet
EndChar

StartChar: y
Encoding: 121 121 89
Width: 370
Flags: MW
HStem: -205 29<19 46 19 55.5> 8 22<28.5 39.5> 277 20G<150.5 173.5>
VStem: -22 39<51 53.5 38.5 71.5>
LayerCount: 2
Fore
SplineSet
404 268 m 0
 404 265 390 243 362 202 c 0
 332 157 315 132 312 126 c 0
 292 87 260 28 217 -49 c 1
 152 -153 88 -205 23 -205 c 0
 2 -205 -17 -196 -33 -178 c 0
 -49 -160 -57 -139 -56 -116 c 1
 -48 -126 -37 -138 -24 -151 c 0
 -6 -168 11 -176 27 -176 c 0
 65 -176 106 -146 150 -85 c 0
 181 -42 213 15 244 84 c 1
 282 176 l 1
 135 61 l 2
 90 26 53 8 26 8 c 0
 11 8 -1 14 -10 25 c 0
 -18 34 -22 45 -22 57 c 0
 -22 86 3 133 52 198 c 0
 101 264 138 297 163 297 c 0
 184 297 194 289 194 274 c 0
 194 268 164 233 105 170 c 0
 46 107 17 64 17 43 c 0
 17 34 23 30 34 30 c 0
 55 30 102 58 173 113 c 0
 232 159 277 198 308 229 c 1
 319 242 329 255 339 268 c 0
 352 283 365 290 377 290 c 0
 395 290 404 283 404 268 c 0
EndSplineSet
EndChar

StartChar: z
Encoding: 122 122 90
Width: 386
Flags: MW
HStem: -22 31<236 259.5 236 271.5> 244 52<334.5 351> 304 20G<157 186.5>
VStem: 66 26<247.5 284.5>
LayerCount: 2
Fore
SplineSet
382 271 m 0
 382 258 363 244 339 244 c 0
 328 244 316 246 305 251 c 1
 242 212 174 150 101 65 c 1
 137 37 l 1
 158 23 180 15 203 12 c 0
 217 10 230 9 242 9 c 0
 277 9 304 16 323 29 c 0
 340 40 348 55 348 73 c 0
 348 80 347 88 344 95 c 0
 340 104 343 109 352 109 c 0
 355 109 358 107 359 104 c 0
 364 93 367 81 367 70 c 0
 367 17 312 -22 231 -22 c 0
 220 -22 208 -21 196 -20 c 0
 167 -17 143 -9 122 3 c 0
 113 8 95 20 67 41 c 1
 50 29 37 21 28 17 c 0
 21 14 15 13 10 13 c 0
 -5 13 -13 21 -13 38 c 0
 -13 49 -4 73 5 73 c 0
 10 73 12 68 9 58 c 0
 7 48 10 43 18 43 c 0
 26 43 36 47 47 55 c 1
 9 84 l 2
 8 85 7 87 7 89 c 0
 7 98 24 115 35 115 c 0
 36 115 52 104 81 81 c 1
 108 111 136 141 164 170 c 0
 206 215 239 247 263 265 c 1
 210 281 171 289 146 289 c 0
 141 289 135 289 130 288 c 0
 110 285 92 269 92 252 c 0
 92 243 97 235 106 228 c 0
 111 224 114 221 114 218 c 0
 114 214 112 212 109 212 c 0
 102 212 93 219 82 232 c 0
 71 246 66 260 66 273 c 0
 66 296 83 312 117 319 c 0
 133 322 149 324 165 324 c 0
 208 324 261 304 310 288 c 1
 319 293 329 296 340 296 c 0
 368 296 382 288 382 271 c 0
EndSplineSet
EndChar

StartChar: braceleft
Encoding: 123 123 91
Width: 323
Flags: MW
HStem: -122 21G<184 205> 620 20G<364 366 366 368>
VStem: 80 40<-52 -26 -53.5 -22> 116 37<167 196.5 162 205>
LayerCount: 2
Fore
SplineSet
87 265 m 1xd0
 131 249 153 219 153 174 c 0xd0
 153 150 147 115 136 68 c 0
 125 21 120 -14 120 -38 c 0
 120 -69 129 -88 148 -96 c 1
 213 -108 l 1
 222 -116 l 1
 213 -120 207 -122 203 -122 c 0
 165 -122 137 -117 119 -108 c 0
 93 -95 80 -70 80 -34 c 0xe0
 80 -10 86 25 98 72 c 0
 110 119 116 155 116 179 c 0
 116 231 80 258 9 259 c 1
 20 275 l 1
 66 280 99 289 118 304 c 0
 141 321 156 350 165 393 c 1
 187 516 l 1
 197 557 213 587 236 606 c 0
 264 629 307 641 364 640 c 1
 366 640 l 2
 370 640 374 637 377 631 c 1
 364 626 l 1
 313 626 277 612 256 583 c 0
 242 564 230 527 221 474 c 0
 218 455 212 428 203 391 c 1
 181 320 142 278 87 265 c 1xd0
EndSplineSet
EndChar

StartChar: bar
Encoding: 124 124 92
Width: 219
Flags: MW
HStem: -102 21G<51.5 56> 606 20G<112.5 131.5>
VStem: 119 39
LayerCount: 2
Fore
SplineSet
52 -102 m 0
 51 -102 51 -102 51 -101 c 0
 51 -96 65 -45 86 59 c 1
 108 187 119 314 119 440 c 0
 119 491 117 531 113 558 c 1
 106 587 l 2
 103 599 101 609 101 616 c 0
 101 623 107 626 118 626 c 0
 145 626 158 597 158 540 c 0
 158 479 149 370 131 212 c 0
 111 37 93 -62 76 -85 c 0
 68 -96 60 -102 52 -102 c 0
EndSplineSet
EndChar

StartChar: braceright
Encoding: 125 125 93
Width: 425
Flags: MW
HStem: -120 21G<24 26 26 27> 617 20G<254 271.5>
VStem: 284 37<317.5 342.5 317.5 349.5> 334 42<553.5 579.5>
LayerCount: 2
Fore
SplineSet
408 246 m 1
 351 245 309 228 283 193 c 0
 268 172 252 129 235 66 c 1
 220 6 202 -36 181 -61 c 0
 148 -100 96 -120 27 -120 c 2
 26 -120 l 2
 22 -120 18 -117 15 -111 c 1
 22 -108 39 -105 66 -102 c 1
 111 -99 143 -75 162 -30 c 1
 201 92 l 2
 217 143 236 180 259 201 c 0
 287 228 320 246 357 257 c 1
 308 269 284 295 284 336 c 0
 284 363 292 402 309 452 c 0
 326 502 334 540 334 567 c 0
 334 592 325 607 307 613 c 1
 248 622 l 1
 240 629 l 1
 254 637 l 1
 289 637 315 634 332 628 c 0
 361 618 376 598 376 567 c 0
 376 539 367 499 348 447 c 0
 330 396 321 356 321 329 c 0
 321 306 331 290 351 279 c 1
 366 272 389 266 421 263 c 1
 408 246 l 1
EndSplineSet
EndChar

StartChar: asciitilde
Encoding: 126 126 94
Width: 303
Flags: MW
HStem: 396 21G<196.5 207> 397 21G<49 50.5> 430 20G<120.5 132.5> 431 20G<263 265>
LayerCount: 2
Fore
SplineSet
263 451 m 1x50
 267 451 269 450 269 447 c 0
 269 437 256 423 230 405 c 0
 221 399 212 396 202 396 c 0x90
 191 396 174 400 152 409 c 0
 131 418 114 423 103 423 c 0
 92 423 81 419 70 410 c 0
 59 401 52 397 49 397 c 1
 48 398 48 399 48 400 c 0
 48 410 62 423 90 440 c 0
 101 447 114 450 127 450 c 0x60
 138 450 154 446 175 439 c 0
 196 432 211 429 222 429 c 0
 238 429 252 436 263 451 c 1x50
EndSplineSet
EndChar

StartChar: Ccedilla
Encoding: 199 199 95
Width: 726
Flags: MW
HStem: -310 21G<76 96.5> 278 23<501 557.5 495 583.5> 630 20G<559.5 611.5>
VStem: 31 52<128.5 197.5 128.5 202.5> 186 42<-227.5 -218> 399 21<357 393> 755 42<485.5 527.5>
LayerCount: 2
Fore
SplineSet
228 -212 m 0
 228 -243 210 -268 175 -287 c 0
 146 -302 114 -310 79 -310 c 0
 73 -310 70 -307 70 -300 c 0
 70 -296 73 -293 79 -292 c 0
 103 -288 127 -284 151 -281 c 1
 174 -274 186 -255 186 -223 c 0
 186 -213 177 -196 160 -172 c 0
 143 -148 134 -129 134 -116 c 0
 134 -88 142 -65 159 -48 c 1
 74 -15 31 51 31 150 c 0
 31 255 81 361 181 466 c 0
 236 524 303 570 381 603 c 0
 454 634 525 650 594 650 c 0
 629 650 660 646 688 637 c 0
 761 614 797 568 797 500 c 0
 797 458 785 422 760 391 c 0
 699 316 626 278 541 278 c 0
 461 278 399 319 399 375 c 0
 399 411 422 446 468 481 c 0
 476 487 482 490 487 490 c 0
 490 490 492 489 492 486 c 0
 492 479 487 474 476 470 c 1
 439 440 420 410 420 379 c 0
 420 335 465 301 525 301 c 0
 590 301 652 332 710 395 c 0
 740 428 755 465 755 506 c 0
 755 549 739 582 707 603 c 1
 680 622 644 631 599 631 c 0
 535 631 469 615 402 582 c 0
 321 543 249 484 187 405 c 0
 118 318 83 236 83 159 c 0
 83 98 105 50 149 15 c 0
 193 -20 252 -35 326 -30 c 0
 388 -26 448 -9 505 20 c 0
 557 47 601 81 638 122 c 0
 649 134 657 140 663 140 c 0
 667 140 669 137 669 131 c 0
 669 123 665 115 658 108 c 0
 623 71 575 36 514 4 c 0
 443 -33 373 -56 306 -63 c 0
 261 -68 220 -65 184 -56 c 1
 175 -68 170 -82 170 -98 c 0
 170 -106 180 -122 199 -147 c 0
 218 -172 228 -193 228 -212 c 0
EndSplineSet
EndChar

StartChar: Udieresis
Encoding: 220 220 96
Width: 801
Flags: MW
HStem: -19 45<333 394> 638 23<579 597.5> 707 20G<831.5 837.5 952.5 958.5>
VStem: 14 33<172.5 188.5 150 238.5> 656 42<595.5 612.5>
LayerCount: 2
Fore
SplineSet
967 546 m 1
 970 531 962 510 944 483 c 2
 826 316 l 2
 782 252 742 191 707 132 c 0
 665 62 645 21 648 10 c 1
 666 16 l 1
 679 23 694 33 709 44 c 0
 727 57 742 70 753 81 c 1
 762 88 767 91 769 91 c 1
 770 90 771 90 771 89 c 0
 771 83 762 70 744 51 c 1
 697 10 662 -10 640 -10 c 0
 623 -10 614 -4 614 9 c 0
 614 22 627 52 654 101 c 0
 702 190 764 289 839 400 c 1
 829 388 808 364 776 329 c 1
 691 242 632 183 599 150 c 0
 538 89 498 51 481 38 c 0
 432 0 386 -19 345 -19 c 0
 321 -19 307 -11 303 4 c 0
 296 34 344 122 447 267 c 0
 526 378 575 448 595 479 c 0
 636 542 656 584 656 607 c 0
 656 618 652 625 643 628 c 0
 626 635 608 638 587 638 c 0
 514 638 420 599 306 521 c 0
 233 470 170 409 119 337 c 0
 71 268 47 211 47 166 c 0
 47 134 60 115 87 110 c 0
 98 108 108 107 119 107 c 0
 153 107 188 118 224 140 c 0
 242 151 265 169 292 193 c 1
 310 199 l 1
 297 174 272 151 234 128 c 0
 191 102 148 89 106 89 c 0
 96 89 86 90 76 92 c 0
 60 95 46 104 35 119 c 0
 21 137 14 159 14 186 c 0
 14 291 113 414 310 555 c 0
 349 583 394 607 447 627 c 0
 506 650 557 661 601 661 c 0
 624 661 645 657 662 650 c 0
 686 640 698 625 698 604 c 0
 698 583 683 550 654 504 c 0
 634 472 589 409 520 315 c 0
 491 276 462 232 432 181 c 0
 391 112 371 66 371 43 c 0
 371 32 376 26 385 26 c 0
 403 26 437 45 486 82 c 0
 603 171 741 316 900 517 c 0
 925 549 946 565 961 565 c 0
 967 565 970 562 970 556 c 0
 970 553 969 550 967 546 c 1
837 727 m 0
 838 727 839 726 840 726 c 1
 839 726 834 719 826 708 c 1
 810 668 l 2
 802 650 793 641 783 641 c 0
 774 641 762 659 762 670 c 0
 762 680 772 692 791 706 c 0
 811 720 826 727 837 727 c 0
958 727 m 0
 959 727 960 726 961 726 c 1
 960 726 955 719 947 708 c 1
 931 668 l 2
 923 650 914 641 904 641 c 0
 895 641 883 659 883 670 c 0
 883 680 893 692 912 706 c 0
 932 720 947 727 958 727 c 0
841 725 m 1
 841 725 841 726 840 726 c 2
 841 726 l 1
 841 725 l 1
962 725 m 1
 962 725 962 726 961 726 c 2
 962 726 l 1
 962 725 l 1
EndSplineSet
EndChar

StartChar: aacute
Encoding: 225 225 97
Width: 412
Flags: MW
HStem: -5 31 304 37<275.5 288 252 302.5> 500 20G<403.5 409>
LayerCount: 2
Fore
SplineSet
468 175 m 0
 383 61 318 4 273 4 c 0
 267 4 261 5 256 7 c 0
 227 18 212 40 212 73 c 0
 212 83 213 94 216 107 c 1
 153 47 l 1
 114 12 85 -5 67 -5 c 0
 35 -5 -4 21 -8 52 c 0
 -15 104 18 165 89 235 c 0
 160 306 224 341 280 341 c 0
 296 341 308 337 316 330 c 0
 325 321 329 299 332 299 c 0
 337 299 341 302 346 302 c 0
 361 302 376 286 377 277 c 0
 378 275 356 242 313 178 c 0
 270 115 250 72 254 49 c 0
 257 34 264 26 276 26 c 0
 311 26 374 83 466 198 c 0
 468 201 470 202 472 202 c 0
 475 202 477 200 477 195 c 0
 477 190 474 183 468 175 c 0
322 290 m 1
 317 299 309 304 296 304 c 0
 255 304 200 271 131 206 c 0
 59 139 27 84 34 41 c 0
 37 25 45 17 58 17 c 0
 96 17 148 59 215 144 c 1
 251 193 287 241 322 290 c 1
287 417 m 0
 282 417 280 419 280 423 c 0
 280 425 281 427 283 429 c 2
 389 511 l 2
 396 517 401 520 406 520 c 0
 412 520 415 516 415 507 c 0
 415 499 412 493 407 488 c 0
 400 482 379 469 344 448 c 0
 309 427 290 417 287 417 c 0
EndSplineSet
EndChar

StartChar: agrave
Encoding: 224 224 98
Width: 412
Flags: MW
HStem: -5 31 304 37<275.5 288 252 302.5> 456 20G<231.5 236.5>
LayerCount: 2
Fore
SplineSet
468 175 m 0
 383 61 318 4 273 4 c 0
 267 4 261 5 256 7 c 0
 227 18 212 40 212 73 c 0
 212 83 213 94 216 107 c 1
 153 47 l 1
 114 12 85 -5 67 -5 c 0
 35 -5 -4 21 -8 52 c 0
 -15 104 18 165 89 235 c 0
 160 306 224 341 280 341 c 0
 296 341 308 337 316 330 c 0
 325 321 329 299 332 299 c 0
 337 299 341 302 346 302 c 0
 361 302 376 286 377 277 c 0
 378 275 356 242 313 178 c 0
 270 115 250 72 254 49 c 0
 257 34 264 26 276 26 c 0
 311 26 374 83 466 198 c 0
 468 201 470 202 472 202 c 0
 475 202 477 200 477 195 c 0
 477 190 474 183 468 175 c 0
322 290 m 1
 317 299 309 304 296 304 c 0
 255 304 200 271 131 206 c 0
 59 139 27 84 34 41 c 0
 37 25 45 17 58 17 c 0
 96 17 148 59 215 144 c 1
 251 193 287 241 322 290 c 1
339 397 m 0
 339 393 337 391 334 391 c 0
 330 391 314 399 286 416 c 0
 258 433 241 445 234 451 c 0
 229 454 227 460 227 467 c 0
 227 473 229 476 234 476 c 0
 239 476 256 465 286 442 c 0
 314 421 331 408 337 401 c 0
 338 400 339 398 339 397 c 0
EndSplineSet
EndChar

StartChar: acircumflex
Encoding: 226 226 99
Width: 412
Flags: MW
HStem: -5 31 304 37<275.5 288 252 302.5> 429 20G<337 337>
LayerCount: 2
Fore
SplineSet
468 175 m 0
 383 61 318 4 273 4 c 0
 267 4 261 5 256 7 c 0
 227 18 212 40 212 73 c 0
 212 83 213 94 216 107 c 1
 153 47 l 1
 114 12 85 -5 67 -5 c 0
 35 -5 -4 21 -8 52 c 0
 -15 104 18 165 89 235 c 0
 160 306 224 341 280 341 c 0
 296 341 308 337 316 330 c 0
 325 321 329 299 332 299 c 0
 337 299 341 302 346 302 c 0
 361 302 376 286 377 277 c 0
 378 275 356 242 313 178 c 0
 270 115 250 72 254 49 c 0
 257 34 264 26 276 26 c 0
 311 26 374 83 466 198 c 0
 468 201 470 202 472 202 c 0
 475 202 477 200 477 195 c 0
 477 190 474 183 468 175 c 0
322 290 m 1
 317 299 309 304 296 304 c 0
 255 304 200 271 131 206 c 0
 59 139 27 84 34 41 c 0
 37 25 45 17 58 17 c 0
 96 17 148 59 215 144 c 1
 251 193 287 241 322 290 c 1
415 381 m 1
 412 377 l 1
 405 377 391 383 370 396 c 0
 350 409 336 420 329 427 c 1
 291 395 269 379 264 379 c 0
 261 379 260 381 260 385 c 0
 260 388 271 400 294 419 c 0
 317 438 332 448 337 449 c 1
 341 448 l 1
 356 431 379 411 412 387 c 1
 415 381 l 1
EndSplineSet
EndChar

StartChar: adieresis
Encoding: 228 228 100
Width: 412
Flags: MW
HStem: -5 31 304 37<275.5 288 252 302.5> 341 57<277 285.5 277 288> 448 20G<321.5 326.5 419.5 424.5 426 426>
LayerCount: 2
Fore
SplineSet
468 175 m 0xd0
 383 61 318 4 273 4 c 0
 267 4 261 5 256 7 c 0
 227 18 212 40 212 73 c 0
 212 83 213 94 216 107 c 1
 153 47 l 1
 114 12 85 -5 67 -5 c 0
 35 -5 -4 21 -8 52 c 0
 -15 104 18 165 89 235 c 0
 160 306 224 341 280 341 c 0
 296 341 308 337 316 330 c 0
 325 321 329 299 332 299 c 0
 337 299 341 302 346 302 c 0
 361 302 376 286 377 277 c 0
 378 275 356 242 313 178 c 0
 270 115 250 72 254 49 c 0
 257 34 264 26 276 26 c 0
 311 26 374 83 466 198 c 0
 468 201 470 202 472 202 c 0
 475 202 477 200 477 195 c 0
 477 190 474 183 468 175 c 0xd0
322 290 m 1
 317 299 309 304 296 304 c 0
 255 304 200 271 131 206 c 0
 59 139 27 84 34 41 c 0
 37 25 45 17 58 17 c 0
 96 17 148 59 215 144 c 1
 251 193 287 241 322 290 c 1
427 466 m 0
 424 462 420 457 415 452 c 1
 401 420 l 2
 395 405 388 398 380 398 c 0xb0
 372 398 362 413 362 421 c 0
 362 430 370 440 386 451 c 0
 403 462 415 468 424 468 c 0
 425 468 425 468 426 467 c 1
 426 468 l 1
 427 467 427 467 427 466 c 0
328 466 m 1
 317 452 l 1
 303 420 l 2
 297 405 290 398 281 398 c 0
 273 398 264 413 264 421 c 0
 264 430 272 440 288 451 c 0
 305 462 317 468 326 468 c 0
 327 468 327 468 328 467 c 1
 328 466 l 1
EndSplineSet
EndChar

StartChar: atilde
Encoding: 227 227 101
Width: 412
Flags: MW
HStem: -5 31 304 37<275.5 288 252 302.5> 422 20G<316.5 329>
LayerCount: 2
Fore
SplineSet
468 175 m 0
 383 61 318 4 273 4 c 0
 267 4 261 5 256 7 c 0
 227 18 212 40 212 73 c 0
 212 83 213 94 216 107 c 1
 153 47 l 1
 114 12 85 -5 67 -5 c 0
 35 -5 -4 21 -8 52 c 0
 -15 104 18 165 89 235 c 0
 160 306 224 341 280 341 c 0
 296 341 308 337 316 330 c 0
 325 321 329 299 332 299 c 0
 337 299 341 302 346 302 c 0
 361 302 376 286 377 277 c 0
 378 275 356 242 313 178 c 0
 270 115 250 72 254 49 c 0
 257 34 264 26 276 26 c 0
 311 26 374 83 466 198 c 0
 468 201 470 202 472 202 c 0
 475 202 477 200 477 195 c 0
 477 190 474 183 468 175 c 0
322 290 m 1
 317 299 309 304 296 304 c 0
 255 304 200 271 131 206 c 0
 59 139 27 84 34 41 c 0
 37 25 45 17 58 17 c 0
 96 17 148 59 215 144 c 1
 251 193 287 241 322 290 c 1
420 442 m 1
 423 443 425 442 425 440 c 0
 425 433 415 423 396 410 c 0
 390 406 383 404 376 404 c 0
 368 404 356 407 340 413 c 1
 325 420 313 423 304 423 c 0
 288 423 268 404 264 404 c 1
 263 405 263 405 263 406 c 0
 263 414 273 424 294 435 c 0
 303 440 312 442 321 442 c 0
 337 442 374 427 390 427 c 0
 402 427 412 432 420 442 c 1
EndSplineSet
EndChar

StartChar: aring
Encoding: 229 229 102
Width: 412
Flags: MW
HStem: -5 22<51.5 76> 304 37 304 165<275.5 374.5>
VStem: 381 24<398.5 427>
LayerCount: 2
Fore
SplineSet
322 290 m 1xb0
 317 299 309 304 296 304 c 0
 255 304 200 271 131 206 c 0
 59 139 27 84 34 41 c 0
 37 25 45 17 58 17 c 0
 96 17 149 59 216 144 c 1
 322 290 l 1xb0
405 417 m 0
 405 373 366 328 322 323 c 1
 326 316 328 299 332 299 c 0
 337 299 341 302 346 302 c 0
 362 302 376 286 377 277 c 0
 378 275 356 242 313 178 c 0
 270 115 250 72 254 49 c 0
 257 34 264 26 276 26 c 0
 311 26 374 83 466 198 c 0
 468 201 470 202 472 202 c 0
 475 202 477 200 477 195 c 0
 477 190 474 183 468 175 c 0
 383 61 318 4 273 4 c 0
 267 4 261 5 256 7 c 0
 227 18 212 40 212 73 c 0
 212 83 213 94 216 107 c 1
 154 47 l 1
 114 12 85 -5 67 -5 c 0
 35 -5 -4 21 -8 52 c 0
 -15 104 17 165 87 234 c 0
 157 304 220 340 277 341 c 1xd0
 274 347 272 354 272 361 c 0
 272 375 275 390 282 405 c 0
 290 423 300 434 311 437 c 1
 322 458 339 469 362 469 c 0
 387 469 405 445 405 417 c 0
381 415 m 0
 381 439 374 451 359 451 c 0
 352 451 342 446 330 437 c 1
 341 432 l 1
 339 427 332 417 321 400 c 0
 313 388 309 375 309 362 c 0
 309 349 314 342 324 342 c 0
 356 342 381 382 381 415 c 0
EndSplineSet
EndChar

StartChar: ccedilla
Encoding: 231 231 103
Width: 283
Flags: MW
HStem: -280 21G<-72 -51.5> -13 20<72.5 93.5> 201 115<229.5 246.5>
VStem: -8 29 38 42<-197 -187.5>
LayerCount: 2
Fore
SplineSet
80 -181 m 0
 80 -213 62 -238 27 -257 c 0
 -2 -272 -34 -280 -69 -280 c 0
 -75 -280 -78 -276 -78 -269 c 0
 -78 -266 -75 -263 -69 -261 c 0
 -45 -257 -21 -253 3 -250 c 1
 26 -243 38 -224 38 -192 c 0
 38 -183 29 -166 12 -141 c 0
 -5 -117 -14 -98 -14 -85 c 0
 -14 -48 3 -13 33 -1 c 1
 6 12 -8 33 -8 62 c 0
 -8 109 21 163 79 224 c 0
 138 285 191 316 238 316 c 0
 270 316 290 297 290 273 c 0
 290 256 286 241 278 227 c 0
 269 210 255 201 238 201 c 0
 221 201 212 206 212 217 c 0
 212 224 216 235 225 250 c 0
 234 265 239 273 239 274 c 0
 239 275 238 276 236 276 c 0
 217 274 191 260 158 235 c 0
 128 212 106 192 93 174 c 2
 54 117 l 2
 47 106 41 87 36 62 c 0
 31 31 52 7 83 7 c 0
 117 7 161 29 215 72 c 0
 260 107 295 142 321 177 c 0
 324 181 328 183 333 183 c 0
 342 183 342 178 335 169 c 0
 298 120 255 78 206 43 c 0
 154 6 111 -13 76 -13 c 0
 69 -13 62 -12 56 -10 c 0
 55 -10 54 -9 53 -9 c 0
 33 -19 21 -42 21 -68 c 0
 21 -76 31 -92 50 -116 c 0
 70 -141 80 -162 80 -181 c 0
EndSplineSet
EndChar

StartChar: eacute
Encoding: 233 233 104
Width: 257
Flags: MW
HStem: -13 21<47.5 68.5> 115 22<54.5 60.5> 287 29<209 227.5> 450 20G<344 349.5>
VStem: -33 47<44 70 42.5 85.5>
LayerCount: 2
Fore
SplineSet
227 368 m 0
 223 368 221 370 221 374 c 0
 221 376 222 378 224 380 c 0
 249 399 284 426 329 462 c 0
 336 467 342 470 346 470 c 0
 353 470 356 466 356 458 c 0
 356 450 353 443 346 438 c 0
 340 433 320 420 285 399 c 0
 250 378 231 368 227 368 c 0
310 169 m 0
 273 120 230 78 181 43 c 0
 130 6 86 -13 51 -13 c 0
 44 -13 37 -12 31 -10 c 0
 -12 2 -33 26 -33 62 c 0
 -33 109 -4 163 54 224 c 0
 113 285 166 316 213 316 c 0
 244 316 265 297 265 273 c 0
 265 236 235 199 176 163 c 0
 123 131 78 115 43 115 c 0
 37 115 32 116 29 117 c 1
 19 99 14 80 14 60 c 0
 14 25 30 8 63 8 c 0
 96 8 139 30 192 75 c 1
 233 108 267 143 296 180 c 0
 302 188 307 192 312 192 c 0
 316 192 318 190 318 186 c 0
 318 181 315 176 310 169 c 0
238 266 m 0
 243 280 236 287 219 287 c 0
 199 287 171 272 135 242 c 0
 107 219 85 196 68 174 c 0
 60 163 52 152 44 139 c 1
 47 138 52 137 57 137 c 0
 83 137 116 150 156 175 c 1
 200 204 227 234 238 266 c 0
EndSplineSet
EndChar

StartChar: egrave
Encoding: 232 232 105
Width: 257
Flags: MW
HStem: -13 21<47.5 68.5> 115 22<54.5 60.5> 287 29<209 227.5> 424 20G<156.5 160.5>
VStem: -33 47<44 70 42.5 85.5>
LayerCount: 2
Fore
SplineSet
310 169 m 0
 273 120 230 78 181 43 c 0
 130 6 86 -13 51 -13 c 0
 44 -13 37 -12 31 -10 c 0
 -12 2 -33 26 -33 62 c 0
 -33 109 -4 163 54 224 c 0
 113 285 166 316 213 316 c 0
 244 316 265 297 265 273 c 0
 265 236 235 199 176 163 c 0
 123 131 78 115 43 115 c 0
 37 115 32 116 29 117 c 1
 19 99 14 80 14 60 c 0
 14 25 30 8 63 8 c 0
 96 8 139 30 192 75 c 1
 233 108 267 143 296 180 c 0
 302 188 307 192 312 192 c 0
 316 192 318 190 318 186 c 0
 318 181 315 176 310 169 c 0
238 266 m 0
 243 280 236 287 219 287 c 0
 199 287 171 272 135 242 c 0
 107 219 85 196 68 174 c 0
 60 163 52 152 44 139 c 1
 47 138 52 137 57 137 c 0
 83 137 116 150 156 175 c 1
 200 204 227 234 238 266 c 0
264 364 m 0
 264 361 262 359 259 359 c 0
 256 359 240 368 210 385 c 1
 158 417 l 2
 153 421 151 427 151 434 c 0
 151 441 154 444 159 444 c 0
 162 444 167 442 173 437 c 0
 194 423 223 400 261 369 c 0
 263 367 264 365 264 364 c 0
EndSplineSet
EndChar

StartChar: ecircumflex
Encoding: 234 234 106
Width: 257
Flags: MW
HStem: -13 21<47.5 68.5> 115 22<54.5 60.5> 287 29<209 227.5> 402 20G<248 248>
VStem: -33 47<44 70 42.5 85.5>
LayerCount: 2
Fore
SplineSet
310 169 m 0
 273 120 230 78 181 43 c 0
 130 6 86 -13 51 -13 c 0
 44 -13 37 -12 31 -10 c 0
 -12 2 -33 26 -33 62 c 0
 -33 109 -4 163 54 224 c 0
 113 285 166 316 213 316 c 0
 244 316 265 297 265 273 c 0
 265 236 235 199 176 163 c 0
 123 131 78 115 43 115 c 0
 37 115 32 116 29 117 c 1
 19 99 14 80 14 60 c 0
 14 25 30 8 63 8 c 0
 96 8 139 30 192 75 c 1
 233 108 267 143 296 180 c 0
 302 188 307 192 312 192 c 0
 316 192 318 190 318 186 c 0
 318 181 315 176 310 169 c 0
238 266 m 0
 243 280 236 287 219 287 c 0
 199 287 171 272 135 242 c 0
 107 219 85 196 68 174 c 0
 60 163 52 152 44 139 c 1
 47 138 52 137 57 137 c 0
 83 137 116 150 156 175 c 1
 200 204 227 234 238 266 c 0
326 354 m 1
 323 349 l 1
 316 350 302 356 281 369 c 0
 261 382 247 392 240 399 c 1
 202 368 180 352 175 352 c 0
 172 352 171 354 171 357 c 0
 171 361 182 373 205 392 c 0
 228 411 243 421 248 422 c 1
 252 420 l 1
 267 404 290 384 323 359 c 1
 326 354 l 1
EndSplineSet
EndChar

StartChar: edieresis
Encoding: 235 235 107
Width: 257
Flags: MW
HStem: -13 21<47.5 68.5> 115 22<54.5 60.5> 287 29<209 227.5> 316 27<201 209 201 228.5> 394 20G<244.5 249.5 343.5 348.5>
VStem: -33 47<44 70 42.5 85.5>
LayerCount: 2
Fore
SplineSet
310 169 m 0xec
 273 120 230 78 181 43 c 0
 130 6 86 -13 51 -13 c 0
 44 -13 37 -12 31 -10 c 0
 -12 2 -33 26 -33 62 c 0
 -33 109 -4 163 54 224 c 0
 113 285 166 316 213 316 c 0
 244 316 265 297 265 273 c 0
 265 236 235 199 176 163 c 0
 123 131 78 115 43 115 c 0
 37 115 32 116 29 117 c 1
 19 99 14 80 14 60 c 0
 14 25 30 8 63 8 c 0
 96 8 139 30 192 75 c 1
 233 108 267 143 296 180 c 0
 302 188 307 192 312 192 c 0
 316 192 318 190 318 186 c 0
 318 181 315 176 310 169 c 0xec
238 266 m 0
 243 280 236 287 219 287 c 0
 199 287 171 272 135 242 c 0
 107 219 85 196 68 174 c 0
 60 163 52 152 44 139 c 1
 47 138 52 137 57 137 c 0
 83 137 116 150 156 175 c 1
 200 204 227 234 238 266 c 0
351 412 m 1
 339 398 l 1
 325 365 l 2
 319 350 312 343 303 343 c 0xdc
 295 343 286 359 286 367 c 0
 286 375 294 385 310 396 c 0
 327 408 339 414 348 414 c 0
 349 414 349 414 350 413 c 2
 351 412 l 1
252 412 m 1
 249 408 245 403 240 398 c 1
 236 387 232 376 227 365 c 0
 220 350 213 343 205 343 c 0
 197 343 188 359 188 367 c 0
 188 375 196 385 212 396 c 0
 228 408 240 414 249 414 c 0
 250 414 251 414 252 413 c 1
 252 412 l 1
EndSplineSet
EndChar

StartChar: iacute
Encoding: 237 237 108
Width: 226
Flags: MW
HStem: -12 22<41 55> 416 20G<282 287.5>
VStem: -15 38<32.5 54.5 30.5 58>
LayerCount: 2
Fore
SplineSet
44 -12 m 0
 5 -12 -15 10 -15 55 c 0
 -15 61 -14 67 -13 73 c 0
 -7 108 13 154 47 209 c 0
 84 269 114 300 139 301 c 0
 151 301 174 289 174 277 c 1
 174 278 149 245 98 179 c 0
 48 114 23 68 23 41 c 0
 23 20 32 10 50 10 c 0
 73 10 111 31 163 74 c 0
 199 104 225 129 242 148 c 0
 247 155 252 158 255 158 c 0
 258 158 259 156 259 152 c 0
 259 133 229 100 168 55 c 0
 107 10 66 -12 44 -12 c 0
165 333 m 0
 161 333 159 335 159 338 c 0
 159 340 160 342 162 344 c 2
 268 427 l 2
 275 433 280 436 284 436 c 0
 291 436 294 432 294 423 c 0
 294 415 291 409 286 404 c 1
 278 398 257 385 222 364 c 0
 188 343 169 333 165 333 c 0
EndSplineSet
EndChar

StartChar: igrave
Encoding: 236 236 109
Width: 226
Flags: MW
HStem: -12 22<41 55> 421 20G<104.5 109>
VStem: -15 38<32.5 54.5 30.5 58>
LayerCount: 2
Fore
SplineSet
44 -12 m 0
 5 -12 -15 10 -15 55 c 0
 -15 61 -14 67 -13 73 c 0
 -7 108 13 154 47 209 c 0
 84 269 114 300 139 301 c 0
 151 301 174 289 174 277 c 1
 174 278 149 245 98 179 c 0
 48 114 23 68 23 41 c 0
 23 20 32 10 50 10 c 0
 73 10 111 31 163 74 c 0
 199 104 225 129 242 148 c 0
 247 155 252 158 255 158 c 0
 258 158 259 156 259 152 c 0
 259 133 229 100 168 55 c 0
 107 10 66 -12 44 -12 c 0
212 361 m 0
 212 358 210 356 206 356 c 0
 203 356 187 364 158 381 c 0
 130 398 113 409 107 414 c 0
 102 419 99 424 99 431 c 0
 99 438 102 441 107 441 c 0
 111 441 128 430 158 407 c 0
 185 387 202 373 209 366 c 0
 211 365 212 363 212 361 c 0
EndSplineSet
EndChar

StartChar: icircumflex
Encoding: 238 238 110
Width: 226
Flags: MW
HStem: -12 22<41 55> 396 20G<184 184>
VStem: -15 38<32.5 54.5 30.5 58>
LayerCount: 2
Fore
SplineSet
44 -12 m 0
 5 -12 -15 10 -15 55 c 0
 -15 61 -14 67 -13 73 c 0
 -7 108 13 154 47 209 c 0
 84 269 114 300 139 301 c 0
 151 301 174 289 174 277 c 1
 174 278 149 245 98 179 c 0
 48 114 23 68 23 41 c 0
 23 20 32 10 50 10 c 0
 73 10 111 31 163 74 c 0
 199 104 225 129 242 148 c 0
 247 155 252 158 255 158 c 0
 258 158 259 156 259 152 c 0
 259 133 229 100 168 55 c 0
 107 10 66 -12 44 -12 c 0
261 348 m 1
 259 344 l 1
 251 344 237 350 216 363 c 0
 196 376 183 387 176 394 c 1
 137 362 116 346 111 346 c 0
 108 346 107 348 107 351 c 0
 107 355 118 367 141 386 c 0
 164 405 179 415 184 416 c 1
 187 415 l 1
 202 398 226 378 258 353 c 1
 261 348 l 1
EndSplineSet
EndChar

StartChar: idieresis
Encoding: 239 239 111
Width: 226
Flags: MW
HStem: -12 22<41 55> 301 56<120 145> 408 20G<163.5 168.5 261.5 266.5>
VStem: -15 38<32.5 54.5 30.5 58>
LayerCount: 2
Fore
SplineSet
44 -12 m 0
 5 -12 -15 10 -15 55 c 0
 -15 61 -14 67 -13 73 c 0
 -7 108 13 154 47 209 c 0
 84 269 114 300 139 301 c 0
 151 301 174 289 174 277 c 1
 174 278 149 245 98 179 c 0
 48 114 23 68 23 41 c 0
 23 20 32 10 50 10 c 0
 73 10 111 31 163 74 c 0
 199 104 225 129 242 148 c 0
 247 155 252 158 255 158 c 0
 258 158 259 156 259 152 c 0
 259 133 229 100 168 55 c 0
 107 10 66 -12 44 -12 c 0
269 426 m 1
 258 412 l 1
 244 379 l 2
 238 364 231 357 222 357 c 0
 214 357 205 373 205 381 c 0
 205 389 213 399 229 410 c 0
 245 422 257 428 266 428 c 0
 267 428 268 428 269 427 c 1
 269 426 l 1
171 426 m 1
 168 422 164 417 159 412 c 1
 154 401 150 390 146 379 c 1
 139 364 132 357 124 357 c 0
 116 357 107 373 107 381 c 0
 107 389 115 399 131 410 c 0
 147 422 159 428 168 428 c 0
 169 428 170 428 171 427 c 1
 171 426 l 1
EndSplineSet
EndChar

StartChar: ntilde
Encoding: 241 241 112
Width: 403
Flags: MW
HStem: -2 21G<246 275> -1 21G<37 44.5> 417 20G<275.5 287.5>
VStem: 206 44<50 66.5 50 79>
LayerCount: 2
Fore
SplineSet
425 134 m 0x70
 399 99 372 69 343 43 c 0
 310 13 284 -2 266 -2 c 0xb0
 226 -2 206 21 206 66 c 0
 206 92 219 129 246 176 c 1
 310 280 l 1
 264 246 219 204 175 155 c 0
 151 128 121 92 85 46 c 0
 61 15 47 -1 42 -1 c 0
 32 -1 24 4 18 13 c 0
 13 20 10 27 10 34 c 0
 10 52 30 102 71 182 c 1
 62 168 35 141 -10 98 c 0
 -18 90 -25 86 -31 86 c 0
 -34 86 -35 87 -35 89 c 0
 -35 92 -32 97 -26 103 c 0
 3 132 43 180 94 245 c 0
 132 292 154 316 161 316 c 0
 179 316 188 309 188 295 c 0
 188 291 187 287 185 283 c 0
 125 200 89 137 77 94 c 1
 232 249 327 327 360 327 c 1
 385 330 397 322 397 303 c 0
 397 300 397 298 396 295 c 0
 394 290 380 271 355 239 c 1
 324 202 301 171 286 148 c 0
 262 110 250 79 250 54 c 0
 250 46 251 39 254 32 c 0
 256 29 259 27 264 27 c 0
 279 27 303 40 336 67 c 0
 367 93 394 120 417 148 c 0
 422 153 426 156 429 156 c 0
 432 156 433 155 433 152 c 0
 433 147 430 141 425 134 c 0x70
419 437 m 1
 422 438 424 436 424 433 c 0
 424 423 411 409 385 391 c 0
 377 386 368 383 358 383 c 0
 346 383 329 387 307 396 c 0
 286 405 269 410 258 410 c 0
 247 410 236 406 225 397 c 0
 214 388 207 384 204 384 c 1
 203 385 203 385 203 386 c 0
 203 397 217 410 246 427 c 0
 257 434 269 437 282 437 c 0
 293 437 309 433 330 426 c 0
 351 419 366 416 377 416 c 0
 393 416 407 423 419 437 c 1
EndSplineSet
EndChar

StartChar: oacute
Encoding: 243 243 113
Width: 281
Flags: MW
HStem: -2 30<34.5 75 53.5 59> 470 20G<378 383.5>
VStem: -10 47
LayerCount: 2
Fore
SplineSet
339 270 m 1
 338 258 311 242 260 221 c 1
 267 199 245 157 194 95 c 0
 141 30 96 -2 59 -2 c 2
 43 -2 l 2
 26 -2 12 7 2 25 c 0
 -6 38 -10 52 -10 67 c 0
 -10 107 19 163 77 235 c 0
 136 308 183 344 219 344 c 0
 253 344 270 326 270 290 c 0
 270 279 268 267 265 254 c 1
 266 252 270 251 275 251 c 0
 292 251 314 257 339 270 c 1
236 218 m 1
 225 224 212 239 196 264 c 1
 173 264 141 237 98 182 c 0
 56 128 36 87 37 59 c 0
 38 38 46 28 61 28 c 0
 89 28 126 54 171 107 c 0
 214 158 236 195 236 218 c 1
261 388 m 0
 257 388 255 390 255 394 c 0
 255 396 256 398 258 400 c 0
 283 419 318 446 363 482 c 0
 370 487 376 490 380 490 c 0
 387 490 390 486 390 478 c 0
 390 470 387 463 380 458 c 0
 374 453 354 440 319 419 c 0
 284 398 265 388 261 388 c 0
EndSplineSet
EndChar

StartChar: ograve
Encoding: 242 242 114
Width: 281
Flags: MW
HStem: -2 30<34.5 75 53.5 59> 454 20G<174.5 179>
VStem: -10 47
LayerCount: 2
Fore
SplineSet
339 270 m 1
 338 258 311 242 260 221 c 1
 267 199 245 157 194 95 c 0
 141 30 96 -2 59 -2 c 2
 43 -2 l 2
 26 -2 12 7 2 25 c 0
 -6 38 -10 52 -10 67 c 0
 -10 107 19 163 77 235 c 0
 136 308 183 344 219 344 c 0
 253 344 270 326 270 290 c 0
 270 279 268 267 265 254 c 1
 266 252 270 251 275 251 c 0
 292 251 314 257 339 270 c 1
236 218 m 1
 225 224 212 239 196 264 c 1
 173 264 141 237 98 182 c 0
 56 128 36 87 37 59 c 0
 38 38 46 28 61 28 c 0
 89 28 126 54 171 107 c 0
 214 158 236 195 236 218 c 1
282 394 m 0
 282 391 280 389 276 389 c 0
 273 389 257 398 228 415 c 0
 199 432 182 443 177 447 c 0
 172 452 169 457 169 463 c 0
 169 470 172 474 177 474 c 0
 181 474 198 463 228 440 c 0
 255 419 272 406 279 399 c 0
 281 397 282 395 282 394 c 0
EndSplineSet
EndChar

StartChar: ocircumflex
Encoding: 244 244 115
Width: 281
Flags: MW
HStem: -2 30<34.5 75 53.5 59> 429 20G<266 266>
VStem: -10 47
LayerCount: 2
Fore
SplineSet
339 270 m 1
 338 258 311 242 260 221 c 1
 267 199 245 157 194 95 c 0
 141 30 96 -2 59 -2 c 2
 43 -2 l 2
 26 -2 12 7 2 25 c 0
 -6 38 -10 52 -10 67 c 0
 -10 107 19 163 77 235 c 0
 136 308 183 344 219 344 c 0
 253 344 270 326 270 290 c 0
 270 279 268 267 265 254 c 1
 266 252 270 251 275 251 c 0
 292 251 314 257 339 270 c 1
236 218 m 1
 225 224 212 239 196 264 c 1
 173 264 141 237 98 182 c 0
 56 128 36 87 37 59 c 0
 38 38 46 28 61 28 c 0
 89 28 126 54 171 107 c 0
 214 158 236 195 236 218 c 1
344 381 m 1
 341 377 l 1
 334 377 320 383 299 396 c 0
 279 409 265 420 258 427 c 1
 220 395 198 379 193 379 c 0
 190 379 189 381 189 384 c 0
 189 388 200 400 223 419 c 0
 246 438 261 448 266 449 c 1
 270 448 l 1
 285 431 308 411 341 386 c 1
 344 381 l 1
EndSplineSet
EndChar

StartChar: odieresis
Encoding: 246 246 116
Width: 281
Flags: MW
HStem: -2 30<34.5 75 53.5 59> 344 51<224 232.5 224 236> 445 20G<268.5 273.5 366.5 371.5 373 373>
VStem: -10 47
LayerCount: 2
Fore
SplineSet
339 270 m 1
 338 258 311 242 260 221 c 1
 267 199 245 157 194 95 c 0
 141 30 96 -2 59 -2 c 2
 43 -2 l 2
 26 -2 12 7 2 25 c 0
 -6 38 -10 52 -10 67 c 0
 -10 107 19 163 77 235 c 0
 136 308 183 344 219 344 c 0
 253 344 270 326 270 290 c 0
 270 279 268 267 265 254 c 1
 266 252 270 251 275 251 c 0
 292 251 314 257 339 270 c 1
236 218 m 1
 225 224 212 239 196 264 c 1
 173 264 141 237 98 182 c 0
 56 128 36 87 37 59 c 0
 38 38 46 28 61 28 c 0
 89 28 126 54 171 107 c 0
 214 158 236 195 236 218 c 1
374 463 m 0
 371 459 367 454 362 449 c 1
 348 417 l 2
 342 402 335 395 327 395 c 0
 319 395 309 410 309 418 c 0
 309 427 317 437 333 448 c 0
 350 459 362 465 371 465 c 0
 372 465 372 465 373 464 c 1
 373 465 l 1
 374 464 374 464 374 463 c 0
275 463 m 1
 264 449 l 1
 250 417 l 2
 244 402 237 395 228 395 c 0
 220 395 211 410 211 418 c 0
 211 427 219 437 235 448 c 0
 252 459 264 465 273 465 c 0
 274 465 274 465 275 464 c 1
 275 463 l 1
EndSplineSet
EndChar

StartChar: otilde
Encoding: 245 245 117
Width: 281
Flags: MW
HStem: -2 30<34.5 75 53.5 59> 437 20G<238.5 250.5 382 384>
VStem: -10 47
LayerCount: 2
Fore
SplineSet
339 270 m 1
 338 258 311 242 260 221 c 1
 267 199 245 157 194 95 c 0
 141 30 96 -2 59 -2 c 2
 43 -2 l 2
 26 -2 12 7 2 25 c 0
 -6 38 -10 52 -10 67 c 0
 -10 107 19 163 77 235 c 0
 136 308 183 344 219 344 c 0
 253 344 270 326 270 290 c 0
 270 279 268 267 265 254 c 1
 266 252 270 251 275 251 c 0
 292 251 314 257 339 270 c 1
236 218 m 1
 225 224 212 239 196 264 c 1
 173 264 141 237 98 182 c 0
 56 128 36 87 37 59 c 0
 38 38 46 28 61 28 c 0
 89 28 126 54 171 107 c 0
 214 158 236 195 236 218 c 1
382 457 m 1
 386 457 388 456 388 453 c 0
 388 443 375 429 348 411 c 0
 340 406 331 403 321 403 c 0
 310 403 293 407 271 416 c 0
 250 425 233 429 222 429 c 0
 211 429 199 425 188 416 c 0
 177 407 170 403 167 404 c 0
 166 405 166 405 166 406 c 0
 166 416 180 430 209 447 c 0
 220 454 232 457 245 457 c 0
 256 457 272 453 293 446 c 0
 314 439 329 436 340 436 c 0
 357 436 371 443 382 457 c 1
EndSplineSet
EndChar

StartChar: uacute
Encoding: 250 250 118
Width: 425
Flags: MW
HStem: -11 31 448 20G<387.5 393>
LayerCount: 2
Fore
SplineSet
464 150 m 0
 443 123 411 92 369 55 c 0
 325 17 295 -3 280 -6 c 0
 275 -7 271 -7 266 -7 c 0
 235 -7 209 11 209 40 c 0
 209 52 211 67 216 84 c 0
 220 97 224 110 227 123 c 1
 139 35 l 1
 104 4 74 -11 47 -11 c 0
 20 -11 5 6 2 40 c 0
 -1 69 16 108 51 157 c 1
 2 113 l 2
 -2 109 -6 107 -10 107 c 0
 -13 107 -14 108 -14 111 c 0
 -14 115 -11 121 -4 128 c 2
 128 283 l 2
 146 303 165 313 185 313 c 0
 200 313 208 307 208 295 c 0
 208 290 206 286 202 282 c 0
 177 259 145 221 108 168 c 0
 61 102 38 55 41 27 c 0
 42 18 46 14 53 14 c 0
 66 14 89 27 121 52 c 1
 175 97 l 2
 184 104 218 144 277 219 c 0
 329 284 363 316 379 316 c 0
 401 316 413 307 415 289 c 0
 416 283 402 263 373 230 c 1
 335 184 309 151 295 131 c 0
 267 90 254 59 256 38 c 0
 257 26 262 20 271 20 c 0
 275 20 280 21 287 24 c 0
 335 45 390 91 452 162 c 0
 456 167 460 169 464 169 c 0
 468 169 470 167 470 163 c 0
 470 160 468 155 464 150 c 0
271 365 m 0
 266 365 264 367 264 371 c 0
 264 374 265 376 267 378 c 0
 292 396 327 423 373 459 c 0
 380 465 385 468 390 468 c 0
 396 468 399 464 399 455 c 0
 399 447 396 441 391 436 c 0
 384 430 363 417 328 396 c 0
 294 375 275 365 271 365 c 0
EndSplineSet
EndChar

StartChar: ugrave
Encoding: 249 249 119
Width: 425
Flags: MW
HStem: -11 31 435 20G<218.5 222.5>
LayerCount: 2
Fore
SplineSet
464 150 m 0
 443 123 411 92 369 55 c 0
 325 17 295 -3 280 -6 c 0
 275 -7 271 -7 266 -7 c 0
 235 -7 209 11 209 40 c 0
 209 52 211 67 216 84 c 0
 220 97 224 110 227 123 c 1
 139 35 l 1
 104 4 74 -11 47 -11 c 0
 20 -11 5 6 2 40 c 0
 -1 69 16 108 51 157 c 1
 2 113 l 2
 -2 109 -6 107 -10 107 c 0
 -13 107 -14 108 -14 111 c 0
 -14 115 -11 121 -4 128 c 2
 128 283 l 2
 146 303 165 313 185 313 c 0
 200 313 208 307 208 295 c 0
 208 290 206 286 202 282 c 0
 177 259 145 221 108 168 c 0
 61 102 38 55 41 27 c 0
 42 18 46 14 53 14 c 0
 66 14 89 27 121 52 c 1
 175 97 l 2
 184 104 218 144 277 219 c 0
 329 284 363 316 379 316 c 0
 401 316 413 307 415 289 c 0
 416 283 402 263 373 230 c 1
 335 184 309 151 295 131 c 0
 267 90 254 59 256 38 c 0
 257 26 262 20 271 20 c 0
 275 20 280 21 287 24 c 0
 335 45 390 91 452 162 c 0
 456 167 460 169 464 169 c 0
 468 169 470 167 470 163 c 0
 470 160 468 155 464 150 c 0
325 374 m 0
 325 371 323 369 320 369 c 0
 317 369 301 378 272 395 c 0
 243 413 226 424 219 429 c 0
 215 432 213 437 213 444 c 0
 213 451 216 455 221 455 c 0
 224 455 229 453 234 449 c 0
 255 434 285 411 322 380 c 0
 324 378 325 376 325 374 c 0
EndSplineSet
EndChar

StartChar: ucircumflex
Encoding: 251 251 120
Width: 425
Flags: MW
HStem: -11 31 430 20G<326 326>
LayerCount: 2
Fore
SplineSet
464 150 m 0
 443 123 411 92 369 55 c 0
 325 17 295 -3 280 -6 c 0
 275 -7 271 -7 266 -7 c 0
 235 -7 209 11 209 40 c 0
 209 52 211 67 216 84 c 0
 220 97 224 110 227 123 c 1
 139 35 l 1
 104 4 74 -11 47 -11 c 0
 20 -11 5 6 2 40 c 0
 -1 69 16 108 51 157 c 1
 2 113 l 2
 -2 109 -6 107 -10 107 c 0
 -13 107 -14 108 -14 111 c 0
 -14 115 -11 121 -4 128 c 2
 128 283 l 2
 146 303 165 313 185 313 c 0
 200 313 208 307 208 295 c 0
 208 290 206 286 202 282 c 0
 177 259 145 221 108 168 c 0
 61 102 38 55 41 27 c 0
 42 18 46 14 53 14 c 0
 66 14 89 27 121 52 c 1
 175 97 l 2
 184 104 218 144 277 219 c 0
 329 284 363 316 379 316 c 0
 401 316 413 307 415 289 c 0
 416 283 402 263 373 230 c 1
 335 184 309 151 295 131 c 0
 267 90 254 59 256 38 c 0
 257 26 262 20 271 20 c 0
 275 20 280 21 287 24 c 0
 335 45 390 91 452 162 c 0
 456 167 460 169 464 169 c 0
 468 169 470 167 470 163 c 0
 470 160 468 155 464 150 c 0
404 382 m 1
 401 378 l 1
 394 378 380 384 359 397 c 0
 338 410 325 421 318 428 c 1
 279 396 258 380 253 380 c 0
 250 380 249 382 249 386 c 0
 249 389 260 401 283 420 c 0
 306 439 321 449 326 450 c 1
 330 449 l 1
 345 432 368 412 401 388 c 1
 404 382 l 1
EndSplineSet
EndChar

StartChar: udieresis
Encoding: 252 252 121
Width: 425
Flags: MW
HStem: -11 31 316 59<371 373> 425 20G<310.5 315.5 317 317 408.5 413.5>
LayerCount: 2
Fore
SplineSet
464 150 m 0
 443 123 411 92 369 55 c 0
 325 17 295 -3 280 -6 c 0
 275 -7 271 -7 266 -7 c 0
 235 -7 209 11 209 40 c 0
 209 52 211 67 216 84 c 0
 220 97 224 110 227 123 c 1
 139 35 l 1
 104 4 74 -11 47 -11 c 0
 20 -11 5 6 2 40 c 0
 -1 69 16 108 51 157 c 1
 2 113 l 2
 -2 109 -6 107 -10 107 c 0
 -13 107 -14 108 -14 111 c 0
 -14 115 -11 121 -4 128 c 2
 128 283 l 2
 146 303 165 313 185 313 c 0
 200 313 208 307 208 295 c 0
 208 290 206 286 202 282 c 0
 177 259 145 221 108 168 c 0
 61 102 38 55 41 27 c 0
 42 18 46 14 53 14 c 0
 66 14 89 27 121 52 c 1
 175 97 l 2
 184 104 218 144 277 219 c 0
 329 284 363 316 379 316 c 0
 401 316 413 307 415 289 c 0
 416 283 402 263 373 230 c 1
 335 184 309 151 295 131 c 0
 267 90 254 59 256 38 c 0
 257 26 262 20 271 20 c 0
 275 20 280 21 287 24 c 0
 335 45 390 91 452 162 c 0
 456 167 460 169 464 169 c 0
 468 169 470 167 470 163 c 0
 470 160 468 155 464 150 c 0
318 443 m 0
 315 439 311 434 306 429 c 1
 292 397 l 2
 286 382 279 375 271 375 c 0
 263 375 253 390 253 398 c 0
 253 406 261 416 277 427 c 0
 294 439 306 445 315 445 c 0
 316 445 316 445 317 444 c 1
 317 445 l 1
 318 444 318 444 318 443 c 0
416 443 m 1
 413 439 409 434 404 429 c 1
 391 397 l 2
 384 382 377 375 369 375 c 0
 361 375 352 390 352 398 c 0
 352 406 360 416 376 427 c 0
 392 439 404 445 413 445 c 0
 414 445 415 445 416 444 c 1
 416 443 l 1
EndSplineSet
EndChar

StartChar: dagger
Encoding: 8224 8224 122
Width: 387
Flags: MW
HStem: 11 21G<156.5 159> 399 29 609 20G<221 223>
VStem: 189 34<590 609 609 611.5>
LayerCount: 2
Fore
SplineSet
380 413 m 0
 380 410 376 408 369 408 c 0
 325 408 272 407 211 404 c 1
 201 287 190 187 178 102 c 0
 176 81 171 51 162 14 c 0
 161 12 160 11 158 11 c 0
 155 11 154 13 154 17 c 0
 154 18 155 31 157 55 c 2
 164 147 l 2
 173 256 180 342 184 403 c 1
 104 399 l 2
 74 397 60 396 61 396 c 1
 52 396 31 411 28 419 c 1
 29 420 30 421 31 421 c 0
 64 425 116 427 185 428 c 1
 188 480 189 540 189 608 c 0
 189 615 213 628 221 629 c 1
 223 628 l 1
 223 609 l 2
 223 571 220 511 213 428 c 1
 287 427 341 423 375 416 c 0
 378 415 380 414 380 413 c 0
EndSplineSet
EndChar

StartChar: degree
Encoding: 176 176 123
Width: 283
Flags: MW
HStem: 320 22<133.5 168.5 133.5 174.5> 470 22<133.5 168.5>
VStem: 65 22<388.5 423.5 388.5 430> 215 22<388.5 423.5>
LayerCount: 2
Fore
SplineSet
237 406 m 0
 237 358 198 320 151 320 c 0
 103 320 65 358 65 406 c 0
 65 454 103 492 151 492 c 0
 199 492 237 454 237 406 c 0
215 406 m 0
 215 441 186 470 151 470 c 0
 116 470 87 441 87 406 c 0
 87 371 116 342 151 342 c 0
 186 342 215 371 215 406 c 0
EndSplineSet
EndChar

StartChar: cent
Encoding: 162 162 124
Width: 295
Flags: MW
HStem: -42 21G<31.5 35.5> 129 21<121 133> 150 158<121 174.5> 464 20G<294 299.5>
VStem: 60 31<184 209>
LayerCount: 2
Fore
SplineSet
213 327 m 1xd8
 216 324 218 319 218 314 c 0
 218 308 214 298 206 284 c 0
 198 271 191 264 186 264 c 0
 184 264 183 265 183 268 c 0
 183 273 189 286 189 291 c 0
 189 302 182 308 167 308 c 0xb8
 147 308 129 295 114 270 c 0
 99 245 91 222 91 201 c 0
 91 167 106 150 136 150 c 0
 173 150 212 176 254 228 c 0
 259 235 264 238 268 238 c 0
 270 238 271 237 271 235 c 0
 271 227 259 212 234 189 c 0
 213 170 197 157 185 149 c 0
 165 136 144 129 122 129 c 0
 117 129 111 130 106 131 c 1
 84 102 61 45 38 -40 c 0
 37 -41 36 -42 35 -42 c 0
 28 -42 25 -40 25 -35 c 0
 25 -31 27 -21 30 -6 c 0
 43 61 61 109 84 140 c 1
 68 151 60 170 60 195 c 0
 60 223 76 254 107 287 c 0
 139 321 169 337 196 334 c 1
 203 348 218 374 240 411 c 0
 265 454 280 476 284 479 c 0
 288 482 292 484 296 484 c 0
 303 484 307 482 307 477 c 0
 307 476 307 474 306 473 c 0
 284 442 253 393 213 327 c 1xd8
EndSplineSet
EndChar

StartChar: sterling
Encoding: 163 163 125
Width: 881
Flags: MW
HStem: -58 24 -27 138 234 23 528 20G
VStem: 34 32
LayerCount: 2
Fore
SplineSet
875 39 m 0
 875 -56 770 -76 686 -76 c 0
 598 -76 471 -39 356 21 c 1
 304 -12 256 -28 211 -28 c 0
 170 -28 132 -15 96 13 c 0
 58 42 38 76 38 117 c 0
 38 142 52 154 81 154 c 0
 122 154 213 118 356 46 c 1
 402 102 446 193 488 316 c 1
 327 316 l 2
 319 316 315 319 315 324 c 0
 315 339 323 347 339 347 c 2
 499 347 l 1
 547 490 599 607 649 665 c 1
 697 719 737 731 776 731 c 0
 827 731 862 695 862 642 c 0
 862 578 826 527 753 492 c 0
 748 489 744 488 740 488 c 0
 736 488 735 489 735 493 c 0
 735 500 740 508 752 517 c 1
 759 521 766 529 778 538 c 1
 814 571 831 609 831 653 c 0
 831 686 807 700 784 700 c 0
 718 700 664 603 633 547 c 1
 613 513 583 446 542 347 c 1
 714 347 l 2
 719 347 722 344 722 340 c 0
 722 324 712 316 693 316 c 2
 530 316 l 1
 501 245 480 196 466 168 c 0
 435 104 406 60 380 36 c 1
 411 17 456 -2 516 -16 c 1
 571 -31 619 -38 660 -38 c 0
 703 -38 740 -32 773 -20 c 1
 819 -5 842 21 842 54 c 0
 842 68 835 81 823 93 c 0
 811 105 805 113 805 116 c 0
 805 120 806 122 810 122 c 0
 813 122 815 121 818 118 c 0
 848 96 875 65 875 39 c 0
324 28 m 1
 306 42 271 59 221 79 c 0
 172 98 137 109 116 109 c 0
 108 109 103 106 103 101 c 0
 103 72 116 48 139 27 c 1
 165 6 191 -3 219 -3 c 0
 258 -3 294 7 324 28 c 1
EndSplineSet
EndChar

StartChar: section
Encoding: 167 167 126
Width: 570
Flags: MW
HStem: -42 25 495 22
VStem: 52 29 201 24 219 28 475 74 526 23 545 28
LayerCount: 2
Fore
SplineSet
160 321 m 0
 172 226 274 200 352 169 c 0
 385 156 416 141 440 124 c 1
 507 147 571 201 571 262 c 0
 571 368 367 359 287 461 c 1
 223 437 159 390 159 330 c 0
 159 326 160 324 160 321 c 0
319 -74 m 1
 393 -44 481 34 381 99 c 0
 295 154 118 170 118 302 c 0
 118 378 183 449 273 486 c 1
 266 501 262 517 262 534 c 0
 262 645 442 751 593 758 c 1
 677 763 681 711 673 666 c 0
 671 656 655 619 637 617 c 0
 631 617 631 621 634 630 c 1
 637 650 l 1
 648 709 608 723 556 721 c 0
 484 717 303 658 303 562 c 0
 303 558 304 556 304 552 c 0
 325 386 623 421 623 293 c 0
 623 222 551 144 459 106 c 1
 471 94 474 85 477 78 c 0
 499 6 389 -67 326 -96 c 0
 259 -128 195 -145 131 -149 c 0
 40 -154 -12 -128 -26 -69 c 0
 -33 -36 -20 -2 16 30 c 1
 41 54 73 75 113 91 c 0
 118 94 124 96 127 96 c 0
 133 96 135 95 137 92 c 1
 137 89 131 84 118 78 c 0
 88 63 60 46 38 21 c 1
 11 -5 0 -36 7 -65 c 0
 17 -105 62 -123 142 -118 c 0
 200 -115 259 -101 319 -74 c 1
EndSplineSet
EndChar

StartChar: bullet
Encoding: 8226 8226 127
Width: 537
Flags: MW
HStem: 20 21G<241 300.5> 433 20G<241 300.5>
LayerCount: 2
Fore
SplineSet
487 237 m 0
 487 177 466 126 423 83 c 0
 381 41 330 20 271 20 c 0
 211 20 160 41 117 83 c 1
 75 126 54 177 54 237 c 0
 54 296 75 347 117 389 c 0
 160 432 211 453 271 453 c 0
 330 453 381 432 423 389 c 1
 466 347 487 296 487 237 c 0
EndSplineSet
EndChar

StartChar: paragraph
Encoding: 182 182 128
Width: 548
Flags: MW
HStem: -177 21G<-41 -11.5> 628 20G<578.5 601.5>
LayerCount: 2
Fore
SplineSet
625 635 m 1
 621 631 595 630 580 621 c 0
 544 600 502 535 453 426 c 1
 331 132 l 1
 285 25 247 -38 216 -56 c 0
 213 -58 209 -59 204 -59 c 0
 200 -59 198 -58 198 -55 c 0
 199 -52 204 -46 212 -39 c 0
 248 -5 288 77 332 208 c 0
 354 275 376 341 399 408 c 1
 429 487 462 549 498 592 c 1
 488 592 l 2
 442 592 389 530 330 406 c 0
 303 351 270 267 229 152 c 0
 204 83 170 17 126 -47 c 0
 67 -134 13 -177 -36 -177 c 0
 -46 -177 -51 -174 -52 -168 c 1
 -50 -164 -47 -162 -42 -162 c 0
 17 -162 76 -101 136 21 c 0
 155 60 190 148 240 285 c 1
 137 294 86 332 86 398 c 0
 86 455 118 505 183 548 c 0
 242 587 301 606 361 606 c 0
 373 606 391 607 415 608 c 0
 439 609 457 610 469 610 c 0
 485 610 498 609 508 606 c 1
 535 634 564 648 593 648 c 0
 610 648 621 644 625 635 c 1
EndSplineSet
EndChar

StartChar: germandbls
Encoding: 223 223 129
Width: 581
Flags: MW
HStem: -168 21G -47 23 279 26 598 38
VStem: 480 35 531 22
LayerCount: 2
Fore
SplineSet
204 3 m 1
 184 23 172 66 167 94 c 0
 164 111 164 120 159 120 c 0
 153 120 141 114 141 89 c 0
 141 64 150 42 168 24 c 0
 177 15 189 8 204 3 c 1
544 541 m 0
 544 466 492 433 411 406 c 0
 372 392 317 373 317 322 c 0
 317 295 341 276 387 263 c 1
 489 242 509 233 525 222 c 0
 552 202 562 179 561 156 c 0
 554 44 379 -20 283 -20 c 0
 270 -20 248 -15 236 -13 c 1
 245 -19 299 -41 317 -46 c 0
 319 -46 319 -47 319 -48 c 0
 319 -51 316 -52 309 -52 c 0
 296 -52 239 -27 219 -11 c 1
 191 -7 170 1 158 12 c 0
 149 19 141 28 134 41 c 0
 127 55 123 68 123 81 c 0
 123 105 140 132 167 132 c 0
 178 132 185 122 187 103 c 0
 192 67 199 47 200 41 c 0
 205 25 210 9 222 -2 c 1
 235 -5 250 -7 266 -7 c 0
 302 -7 336 0 368 14 c 1
 414 32 506 84 506 145 c 0
 506 166 490 186 455 195 c 2
 347 222 l 1
 304 234 275 264 275 299 c 0
 275 363 336 403 398 423 c 0
 455 441 498 492 498 538 c 0
 498 606 465 641 415 641 c 0
 223 641 48 -320 -328 -320 c 0
 -396 -320 -448 -287 -441 -229 c 0
 -439 -212 -434 -193 -421 -171 c 1
 -406 -157 l 1
 -404 -153 -398 -151 -394 -151 c 0
 -393 -151 -393 -152 -393 -152 c 1
 -413 -177 -417 -191 -419 -209 c 0
 -426 -266 -381 -295 -328 -295 c 0
 -296 -295 -263 -286 -235 -264 c 0
 7 -81 108 317 267 566 c 0
 304 624 347 664 409 664 c 0
 487 664 544 646 544 541 c 0
EndSplineSet
EndChar

StartChar: registered
Encoding: 174 174 130
Width: 638
Flags: MW
HStem: 29 21<210.5 256.5 210.5 256.5> 261 178 427 95<370 388.5> 502 20<370 433.5 370 442.5>
VStem: 41 36<164 215.5 164 224.5> 464 25<346.5 376.5 346.5 389> 543 38<325 387.5 325 398.5>
LayerCount: 2
Fore
SplineSet
581 364 m 0xde
 581 286 540 211 458 138 c 0
 377 65 296 29 217 29 c 0
 170 29 129 43 95 71 c 0
 59 100 41 138 41 185 c 0
 41 264 83 340 168 414 c 1
 249 486 330 522 410 522 c 0
 457 522 498 507 531 478 c 0
 564 449 581 411 581 364 c 0xde
543 356 m 0
 543 441 485 502 400 502 c 0
 327 502 255 469 186 404 c 1
 245 427 301 439 355 439 c 0
 387 439 415 434 439 424 c 0
 472 411 489 390 489 363 c 0
 489 330 465 303 418 284 c 0
 382 269 344 262 304 261 c 1
 313 229 325 201 340 176 c 0
 361 141 384 124 408 123 c 1
 498 195 543 273 543 356 c 0
464 370 m 0
 464 408 426 427 351 427 c 0xae
 327 427 294 421 252 408 c 1
 213 397 181 385 156 372 c 1
 103 309 77 247 77 184 c 0
 77 144 93 111 125 86 c 1
 154 62 190 50 231 50 c 0
 282 50 335 69 389 108 c 1
 364 114 340 136 316 173 c 0
 297 202 283 233 274 264 c 1
 268 264 264 265 262 267 c 1
 273 271 l 1
 280 276 l 1
 289 273 l 1
 406 289 464 321 464 370 c 0
358 410 m 1
 357 408 347 394 326 367 c 0
 281 310 247 266 225 233 c 0
 182 170 159 121 154 87 c 0
 153 80 152 76 150 76 c 0
 143 76 139 88 139 112 c 0
 139 141 166 195 219 272 c 0
 264 339 303 388 336 421 c 1
 358 410 l 1
EndSplineSet
EndChar

StartChar: copyright
Encoding: 169 169 131
Width: 638
Flags: MW
HStem: 29 21<210.5 256.5> 29 98<196.5 228.5 196.5 256.5> 441 81<391 428.5> 502 20<370 433.5 370 442.5>
VStem: 41 36<164 221.5 164 224.5> 131 34<168.5 201.5 159 209.5> 543 38<325 387.5 325 398.5>
LayerCount: 2
Fore
SplineSet
581 364 m 0x9e
 581 286 540 211 458 138 c 0
 377 65 296 29 217 29 c 0
 170 29 129 43 95 71 c 0
 59 100 41 138 41 185 c 0
 41 264 83 340 168 414 c 1
 249 486 330 522 410 522 c 0
 457 522 498 507 531 478 c 0
 564 449 581 411 581 364 c 0x9e
543 356 m 0
 543 441 485 502 400 502 c 0
 325 502 253 468 182 399 c 0
 112 330 77 259 77 184 c 0
 77 144 93 111 125 86 c 1
 154 62 190 50 231 50 c 0
 302 50 371 83 440 150 c 0
 509 217 543 285 543 356 c 0
471 410 m 0
 471 389 465 379 453 378 c 1
 448 382 l 1
 450 400 452 408 453 407 c 1
 452 429 440 441 417 441 c 0
 365 441 310 410 252 347 c 0
 194 285 165 228 165 175 c 0
 165 143 181 127 212 127 c 0x6e
 245 127 288 141 341 170 c 0
 392 198 417 213 413 214 c 1
 415 214 416 213 416 211 c 0
 416 188 388 166 331 144 c 0
 282 125 243 115 215 115 c 0
 192 115 173 120 158 130 c 0
 140 141 131 158 131 179 c 0
 131 240 164 301 231 362 c 0
 296 421 359 450 422 450 c 0
 455 450 471 437 471 410 c 0
EndSplineSet
EndChar

StartChar: trademark
Encoding: 8482 8482 132
Width: 656
Flags: MW
HStem: 322 21G<65 76> 387 21<439.5 457> 600 35 623 20G<296.5 322.5>
LayerCount: 2
Fore
SplineSet
634 597 m 0xe0
 634 590 632 579 629 563 c 1
 624 544 622 532 621 526 c 0
 619 473 614 417 607 357 c 1
 600 346 589 340 572 340 c 0
 565 340 561 343 561 349 c 0
 561 350 561 353 562 357 c 0
 569 394 579 449 594 522 c 1
 524 432 473 387 441 387 c 0
 406 387 377 432 352 522 c 1
 345 507 335 476 323 430 c 0
 312 389 302 360 292 344 c 0
 285 333 276 328 265 328 c 0
 258 328 254 330 254 335 c 0
 254 338 267 371 292 434 c 0
 319 501 334 540 337 549 c 1
 338 566 340 582 342 598 c 0
 345 621 353 633 366 633 c 0
 371 633 375 626 379 611 c 1
 386 572 392 533 398 494 c 1
 411 437 428 408 451 408 c 0
 471 408 504 444 550 516 c 0
 597 588 621 624 622 624 c 0
 630 624 634 615 634 597 c 0xe0
337 635 m 0
 337 627 314 620 268 615 c 0
 219 610 192 603 187 594 c 0
 176 573 163 541 149 498 c 0
 139 465 129 431 118 398 c 0
 113 381 104 358 92 331 c 1
 88 325 81 322 71 322 c 0
 59 322 53 326 53 335 c 0
 53 344 66 379 91 440 c 0
 107 478 123 516 140 554 c 1
 148 577 152 591 152 596 c 0
 152 602 143 605 124 605 c 0
 108 605 68 600 52 600 c 0
 38 600 30 604 27 613 c 1
 32 622 77 629 162 635 c 0xe0
 227 640 278 643 315 643 c 0xd0
 330 643 337 640 337 635 c 0
EndSplineSet
EndChar

StartChar: acute
Encoding: 180 180 133
Width: 221
Flags: MW
HStem: 261 21G 344 20G
LayerCount: 2
Fore
SplineSet
55 259 m 0
 50 259 48 261 48 265 c 0
 48 268 49 270 52 272 c 2
 157 353 l 2
 164 359 170 362 174 362 c 0
 180 362 183 358 183 349 c 0
 183 341 180 335 175 330 c 0
 168 324 147 311 112 290 c 0
 78 269 59 259 55 259 c 0
EndSplineSet
EndChar

StartChar: dieresis
Encoding: 168 168 134
Width: 261
Flags: MW
HStem: 343 21G<48.5 58 169.5 179> 409 20G<101.5 107.5 222.5 228.5>
LayerCount: 2
Fore
SplineSet
228 429 m 0
 229 429 230 428 231 428 c 1
 230 428 225 421 217 410 c 1
 201 370 l 2
 193 352 184 343 174 343 c 0
 165 343 153 361 153 372 c 0
 153 382 163 394 182 408 c 0
 202 422 217 429 228 429 c 0
107 429 m 0
 108 429 109 428 110 428 c 1
 109 428 104 421 96 410 c 1
 80 370 l 2
 72 352 63 343 53 343 c 0
 44 343 32 361 32 372 c 0
 32 382 42 394 61 408 c 0
 81 422 96 429 107 429 c 0
111 427 m 1
 111 427 111 428 110 428 c 2
 111 428 l 1
 111 427 l 1
231 428 m 1
 232 428 l 1
 232 427 l 1
 231 428 l 1
EndSplineSet
EndChar

StartChar: plusminus
Encoding: 177 177 135
Width: 438
Flags: MW
HStem: 65 32 287 21 451 20G<230.5 235>
VStem: 216 28
LayerCount: 2
Fore
SplineSet
404 302 m 2
 404 298 l 1
 395 292 l 1
 367 292 317 292 244 291 c 1
 243 200 240 151 237 144 c 0
 235 140 232 138 229 138 c 0
 228 138 226 141 225 146 c 0
 221 160 219 191 219 238 c 2
 219 290 l 1
 206 290 183 289 150 287 c 0
 121 286 97 285 80 285 c 0
 72 285 62 297 61 306 c 1
 66 311 l 1
 93 314 144 316 219 315 c 1
 216 384 l 2
 214 413 213 436 213 453 c 0
 213 461 226 471 235 471 c 1
 240 466 l 1
 243 439 245 389 244 315 c 1
 291 314 342 312 398 308 c 1
 402 306 404 304 404 302 c 2
320 82 m 0
 320 79 318 77 314 77 c 0
 293 77 263 75 223 71 c 0
 183 67 153 65 133 65 c 0
 126 65 113 81 112 89 c 1
 114 90 l 1
 128 95 160 97 211 97 c 0
 266 97 301 93 317 85 c 0
 319 84 320 83 320 82 c 0
EndSplineSet
EndChar

StartChar: ordfeminine
Encoding: 170 170 136
Width: 240
Flags: MW
HStem: 235 31 544 37<275.5 288 252 302.5>
LayerCount: 2
Fore
SplineSet
468 415 m 0
 383 301 318 244 273 244 c 0
 267 244 261 245 256 247 c 0
 227 258 212 280 212 313 c 0
 212 323 213 334 216 347 c 1
 154 287 l 1
 114 252 85 235 67 235 c 0
 35 235 -4 261 -8 292 c 0
 -15 344 18 405 89 475 c 0
 160 546 224 581 280 581 c 0
 296 581 308 577 316 570 c 0
 325 561 329 539 332 539 c 0
 337 539 341 542 346 542 c 0
 362 542 376 526 377 517 c 0
 378 515 356 482 313 418 c 0
 270 355 250 312 254 289 c 0
 257 274 264 266 276 266 c 0
 311 266 374 323 466 438 c 0
 468 441 470 442 472 442 c 0
 475 442 477 440 477 435 c 0
 477 430 474 423 468 415 c 0
322 530 m 1
 317 539 309 544 296 544 c 0
 255 544 200 511 131 446 c 0
 59 379 27 324 34 281 c 0
 37 265 45 257 58 257 c 0
 96 257 149 299 216 384 c 1
 322 530 l 1
EndSplineSet
EndChar

StartChar: ordmasculine
Encoding: 186 186 137
Width: 191
Flags: MW
HStem: 232 30<34.5 75 53.5 59> 558 20G<201 236>
VStem: -10 47
LayerCount: 2
Fore
SplineSet
339 504 m 1
 338 492 311 476 260 455 c 1
 267 433 245 391 194 329 c 0
 141 264 96 232 59 232 c 2
 43 232 l 2
 26 232 12 241 2 259 c 0
 -6 272 -10 286 -10 301 c 0
 -10 341 19 397 77 469 c 0
 136 542 183 578 219 578 c 0
 253 578 270 560 270 524 c 0
 270 513 268 501 265 488 c 1
 266 486 270 485 275 485 c 0
 292 485 314 491 339 504 c 1
236 452 m 1
 225 458 212 473 196 498 c 1
 173 498 141 471 98 416 c 0
 56 362 36 321 37 293 c 0
 38 272 46 262 61 262 c 0
 89 262 126 288 171 341 c 0
 214 392 236 429 236 452 c 1
EndSplineSet
EndChar

StartChar: ae
Encoding: 230 230 138
Width: 424
Flags: HMWO
HStem: -5 31 304 37<275.5 288 252 302.5>
LayerCount: 2
Fore
SplineSet
491 159 m 4x60
 491 158 491 155 489 152 c 4
 468 123 435 95 391 68 c 5
 343 41 301 28 263 28 c 4
 238 28 220 33 209 43 c 5
 196 52 189 69 182 84 c 5
 180.557106963 90.7335008386 179.981689058 97.1778433 179.981689058 103.458194767 c 0
 179.981689058 123.293506651 185.721446518 141.493018666 188 162 c 5
 129 70 66 28 20 28 c 4xa0
 -7 28 -21 40 -21 67 c 4
 -21 107 1 155 44 212 c 4
 88 269 131 304 174 318 c 4
 188 322 204 325 218 325 c 4
 248 325 271 315 285 297 c 5
 312 318 340 329 369 329 c 4
 391 329 402 318 402 296 c 4
 402 272 381 242 340 209 c 4
 304 178 269 158 239 148 c 5
 233 130 229 113 229 99 c 4
 229 68 245 53 277 53 c 4
 339 53 402 86 467 152 c 4
 475 159 481 163 486 163 c 4
 489 163 491 162 491 159 c 4x60
363 283 m 4
 363 291 358 296 347 296 c 4x60
 333 296 313 278 288 243 c 4
 267 214 253 190 247 172 c 5
 271 182 296 197 320 218 c 4
 349 242 363 263 363 283 c 4
226 286 m 5
 223 287 219 287 214 287 c 4
 178 287 136 262 90 212 c 4
 46 163 23 121 23 86 c 4
 23 71 30 63 44 63 c 4
 71 63 107 93 150 156 c 4
 182 201 207 244 226 286 c 5
EndSplineSet
EndChar

StartChar: questiondown
Encoding: 191 191 139
Width: 401
Flags: MW
HStem: -206 41<148 178> -206 198<102 305.5> 224 64<297.5 310.5 291 315>
VStem: -8 49<-104.5 -90.5>
LayerCount: 2
Fore
SplineSet
341 253 m 0x70
 341 234 328 224 302 224 c 0
 293 224 284 227 276 233 c 0
 266 240 261 248 261 257 c 0
 261 273 283 288 299 288 c 0
 322 288 341 272 341 253 c 0x70
345 -65 m 0
 341 -110 317 -146 274 -173 c 0
 238 -195 199 -206 157 -206 c 0
 47 -206 -8 -174 -8 -111 c 0
 -8 -70 10 -36 45 -8 c 0x70
 54 -1 94 23 165 64 c 0
 212 91 244 121 261 153 c 0
 267 164 272 170 276 170 c 0
 281 170 283 166 283 157 c 0
 283 152 282 149 281 146 c 0
 264 111 234 80 193 53 c 1
 131 14 95 -11 84 -21 c 0
 55 -47 41 -71 41 -94 c 0
 41 -115 54 -133 79 -146 c 0
 102 -159 131 -165 165 -165 c 0xb0
 204 -165 238 -157 266 -141 c 0
 298 -122 316 -96 321 -63 c 0
 324 -46 304 -27 280 -27 c 0
 261 -27 242 -37 223 -57 c 0
 218 -62 215 -62 214 -57 c 0
 212 -52 213 -47 218 -42 c 0
 240 -19 264 -8 289 -8 c 0
 322 -8 348 -32 345 -65 c 0
EndSplineSet
EndChar

StartChar: exclamdown
Encoding: 161 161 140
Width: 295
Flags: MW
HStem: -215 21G<-12.5 0.5> 166 64<204.5 221.5 202.5 226.5>
VStem: 172 80<190.5 204.5 185.5 208>
LayerCount: 2
Fore
SplineSet
252 195 m 0
 252 176 239 166 214 166 c 0
 195 166 172 181 172 200 c 0
 172 216 195 230 210 230 c 0
 233 230 252 214 252 195 c 0
194 96 m 0
 186 51 155 -12 101 -93 c 0
 47 -174 10 -215 -9 -215 c 0
 -16 -215 -24 -214 -33 -211 c 0
 -44 -208 -50 -203 -50 -198 c 0
 -50 -196 -49 -194 -46 -191 c 0
 -18 -162 23 -112 76 -41 c 1
 130 29 161 74 169 93 c 0
 176 108 183 115 190 115 c 0
 195 115 196 109 194 96 c 0
EndSplineSet
EndChar

StartChar: logicalnot
Encoding: 172 172 141
Width: 259
Flags: MW
HStem: -32 21G<45.5 63.5> 552 20G<342.5 366.5>
VStem: 3 35<9.5 79.5>
LayerCount: 2
Fore
SplineSet
390 548 m 0
 319 471 245 379 170 273 c 0
 82 148 38 64 38 22 c 0
 38 -3 50 -18 75 -23 c 0
 77 -24 78 -24 78 -25 c 0
 78 -30 71 -32 56 -32 c 0
 35 -32 20 -19 11 7 c 0
 6 23 3 40 3 59 c 0
 3 100 57 197 164 349 c 0
 269 498 332 572 353 572 c 0
 380 572 394 566 394 555 c 0
 394 553 393 551 390 548 c 0
EndSplineSet
EndChar

StartChar: florin
Encoding: 402 402 142
Width: 340
Flags: MW
HStem: -290 25<-51 -8.5 -51 -0.5>
VStem: -134 41<-214 -179 -219 -150.5> 198 41<27.5 54.5>
LayerCount: 2
Fore
SplineSet
334 420 m 1
 297 401 253 366 204 313 c 0
 163 269 131 229 109 194 c 1
 153 194 186 180 209 151 c 0
 229 126 239 94 239 55 c 0
 239 0 209 -70 150 -155 c 0
 87 -245 27 -290 -28 -290 c 0
 -99 -290 -134 -252 -134 -176 c 0
 -134 -125 -103 -48 -40 57 c 0
 16 151 80 240 153 324 c 1
 227 411 281 457 314 464 c 0
 331 468 344 455 344 439 c 0
 344 431 341 425 334 420 c 1
198 39 m 0
 198 70 192 97 179 118 c 0
 162 146 136 160 100 160 c 0
 69 160 29 107 -22 2 c 0
 -69 -96 -93 -162 -93 -196 c 0
 -93 -242 -72 -265 -30 -265 c 0
 13 -265 63 -225 119 -145 c 0
 172 -69 198 -8 198 39 c 0
EndSplineSet
EndChar

StartChar: guillemotleft
Encoding: 171 171 143
Width: 420
Flags: MW
HStem: 422 20G<218.5 224.5 359.5 365>
LayerCount: 2
Fore
SplineSet
369 436 m 0
 369 426 336 375 270 283 c 1
 335 201 368 156 368 149 c 0
 368 140 364 135 357 136 c 1
 349 140 l 1
 334 160 316 180 293 199 c 2
 228 250 l 2
 226 251 225 253 225 256 c 0
 225 263 243 292 278 342 c 0
 308 385 330 415 344 431 c 0
 350 438 356 442 363 442 c 0
 367 442 369 440 369 436 c 0
229 436 m 0
 229 426 196 375 130 283 c 1
 195 201 227 156 227 149 c 0
 227 140 224 135 217 136 c 1
 209 140 l 1
 194 160 175 180 152 199 c 2
 88 250 l 2
 86 251 85 253 85 256 c 0
 85 263 102 292 137 342 c 0
 168 385 190 415 203 431 c 0
 209 438 215 442 222 442 c 0
 227 442 229 440 229 436 c 0
EndSplineSet
EndChar

StartChar: guillemotright
Encoding: 187 187 144
Width: 420
Flags: MW
HStem: 129 21G<89 94.5 245 250.5>
LayerCount: 2
Fore
SplineSet
385 315 m 0
 385 308 367 279 332 229 c 0
 302 186 280 156 266 140 c 0
 260 133 254 129 247 129 c 0
 243 129 241 131 241 135 c 0
 241 145 274 196 340 288 c 1
 275 371 242 415 242 422 c 0
 242 431 246 436 253 435 c 1
 261 431 l 1
 290 391 339 354 382 321 c 0
 384 320 385 318 385 315 c 0
229 315 m 0
 229 308 211 279 176 229 c 0
 146 186 124 156 110 140 c 0
 104 133 98 129 91 129 c 0
 87 129 85 131 85 135 c 0
 85 145 118 196 184 288 c 1
 119 371 86 415 86 422 c 0
 86 431 90 436 97 435 c 1
 105 431 l 1
 134 391 183 354 226 321 c 0
 228 320 229 318 229 315 c 0
EndSplineSet
EndChar

StartChar: ellipsis
Encoding: 8230 8230 145
Width: 556
Flags: MW
HStem: -1 64<143.5 161.5 139.5 163 308.5 326.5 469.5 487.5>
VStem: 114 80<24.5 39 21 43.5> 279 80<24.5 39 21 43.5> 440 80<24.5 39 21 43.5>
LayerCount: 2
Fore
SplineSet
520 29 m 0
 520 13 497 -1 481 -1 c 0
 458 -1 440 15 440 34 c 0
 440 53 453 63 478 63 c 0
 497 63 520 49 520 29 c 0
359 29 m 0
 359 13 336 -1 320 -1 c 0
 297 -1 279 15 279 34 c 0
 279 53 292 63 317 63 c 0
 336 63 359 49 359 29 c 0
194 29 m 0
 194 13 171 -1 155 -1 c 0
 132 -1 114 15 114 34 c 0
 114 53 127 63 152 63 c 0
 171 63 194 49 194 29 c 0
EndSplineSet
EndChar

StartChar: Otilde
Encoding: 213 213 147
Width: 784
Flags: MW
HStem: -59 21G<236.5 324.5> -58 20 437 21G 438 21G 471 20G 533 23 615 21<621.5 661 621.5 663.5>
VStem: 24 54<69.5 128 57.5 149.5> 801 31<489 501.5>
LayerCount: 2
Fore
SplineSet
815 432 m 2x4780
 804 411 l 1
 809 394 812 375 812 356 c 0
 812 273 769 193 684 117 c 0
 553 0 406 -59 243 -59 c 0x8780
 230 -59 216 -59 201 -58 c 0
 96 -53 24 14 24 125 c 0
 24 174 38 228 65 288 c 0
 100 365 165 437 261 506 c 0
 368 583 477 625 588 634 c 0
 601 635 615 636 628 636 c 0
 694 636 745 623 781 596 c 0
 815 571 832 539 832 500 c 0
 832 478 826 455 815 432 c 2x4780
791 441 m 1
 798 458 801 474 801 490 c 0
 801 513 794 534 779 555 c 0
 750 595 700 615 627 615 c 0
 526 615 430 583 337 518 c 0
 251 458 183 381 133 286 c 0
 96 217 78 155 78 101 c 0
 78 14 122 -33 211 -38 c 0
 352 -46 487 7 614 120 c 0
 699 196 745 268 752 337 c 1
 717 298 657 253 572 201 c 1
 568 200 565 199 564 199 c 0
 558 199 567 208 590 227 c 2
 646 273 l 1
 693 314 728 348 751 376 c 1
 746 413 728 445 697 472 c 0
 670 496 638 513 601 524 c 0
 582 529 551 532 509 533 c 0
 474 534 456 536 456 538 c 0
 456 539 457 540 458 541 c 0
 489 551 519 556 548 556 c 0
 574 556 606 552 644 543 c 0
 714 526 763 492 791 441 c 1
836 736 m 1x18
 840 736 842 735 842 732 c 0
 842 722 829 708 802 690 c 0
 794 685 785 682 775 682 c 0x28
 763 682 746 686 724 695 c 0
 703 704 687 709 676 709 c 0
 665 709 653 705 642 696 c 0
 631 687 624 683 621 683 c 1
 620 684 620 684 620 685 c 0
 620 696 634 709 663 726 c 0
 674 733 686 736 699 736 c 0
 710 736 726 732 747 725 c 0
 768 718 783 715 794 715 c 0
 810 715 824 722 836 736 c 1x18
EndSplineSet
EndChar

StartChar: endash
Encoding: 8211 8211 148
Width: 406
Flags: MW
HStem: 214 46 242 20G
LayerCount: 2
Fore
SplineSet
396 262 m 1x40
 401 251 376 240 319 230 c 1
 282 225 244 219 207 213 c 0
 194 210 161 210 107 214 c 0
 48 218 19 225 19 235 c 0
 19 250 35 259 44 259 c 1
 43 259 56 259 83 260 c 1
 163 260 l 1
 197 261 225 261 248 260 c 0x80
 316 259 365 259 396 262 c 1x40
EndSplineSet
EndChar

StartChar: emdash
Encoding: 8212 8212 149
Width: 605
Flags: MW
HStem: 206 54<105 176.5> 242 20G
LayerCount: 2
Fore
SplineSet
608 262 m 1x40
 613 251 566 241 466 230 c 1
 407 225 348 219 289 213 c 1
 271 208 219 206 134 206 c 0
 57 206 19 211 19 221 c 0
 19 237 37 259 44 259 c 1
 42 259 62 259 105 260 c 1
 223 260 l 1
 272 261 307 261 330 260 c 0x80
 470 257 563 258 608 262 c 1x40
EndSplineSet
EndChar

StartChar: quotedblleft
Encoding: 8220 8220 150
Width: 206
Flags: MW
HStem: 306 21G<50.5 65 147.5 166.5>
VStem: 14 71<334.5 342 326 353.5> 115 71<329.5 342 326 353.5>
LayerCount: 2
Fore
SplineSet
199 449 m 0
 202 448 203 447 203 446 c 0
 203 445 195 436 179 419 c 0
 164 402 157 386 159 372 c 1
 160 357 186 348 186 336 c 0
 186 316 176 306 157 306 c 0
 138 306 115 320 115 339 c 0
 115 368 127 395 151 420 c 0
 172 442 188 452 199 449 c 0
97 449 m 0
 100 448 101 447 101 446 c 0
 101 445 93 435 78 418 c 0
 63 401 57 386 58 372 c 0
 59 357 85 348 85 336 c 0
 85 316 75 306 55 306 c 0
 46 306 37 309 29 315 c 0
 19 322 14 330 14 339 c 0
 14 368 26 395 50 420 c 0
 71 442 86 452 97 449 c 0
EndSplineSet
EndChar

StartChar: quotedblright
Encoding: 8221 8221 151
Width: 206
Flags: MW
HStem: 416 20G<31.5 50.5 133 152.5>
VStem: 12 71<400 412.5 388.5 416> 113 71<400 412.5 388.5 416>
LayerCount: 2
Fore
SplineSet
184 403 m 0
 184 374 172 347 149 322 c 0
 128 300 112 290 101 293 c 0
 98 294 97 295 97 296 c 0
 97 297 104 306 119 323 c 0
 134 340 141 356 140 369 c 0
 139 384 113 394 113 406 c 0
 113 426 123 436 143 436 c 0
 162 436 184 422 184 403 c 0
83 403 m 0
 83 374 71 347 47 322 c 0
 26 300 10 290 -1 293 c 0
 -4 294 -5 295 -5 296 c 0
 -5 297 3 305 18 322 c 0
 34 339 41 355 39 369 c 1
 38 384 12 394 12 406 c 0
 12 426 22 436 41 436 c 0
 60 436 83 422 83 403 c 0
EndSplineSet
EndChar

StartChar: quoteleft
Encoding: 8216 8216 152
Width: 126
Flags: MW
HStem: 306 21G<50.5 65>
VStem: 14 71<334.5 342 326 353.5>
LayerCount: 2
Fore
SplineSet
97 449 m 0
 100 448 101 447 101 446 c 0
 101 445 93 435 78 418 c 0
 63 401 57 386 58 372 c 0
 59 357 85 348 85 336 c 0
 85 316 75 306 55 306 c 0
 46 306 37 309 29 315 c 0
 19 322 14 330 14 339 c 0
 14 368 26 395 50 420 c 0
 71 442 86 452 97 449 c 0
EndSplineSet
EndChar

StartChar: quoteright
Encoding: 8217 8217 153
Width: 139
Flags: MW
HStem: 416 20G<89.5 108.5>
VStem: 70 71<400 412.5 388.5 416>
LayerCount: 2
Fore
SplineSet
141 403 m 0
 141 374 129 347 105 322 c 0
 84 300 68 290 57 293 c 0
 54 294 53 295 53 296 c 0
 53 297 61 305 76 322 c 0
 92 339 99 355 97 369 c 1
 96 384 70 394 70 406 c 0
 70 426 80 436 99 436 c 0
 118 436 141 422 141 403 c 0
EndSplineSet
EndChar

StartChar: divide
Encoding: 247 247 154
Width: 406
Flags: MW
HStem: 105 64<172.5 189.5 167.5 192> 214 46 305 64<218.5 235.5 213.5 238>
VStem: 142 80<130 144.5 127 149.5> 188 80<330 344.5 327 349.5>
CounterMasks: 1 e0
LayerCount: 2
Fore
SplineSet
396 262 m 1xf0
 401 251 376 240 319 230 c 1
 282 225 244 219 207 213 c 0
 194 210 161 210 107 214 c 0
 48 218 19 225 19 235 c 0
 19 250 35 259 44 259 c 1
 43 259 56 259 83 260 c 1
 163 260 l 1
 197 261 225 261 248 260 c 0
 316 259 365 259 396 262 c 1xf0
222 135 m 0
 222 119 200 105 184 105 c 0
 161 105 142 120 142 140 c 0
 142 159 155 169 180 169 c 0
 199 169 222 154 222 135 c 0
268 335 m 0xe8
 268 319 246 305 230 305 c 0
 207 305 188 320 188 340 c 0
 188 359 201 369 226 369 c 0
 245 369 268 354 268 335 c 0xe8
EndSplineSet
EndChar

StartChar: ydieresis
Encoding: 255 255 155
Width: 370
Flags: MW
HStem: -205 29<19 46 19 55.5> 8 22<28.5 39.5> 277 20G<150.5 173.5> 343 21G<224.5 234 345.5 355> 409 20G<277.5 283.5 398.5 404.5>
VStem: -22 39<51 53.5 38.5 71.5>
LayerCount: 2
Fore
SplineSet
404 268 m 0
 404 265 390 243 362 202 c 0
 332 157 315 132 312 126 c 0
 292 87 260 28 217 -49 c 1
 152 -153 88 -205 23 -205 c 0
 2 -205 -17 -196 -33 -178 c 0
 -49 -160 -57 -139 -56 -116 c 1
 -48 -126 -37 -138 -24 -151 c 0
 -6 -168 11 -176 27 -176 c 0
 65 -176 106 -146 150 -85 c 0
 181 -42 213 15 244 84 c 1
 282 176 l 1
 135 61 l 2
 90 26 53 8 26 8 c 0
 11 8 -1 14 -10 25 c 0
 -18 34 -22 45 -22 57 c 0
 -22 86 3 133 52 198 c 0
 101 264 138 297 163 297 c 0
 184 297 194 289 194 274 c 0
 194 268 164 233 105 170 c 0
 46 107 17 64 17 43 c 0
 17 34 23 30 34 30 c 0
 55 30 102 58 173 113 c 0
 232 159 277 198 308 229 c 1
 319 242 329 255 339 268 c 0
 352 283 365 290 377 290 c 0
 395 290 404 283 404 268 c 0
283 429 m 0
 284 429 285 428 286 428 c 1
 285 428 280 421 272 410 c 1
 256 370 l 2
 248 352 239 343 229 343 c 0
 220 343 208 361 208 372 c 0
 208 382 218 394 237 408 c 0
 257 422 272 429 283 429 c 0
404 429 m 0
 405 429 406 428 407 428 c 1
 406 428 401 421 393 410 c 1
 377 370 l 2
 369 352 360 343 350 343 c 0
 341 343 329 361 329 372 c 0
 329 382 339 394 358 408 c 0
 378 422 393 429 404 429 c 0
287 427 m 1
 287 427 287 428 286 428 c 2
 287 428 l 1
 287 427 l 1
407 428 m 1
 408 428 l 1
 408 427 l 1
 407 428 l 1
EndSplineSet
EndChar

StartChar: Ydieresis
Encoding: 376 376 156
Width: 882
Flags: MW
HStem: -254 21G<323.5 355.5> 4 45<319 367.5> 154 32<140 142.5> 625 21G<712.5 722 833.5 843> 642 20G<507 547> 691 20G<765.5 771.5 886.5 892.5>
VStem: 14 40<258.5 287.5 248 319>
LayerCount: 2
Fore
SplineSet
948 540 m 0xee
 877 416 763 221 605 -44 c 1
 562 -114 514 -168 463 -205 c 0
 418 -238 375 -254 336 -254 c 0
 311 -254 287 -246 264 -229 c 0
 238 -210 225 -190 225 -167 c 0
 225 -153 232 -146 246 -146 c 0
 251 -146 256 -147 261 -148 c 1
 269 -177 276 -196 281 -205 c 0
 291 -221 308 -230 331 -232 c 0
 414 -240 518 -128 641 104 c 1
 821 425 l 1
 717 314 l 1
 631 224 575 166 549 140 c 0
 494 85 457 52 437 40 c 0
 397 16 364 4 338 4 c 0
 300 4 281 26 281 71 c 0
 281 125 304 180 349 236 c 0
 382 276 416 316 449 357 c 0
 504 426 543 481 568 524 c 0
 601 583 606 618 583 630 c 0
 564 640 542 645 517 645 c 0
 446 645 348 602 224 517 c 0
 172 482 130 440 99 392 c 0
 69 347 54 306 54 269 c 0
 54 227 73 201 111 191 c 0
 122 188 134 186 146 186 c 0
 180 186 218 201 259 230 c 1
 308 263 335 280 341 282 c 1
 334 257 307 230 262 201 c 0
 212 170 165 154 120 154 c 0
 111 154 102 155 93 156 c 0
 73 159 55 171 40 192 c 0
 23 215 14 243 14 274 c 0
 14 364 80 457 213 552 c 0
 252 580 302 605 362 627 c 0
 427 650 483 662 531 662 c 0
 563 662 588 656 607 645 c 0
 628 632 639 614 639 590 c 0
 639 559 619 513 580 453 c 0
 546 401 488 325 406 226 c 0
 389 206 374 181 360 150 c 0
 346 119 339 95 339 76 c 0
 339 58 346 49 360 49 c 0
 375 49 396 59 425 80 c 0
 505 137 589 210 676 299 c 0
 753 377 810 444 847 499 c 0
 874 538 903 558 934 558 c 0
 945 558 950 555 950 548 c 0
 950 545 949 543 948 540 c 0xee
771 711 m 0
 772 711 773 710 774 710 c 1
 773 710 768 703 760 692 c 1
 744 652 l 2
 736 634 727 625 717 625 c 0xf6
 708 625 696 643 696 654 c 0
 696 664 706 676 725 690 c 0
 745 704 760 711 771 711 c 0
892 711 m 0
 893 711 894 710 895 710 c 1
 894 710 889 703 881 692 c 1
 865 652 l 2
 857 634 848 625 838 625 c 0
 829 625 817 643 817 654 c 0
 817 664 827 676 846 690 c 0
 866 704 881 711 892 711 c 0
775 709 m 1
 775 709 775 710 774 710 c 2
 775 710 l 1
 775 709 l 1
896 709 m 1
 896 709 896 710 895 710 c 2
 896 710 l 1
 896 709 l 1
EndSplineSet
EndChar

StartChar: daggerdbl
Encoding: 8225 8225 157
Width: 446
Flags: MW
HStem: 544 20G<390.5 404>
VStem: 2 27<-211.5 -156>
LayerCount: 2
Fore
SplineSet
414 558 m 0
 414 557 413 555 411 553 c 0
 399 538 381 517 358 488 c 0
 323 443 288 393 251 338 c 1
 295 345 326 349 344 349 c 0
 354 349 360 347 362 343 c 1
 356 335 313 324 232 309 c 1
 216 285 201 261 187 237 c 1
 244 247 283 252 305 252 c 0
 315 252 321 250 323 246 c 1
 317 238 293 230 252 222 c 2
 171 208 l 1
 76 42 29 -96 29 -205 c 0
 29 -218 35 -254 35 -267 c 1
 34 -268 l 1
 13 -269 2 -247 2 -204 c 0
 2 -108 47 27 137 202 c 1
 130 201 116 196 94 189 c 1
 76 182 62 179 53 179 c 0
 39 179 32 185 32 196 c 0
 32 205 50 213 85 220 c 1
 107 223 129 227 151 231 c 1
 191 302 l 1
 185 301 168 296 139 287 c 1
 113 280 97 276 92 276 c 0
 78 276 71 282 71 293 c 0
 71 302 91 310 131 319 c 1
 207 331 l 1
 240 388 263 425 275 442 c 0
 303 486 329 520 354 545 c 0
 367 558 382 564 399 564 c 0
 409 564 414 562 414 558 c 0
EndSplineSet
EndChar

StartChar: quotesinglbase
Encoding: 8218 8218 158
Width: 86
Flags: MW
HStem: -46 21G<61 63.5> 54 20G<81 84.5>
LayerCount: 2
Fore
SplineSet
87 73 m 1
 87 71 l 2
 87 62 84 43 79 12 c 0
 74 -19 71 -37 68 -42 c 0
 67 -45 65 -46 62 -46 c 0
 60 -46 59 -43 59 -38 c 0
 59 7 57 44 54 71 c 1
 68 73 78 74 84 74 c 0
 85 74 86 74 87 73 c 1
EndSplineSet
EndChar

StartChar: quotedblbase
Encoding: 8222 8222 159
Width: 156
Flags: MW
HStem: -46 21G<61 63.5 130 132.5> 54 20G<81 84.5 150 153.5>
LayerCount: 2
Fore
SplineSet
156 73 m 1
 156 71 l 2
 156 62 153 43 148 12 c 0
 143 -19 140 -37 137 -42 c 0
 136 -45 134 -46 131 -46 c 0
 129 -46 128 -43 128 -38 c 0
 128 7 126 44 123 71 c 1
 137 73 147 74 153 74 c 0
 154 74 155 74 156 73 c 1
87 73 m 1
 87 71 l 2
 87 62 84 43 79 12 c 0
 74 -19 71 -37 68 -42 c 0
 67 -45 65 -46 62 -46 c 0
 60 -46 59 -43 59 -38 c 0
 59 7 57 44 54 71 c 1
 68 73 78 74 84 74 c 0
 85 74 86 74 87 73 c 1
EndSplineSet
EndChar

StartChar: perthousand
Encoding: 8240 8240 160
Width: 865
Flags: MW
HStem: -115 21G<127.5 137.5> -82 30<339.5 380 358.5 364 611.5 617> 184 80<489.5 541> 374 30<139.5 180 158.5 164> 700 20G<306 341>
VStem: 95 48 116 27<-77.5 -74> 295 47 548 47
LayerCount: 2
Fore
SplineSet
669 699 m 0xfd80
 677 692 676 682 665 669 c 0
 574 564 476 441 369 298 c 0
 243 129 170 17 149 -39 c 0
 145 -51 143 -62 143 -71 c 0
 143 -84 147 -92 154 -96 c 0
 157 -97 157 -100 154 -105 c 0
 149 -112 142 -115 133 -115 c 0
 122 -115 116 -105 116 -86 c 0xfb80
 116 -62 123 -30 138 11 c 0
 155 58 223 163 341 326 c 0
 450 476 539 589 606 665 c 1
 573 649 533 634 486 620 c 0
 435 605 394 598 365 597 c 1
 372 575 350 533 299 471 c 0
 246 406 201 374 164 374 c 2
 148 374 l 2
 131 374 117 383 107 401 c 0
 99 414 95 428 95 443 c 0
 95 483 124 539 182 611 c 0
 241 684 288 720 324 720 c 0
 358 720 375 702 375 666 c 0
 375 655 373 643 370 630 c 1
 372 627 386 628 411 631 c 0
 479 639 557 664 645 705 c 0
 647 706 649 707 650 707 c 0
 657 707 664 704 669 699 c 0xfd80
588 163 m 0
 588 154 580 147 565 141 c 1
 572 119 550 77 499 15 c 0
 446 -50 401 -82 364 -82 c 2
 348 -82 l 2
 331 -82 317 -73 307 -55 c 0
 299 -42 295 -28 295 -13 c 0
 295 27 324 83 382 155 c 0
 441 228 488 264 524 264 c 0
 558 264 575 246 575 210 c 0
 575 199 573 187 570 174 c 1
 571 171 588 172 588 163 c 0
341 594 m 1
 330 600 317 615 301 640 c 1
 278 640 246 613 203 558 c 0
 161 504 141 463 142 435 c 0
 143 414 151 404 166 404 c 0
 194 404 231 430 276 483 c 0
 319 534 341 571 341 594 c 1
541 138 m 1
 530 144 517 159 501 184 c 1
 478 184 446 157 403 102 c 0
 361 48 341 7 342 -21 c 0
 343 -42 351 -52 366 -52 c 0
 394 -52 431 -26 476 27 c 0
 519 78 541 115 541 138 c 1
841 163 m 0
 841 154 833 147 818 141 c 1
 825 119 803 77 752 15 c 0
 699 -50 654 -82 617 -82 c 2
 601 -82 l 2
 584 -82 570 -73 560 -55 c 0
 552 -42 548 -28 548 -13 c 0
 548 27 577 83 635 155 c 0
 694 228 741 264 777 264 c 0
 811 264 828 246 828 210 c 0
 828 199 826 187 823 174 c 1
 824 171 841 172 841 163 c 0
794 138 m 1
 783 144 770 159 754 184 c 1
 731 184 699 157 656 102 c 0
 614 48 594 7 595 -21 c 0
 596 -42 604 -52 619 -52 c 0
 647 -52 684 -26 729 27 c 0
 772 78 794 115 794 138 c 1
EndSplineSet
EndChar

StartChar: Acircumflex
Encoding: 194 194 161
Width: 1020
Flags: MW
HStem: -54 20G<833 873> 261 28 512 21G<440.5 493.5> 672 21G 698 21G 758 20G 779 20G 805 20G
VStem: -1 59<-6.5 36.5 -22.5 70.5> 539 34<443.5 448> 795 45<-3.5 34 -3.5 40>
LayerCount: 2
Fore
SplineSet
1130 601 m 0
 1123 575 1116 560 1109 555 c 0
 1093 544 1077 527 1060 504 c 0
 1051 491 1036 463 1016 422 c 0
 988 365 965 320 946 286 c 1
 951 286 983 287 1043 288 c 0
 1067 288 1079 286 1079 283 c 0
 1079 282 1078 281 1077 280 c 0
 1066 273 1018 266 933 260 c 1
 871 139 840 56 840 12 c 0
 840 -19 850 -34 869 -34 c 0
 877 -34 886 -29 897 -20 c 0
 908 -11 915 -7 917 -7 c 0
 919 -7 920 -9 920 -12 c 0
 913 -36 872 -54 836 -54 c 0
 830 -54 824 -53 819 -52 c 0
 803 -46 795 -27 795 6 c 0
 795 74 821 160 872 263 c 1
 859 263 837 262 806 261 c 0
 775 260 757 260 752 260 c 1
 663 173 573 96 483 30 c 0
 340 -74 230 -123 153 -116 c 0
 50 -107 -1 -55 -1 42 c 0
 -1 99 17 160 53 224 c 0
 101 310 167 383 251 444 c 0
 333 503 407 533 474 533 c 0
 540 533 573 509 573 460 c 0
 573 427 563 391 543 351 c 0
 523 311 503 286 482 275 c 0
 479 274 477 274 475 274 c 0
 473 274 472 275 472 276 c 2
 505 330 l 2
 528 366 539 399 539 428 c 0
 539 468 521 512 466 512 c 0
 413 512 353 484 284 429 c 0
 208 368 150 291 109 199 c 0
 75 122 58 60 58 13 c 0
 58 -58 94 -94 167 -94 c 0
 237 -94 331 -49 449 40 c 0
 504 81 590 156 706 263 c 1
 690 262 666 260 634 255 c 0
 620 252 608 250 598 250 c 0
 585 251 579 254 581 260 c 1
 584 285 597 297 619 297 c 1
 660 292 697 289 730 289 c 1
 782 337 868 423 987 548 c 0
 1064 629 1111 669 1127 669 c 0
 1134 669 1138 662 1138 649 c 0
 1138 638 1135 622 1130 601 c 0
1026 530 m 1
 770 290 l 1
 829 290 l 1
 850 289 867 289 881 289 c 1
 897 320 945 401 1026 530 c 1
1024 713 m 0
 1006 708 992 715 1012 732 c 1
 1069 767 1086 780 1119 805 c 0
 1134 816 1146 831 1164 816 c 0
 1175 807 1188 795 1206 775 c 0
 1236 741 1249 728 1249 717 c 0
 1249 710 1245 707 1240 707 c 0
 1233 707 1215 723 1181 754 c 0
 1170 764 1154 776 1141 784 c 1
 1126 774 1099 758 1056 730 c 0
 1039 719 1030 714 1024 713 c 0
EndSplineSet
EndChar

StartChar: Ecircumflex
Encoding: 202 202 162
Width: 691
Flags: MW
HStem: -79 29 315 22<495.5 518 489.5 530> 382 25 497 21G<688 698.5> 643 20G 674 21G 700 21G 781 20G 787 20G 807 20G
VStem: 3 64<57.5 87.5 57.5 91> 310 47 327 30<75.5 102 75.5 110> 634 37<176.5 202.5 164.5 222.5> 743 33<584 584>
LayerCount: 2
Fore
SplineSet
776 583 m 0xff76
 775 560 766 540 747 523 c 0
 729 506 709 497 688 497 c 0
 667 497 657 502 657 512 c 0
 657 518 661 521 670 521 c 0
 675 521 686 518 690 518 c 0
 718 518 743 555 743 584 c 0
 743 607 730 623 704 634 c 0
 683 642 657 645 626 643 c 0
 569 640 513 620 458 583 c 0
 394 541 362 494 362 441 c 0
 362 421 369 403 382 387 c 1
 431 402 475 408 514 407 c 0
 573 406 602 393 602 370 c 0
 602 365 600 359 596 352 c 0
 580 327 551 315 509 315 c 0
 482 315 453 320 423 330 c 0
 396 339 375 349 360 360 c 1
 235 324 133 243 86 150 c 0
 73 124 67 99 67 76 c 0
 67 39 82 9 111 -13 c 0
 144 -38 190 -50 250 -50 c 0
 267 -50 284 -49 302 -47 c 0
 407 -36 492 -2 555 55 c 0
 608 102 634 151 634 202 c 0
 634 243 614 263 575 263 c 0
 528 263 474 238 412 187 c 0
 381 162 357 118 357 86 c 0
 357 65 366 52 385 47 c 1
 392 44 395 40 395 37 c 0
 395 31 388 28 375 29 c 0
 343 30 327 50 327 88 c 0xff6e
 327 132 348 172 390 208 c 0
 447 257 508 282 572 282 c 0
 620 282 650 267 663 237 c 0
 668 224 671 210 671 195 c 0
 671 134 637 75 568 20 c 0
 493 -41 401 -74 293 -79 c 0
 197 -84 123 -70 71 -37 c 0
 26 -8 3 30 3 77 c 0
 3 105 12 132 29 159 c 0
 91 257 196 329 343 376 c 1
 321 401 310 429 310 462 c 0
 310 487 317 510 331 529 c 0
 358 566 399 597 455 622 c 0
 508 645 564 659 621 663 c 0
 726 670 779 639 776 583 c 0xff76
554 368 m 0
 554 377 536 382 500 382 c 0
 468 382 434 378 399 371 c 1
 412 361 426 353 440 348 c 0
 459 341 479 337 500 337 c 0
 536 337 554 347 554 368 c 0
599 715 m 0
 581 710 567 717 587 734 c 1
 644 769 661 782 694 807 c 0xfeb6
 709 818 721 833 739 818 c 0
 750 809 763 797 781 777 c 0
 811 743 824 730 824 719 c 0
 824 712 820 709 815 709 c 0
 808 709 790 725 756 756 c 0
 745 766 729 778 716 786 c 1
 701 776 674 760 631 732 c 0
 614 721 605 716 599 715 c 0
EndSplineSet
EndChar

StartChar: Aacute
Encoding: 193 193 163
Width: 1020
Flags: MW
HStem: -54 20G<833 873> 261 28 512 21G<440.5 493.5> 649 20G<1119 1130.5> 724 21G 807 20G
VStem: -1 59<-6.5 36.5 -22.5 70.5> 539 34<443.5 448> 795 45<-3.5 34 -3.5 40>
LayerCount: 2
Fore
SplineSet
1130 601 m 0
 1123 575 1116 560 1109 555 c 0
 1093 544 1077 527 1060 504 c 0
 1051 491 1036 463 1016 422 c 0
 988 365 965 320 946 286 c 1
 951 286 983 287 1043 288 c 0
 1067 288 1079 286 1079 283 c 0
 1079 282 1078 281 1077 280 c 0
 1066 273 1018 266 933 260 c 1
 871 139 840 56 840 12 c 0
 840 -19 850 -34 869 -34 c 0
 877 -34 886 -29 897 -20 c 0
 908 -11 915 -7 917 -7 c 0
 919 -7 920 -9 920 -12 c 0
 913 -36 872 -54 836 -54 c 0
 830 -54 824 -53 819 -52 c 0
 803 -46 795 -27 795 6 c 0
 795 74 821 160 872 263 c 1
 859 263 837 262 806 261 c 0
 775 260 757 260 752 260 c 1
 663 173 573 96 483 30 c 0
 340 -74 230 -123 153 -116 c 0
 50 -107 -1 -55 -1 42 c 0
 -1 99 17 160 53 224 c 0
 101 310 167 383 251 444 c 0
 333 503 407 533 474 533 c 0
 540 533 573 509 573 460 c 0
 573 427 563 391 543 351 c 0
 523 311 503 286 482 275 c 0
 479 274 477 274 475 274 c 0
 473 274 472 275 472 276 c 2
 505 330 l 2
 528 366 539 399 539 428 c 0
 539 468 521 512 466 512 c 0
 413 512 353 484 284 429 c 0
 208 368 150 291 109 199 c 0
 75 122 58 60 58 13 c 0
 58 -58 94 -94 167 -94 c 0
 237 -94 331 -49 449 40 c 0
 504 81 590 156 706 263 c 1
 690 262 666 260 634 255 c 0
 620 252 608 250 598 250 c 0
 585 251 579 254 581 260 c 1
 584 285 597 297 619 297 c 1
 660 292 697 289 730 289 c 1
 782 337 868 423 987 548 c 0
 1064 629 1111 669 1127 669 c 0
 1134 669 1138 662 1138 649 c 0
 1138 638 1135 622 1130 601 c 0
1026 530 m 1
 770 290 l 1
 829 290 l 1
 850 289 867 289 881 289 c 1
 897 320 945 401 1026 530 c 1
1142 722 m 0
 1137 722 1135 724 1135 728 c 0
 1135 731 1136 733 1139 735 c 2
 1244 816 l 2
 1251 822 1257 825 1261 825 c 0
 1267 825 1270 821 1270 812 c 0
 1270 804 1267 798 1262 793 c 0
 1255 787 1234 774 1199 753 c 0
 1165 732 1146 722 1142 722 c 0
EndSplineSet
EndChar

StartChar: Edieresis
Encoding: 203 203 164
Width: 691
Flags: MW
HStem: -79 29 315 22<495.5 518 489.5 530> 382 25 497 21G<688 698.5> 643 20G 708 21G<636.5 646 757.5 767> 774 20G<689.5 695.5 810.5 816.5>
VStem: 3 64<57.5 87.5 57.5 91> 310 47 327 30<75.5 102 75.5 110> 634 37<176.5 202.5 164.5 222.5> 743 33<584 584>
LayerCount: 2
Fore
SplineSet
776 583 m 0xffb0
 775 560 766 540 747 523 c 0
 729 506 709 497 688 497 c 0
 667 497 657 502 657 512 c 0
 657 518 661 521 670 521 c 0
 675 521 686 518 690 518 c 0
 718 518 743 555 743 584 c 0
 743 607 730 623 704 634 c 0
 683 642 657 645 626 643 c 0
 569 640 513 620 458 583 c 0
 394 541 362 494 362 441 c 0
 362 421 369 403 382 387 c 1
 431 402 475 408 514 407 c 0
 573 406 602 393 602 370 c 0
 602 365 600 359 596 352 c 0
 580 327 551 315 509 315 c 0
 482 315 453 320 423 330 c 0
 396 339 375 349 360 360 c 1
 235 324 133 243 86 150 c 0
 73 124 67 99 67 76 c 0
 67 39 82 9 111 -13 c 0
 144 -38 190 -50 250 -50 c 0
 267 -50 284 -49 302 -47 c 0
 407 -36 492 -2 555 55 c 0
 608 102 634 151 634 202 c 0
 634 243 614 263 575 263 c 0
 528 263 474 238 412 187 c 0
 381 162 357 118 357 86 c 0
 357 65 366 52 385 47 c 1
 392 44 395 40 395 37 c 0
 395 31 388 28 375 29 c 0
 343 30 327 50 327 88 c 0xff70
 327 132 348 172 390 208 c 0
 447 257 508 282 572 282 c 0
 620 282 650 267 663 237 c 0
 668 224 671 210 671 195 c 0
 671 134 637 75 568 20 c 0
 493 -41 401 -74 293 -79 c 0
 197 -84 123 -70 71 -37 c 0
 26 -8 3 30 3 77 c 0
 3 105 12 132 29 159 c 0
 91 257 196 329 343 376 c 1
 321 401 310 429 310 462 c 0
 310 487 317 510 331 529 c 0
 358 566 399 597 455 622 c 0
 508 645 564 659 621 663 c 0
 726 670 779 639 776 583 c 0xffb0
554 368 m 0
 554 377 536 382 500 382 c 0
 468 382 434 378 399 371 c 1
 412 361 426 353 440 348 c 0
 459 341 479 337 500 337 c 0
 536 337 554 347 554 368 c 0
816 794 m 0
 817 794 818 793 819 793 c 1
 818 793 813 786 805 775 c 1
 789 735 l 2
 781 717 772 708 762 708 c 0
 753 708 741 726 741 737 c 0
 741 747 751 759 770 773 c 0
 790 787 805 794 816 794 c 0
695 794 m 0
 696 794 697 793 698 793 c 1
 697 793 692 786 684 775 c 1
 668 735 l 2
 660 717 651 708 641 708 c 0
 632 708 620 726 620 737 c 0
 620 747 630 759 649 773 c 0
 669 787 684 794 695 794 c 0
819 793 m 1
 820 793 l 1
 820 792 l 1
 819 793 l 1
699 792 m 1
 699 792 699 793 698 793 c 2
 699 793 l 1
 699 792 l 1
EndSplineSet
EndChar

StartChar: Egrave
Encoding: 200 200 165
Width: 691
Flags: MW
HStem: -79 29 315 22<495.5 518 489.5 530> 382 25 497 21G<688 698.5> 643 20G 794 20G<584 589>
VStem: 3 64<57.5 87.5 57.5 91> 310 47 327 30<75.5 102 75.5 110> 634 37<176.5 202.5 164.5 222.5> 743 33<584 584>
LayerCount: 2
Fore
SplineSet
776 583 m 0xff60
 775 560 766 540 747 523 c 0
 729 506 709 497 688 497 c 0
 667 497 657 502 657 512 c 0
 657 518 661 521 670 521 c 0
 675 521 686 518 690 518 c 0
 718 518 743 555 743 584 c 0
 743 607 730 623 704 634 c 0
 683 642 657 645 626 643 c 0
 569 640 513 620 458 583 c 0
 394 541 362 494 362 441 c 0
 362 421 369 403 382 387 c 1
 431 402 475 408 514 407 c 0
 573 406 602 393 602 370 c 0
 602 365 600 359 596 352 c 0
 580 327 551 315 509 315 c 0
 482 315 453 320 423 330 c 0
 396 339 375 349 360 360 c 1
 235 324 133 243 86 150 c 0
 73 124 67 99 67 76 c 0
 67 39 82 9 111 -13 c 0
 144 -38 190 -50 250 -50 c 0
 267 -50 284 -49 302 -47 c 0
 407 -36 492 -2 555 55 c 0
 608 102 634 151 634 202 c 0
 634 243 614 263 575 263 c 0
 528 263 474 238 412 187 c 0
 381 162 357 118 357 86 c 0
 357 65 366 52 385 47 c 1
 392 44 395 40 395 37 c 0
 395 31 388 28 375 29 c 0
 343 30 327 50 327 88 c 0xfee0
 327 132 348 172 390 208 c 0
 447 257 508 282 572 282 c 0
 620 282 650 267 663 237 c 0
 668 224 671 210 671 195 c 0
 671 134 637 75 568 20 c 0
 493 -41 401 -74 293 -79 c 0
 197 -84 123 -70 71 -37 c 0
 26 -8 3 30 3 77 c 0
 3 105 12 132 29 159 c 0
 91 257 196 329 343 376 c 1
 321 401 310 429 310 462 c 0
 310 487 317 510 331 529 c 0
 358 566 399 597 455 622 c 0
 508 645 564 659 621 663 c 0
 726 670 779 639 776 583 c 0xff60
554 368 m 0
 554 377 536 382 500 382 c 0
 468 382 434 378 399 371 c 1
 412 361 426 353 440 348 c 0
 459 341 479 337 500 337 c 0
 536 337 554 347 554 368 c 0
713 717 m 0
 713 714 711 712 707 712 c 0
 703 712 684 722 649 743 c 0
 614 764 593 777 586 783 c 0
 581 787 578 793 578 801 c 0
 578 810 581 814 587 814 c 0
 591 814 597 811 604 806 c 0
 631 787 666 760 709 724 c 0
 712 722 713 720 713 717 c 0
EndSplineSet
EndChar

StartChar: Iacute
Encoding: 205 205 166
Width: 576
Flags: MW
HStem: -69 29 98 36<166.5 198.5 166.5 199.5> 580 33<799.5 823.5 799.5 836> 675 28 724 21G 807 20G
VStem: 21 42 339 25<325 362.5 313 366> 405 53<416.5 479 405.5 492.5> 714 32<385.5 394.5 375.5 401.5>
LayerCount: 2
Fore
SplineSet
876 601 m 0
 876 585 867 567 859 567 c 1
 860 567 844 580 828 580 c 0
 771 580 694 496 595 327 c 1
 624 324 651 329 676 343 c 0
 701 358 714 375 714 396 c 0
 714 407 707 420 707 423 c 0
 707 428 710 431 715 431 c 0
 718 431 720 430 723 428 c 0
 738 417 746 403 746 386 c 0
 746 365 734 346 711 329 c 0
 686 311 655 302 619 302 c 0
 608 302 596 303 585 305 c 1
 539 220 483 142 417 71 c 0
 329 -22 249 -69 177 -69 c 0
 71 -69 19 -5 21 122 c 0
 22 220 49 299 102 360 c 0
 147 413 199 440 258 440 c 0
 275 440 290 437 305 432 c 0
 344 417 364 386 364 339 c 0
 364 287 344 234 304 181 c 0
 263 126 221 98 178 98 c 0
 154 98 136 105 125 118 c 0
 104 141 102 183 114 217 c 0
 121 236 129 246 137 246 c 0
 143 246 146 243 146 237 c 0
 146 234 143 225 137 211 c 0
 131 198 128 186 128 176 c 0
 128 157 154 134 179 134 c 0
 218 134 255 159 290 209 c 0
 323 256 339 302 339 348 c 0
 339 384 326 407 301 418 c 0
 293 421 284 423 274 423 c 0
 226 423 179 390 132 325 c 1
 83 255 60 178 63 94 c 0
 64 58 73 28 90 3 c 0
 109 -24 134 -39 165 -40 c 0
 256 -45 372 75 515 319 c 1
 442 341 405 384 405 449 c 0
 405 536 454 607 536 655 c 0
 593 688 649 704 703 703 c 0
 742 702 776 696 807 683 c 0
 853 665 876 638 876 601 c 0
845 606 m 1
 844 625 831 641 806 655 c 1
 785 668 763 674 742 675 c 0
 698 677 651 667 602 645 c 0
 518 607 458 528 458 430 c 0
 458 381 483 353 532 344 c 1
 569 405 614 462 666 515 c 0
 729 580 780 613 819 613 c 0
 828 613 837 611 845 606 c 1
770 722 m 0x0c
 765 722 763 724 763 728 c 0
 763 731 764 733 767 735 c 2
 872 816 l 2
 879 822 885 825 889 825 c 0
 895 825 898 821 898 812 c 0
 898 804 895 798 890 793 c 0
 883 787 862 774 827 753 c 0
 793 732 774 722 770 722 c 0x0c
EndSplineSet
EndChar

StartChar: Idieresis
Encoding: 207 207 167
Width: 576
Flags: MW
HStem: -69 29 98 36<166.5 198.5 166.5 199.5> 580 33<799.5 823.5 799.5 836> 675 28 739 21G<695.5 705 816.5 826> 805 20G<748.5 754.5 869.5 875.5>
VStem: 21 42 339 25<325 362.5 313 366> 405 53<416.5 479 405.5 492.5> 714 32<385.5 394.5 375.5 401.5>
LayerCount: 2
Fore
SplineSet
876 601 m 0
 876 585 867 567 859 567 c 1
 860 567 844 580 828 580 c 0
 771 580 694 496 595 327 c 1
 624 324 651 329 676 343 c 0
 701 358 714 375 714 396 c 0
 714 407 707 420 707 423 c 0
 707 428 710 431 715 431 c 0
 718 431 720 430 723 428 c 0
 738 417 746 403 746 386 c 0
 746 365 734 346 711 329 c 0
 686 311 655 302 619 302 c 0
 608 302 596 303 585 305 c 1
 539 220 483 142 417 71 c 0
 329 -22 249 -69 177 -69 c 0
 71 -69 19 -5 21 122 c 0
 22 220 49 299 102 360 c 0
 147 413 199 440 258 440 c 0
 275 440 290 437 305 432 c 0
 344 417 364 386 364 339 c 0
 364 287 344 234 304 181 c 0
 263 126 221 98 178 98 c 0
 154 98 136 105 125 118 c 0
 104 141 102 183 114 217 c 0
 121 236 129 246 137 246 c 0
 143 246 146 243 146 237 c 0
 146 234 143 225 137 211 c 0
 131 198 128 186 128 176 c 0
 128 157 154 134 179 134 c 0
 218 134 255 159 290 209 c 0
 323 256 339 302 339 348 c 0
 339 384 326 407 301 418 c 0
 293 421 284 423 274 423 c 0
 226 423 179 390 132 325 c 1
 83 255 60 178 63 94 c 0
 64 58 73 28 90 3 c 0
 109 -24 134 -39 165 -40 c 0
 256 -45 372 75 515 319 c 1
 442 341 405 384 405 449 c 0
 405 536 454 607 536 655 c 0
 593 688 649 704 703 703 c 0
 742 702 776 696 807 683 c 0
 853 665 876 638 876 601 c 0
845 606 m 1
 844 625 831 641 806 655 c 1
 785 668 763 674 742 675 c 0
 698 677 651 667 602 645 c 0
 518 607 458 528 458 430 c 0
 458 381 483 353 532 344 c 1
 569 405 614 462 666 515 c 0
 729 580 780 613 819 613 c 0
 828 613 837 611 845 606 c 1
875 825 m 0
 876 825 877 824 878 824 c 1
 877 824 872 817 864 806 c 1
 848 766 l 2
 840 748 831 739 821 739 c 0
 812 739 800 757 800 768 c 0
 800 778 810 790 829 804 c 0
 849 818 864 825 875 825 c 0
754 825 m 0
 755 825 756 824 757 824 c 1
 756 824 751 817 743 806 c 1
 727 766 l 2
 719 748 710 739 700 739 c 0
 691 739 679 757 679 768 c 0
 679 778 689 790 708 804 c 0
 728 818 743 825 754 825 c 0
878 824 m 1
 879 824 l 1
 879 823 l 1
 878 824 l 1
757 824 m 1
 758 824 l 1
 758 823 l 1
 757 824 l 1
EndSplineSet
EndChar

StartChar: Igrave
Encoding: 204 204 168
Width: 576
Flags: MW
HStem: -69 29 98 36<166.5 198.5 166.5 199.5> 580 33<799.5 823.5 799.5 836> 675 28 723 21G<860.5 864.5> 805 20G<739.5 745>
VStem: 21 42 339 25<325 362.5 313 366> 405 53<416.5 479 405.5 492.5> 714 32<385.5 394.5 375.5 401.5>
LayerCount: 2
Fore
SplineSet
876 601 m 0
 876 585 867 567 859 567 c 1
 860 567 844 580 828 580 c 0
 771 580 694 496 595 327 c 1
 624 324 651 329 676 343 c 0
 701 358 714 375 714 396 c 0
 714 407 707 420 707 423 c 0
 707 428 710 431 715 431 c 0
 718 431 720 430 723 428 c 0
 738 417 746 403 746 386 c 0
 746 365 734 346 711 329 c 0
 686 311 655 302 619 302 c 0
 608 302 596 303 585 305 c 1
 539 220 483 142 417 71 c 0
 329 -22 249 -69 177 -69 c 0
 71 -69 19 -5 21 122 c 0
 22 220 49 299 102 360 c 0
 147 413 199 440 258 440 c 0
 275 440 290 437 305 432 c 0
 344 417 364 386 364 339 c 0
 364 287 344 234 304 181 c 0
 263 126 221 98 178 98 c 0
 154 98 136 105 125 118 c 0
 104 141 102 183 114 217 c 0
 121 236 129 246 137 246 c 0
 143 246 146 243 146 237 c 0
 146 234 143 225 137 211 c 0
 131 198 128 186 128 176 c 0
 128 157 154 134 179 134 c 0
 218 134 255 159 290 209 c 0
 323 256 339 302 339 348 c 0
 339 384 326 407 301 418 c 0
 293 421 284 423 274 423 c 0
 226 423 179 390 132 325 c 1
 83 255 60 178 63 94 c 0
 64 58 73 28 90 3 c 0
 109 -24 134 -39 165 -40 c 0
 256 -45 372 75 515 319 c 1
 442 341 405 384 405 449 c 0
 405 536 454 607 536 655 c 0
 593 688 649 704 703 703 c 0
 742 702 776 696 807 683 c 0
 853 665 876 638 876 601 c 0
845 606 m 1
 844 625 831 641 806 655 c 1
 785 668 763 674 742 675 c 0
 698 677 651 667 602 645 c 0
 518 607 458 528 458 430 c 0
 458 381 483 353 532 344 c 1
 569 405 614 462 666 515 c 0
 729 580 780 613 819 613 c 0
 828 613 837 611 845 606 c 1
869 728 m 0x0c
 869 725 867 723 862 723 c 0
 859 723 840 733 805 754 c 0
 770 775 749 788 742 794 c 0
 736 798 733 804 733 812 c 0
 733 821 736 825 743 825 c 0
 747 825 753 822 760 817 c 0
 786 798 821 771 865 735 c 0
 868 733 869 731 869 728 c 0x0c
EndSplineSet
EndChar

StartChar: Oacute
Encoding: 211 211 169
Width: 784
Flags: MW
HStem: -59 21G<236.5 324.5> -58 20 533 23 615 21<621.5 661 621.5 663.5> 704 21G 787 20G
VStem: 24 54<69.5 128 57.5 149.5> 801 31<489 501.5>
LayerCount: 2
Fore
SplineSet
815 432 m 2x73
 804 411 l 1
 809 394 812 375 812 356 c 0
 812 273 769 193 684 117 c 0
 553 0 406 -59 243 -59 c 0xb3
 230 -59 216 -59 201 -58 c 0
 96 -53 24 14 24 125 c 0
 24 174 38 228 65 288 c 0
 100 365 165 437 261 506 c 0
 368 583 477 625 588 634 c 0
 601 635 615 636 628 636 c 0
 694 636 745 623 781 596 c 0
 815 571 832 539 832 500 c 0
 832 478 826 455 815 432 c 2x73
791 441 m 1
 798 458 801 474 801 490 c 0
 801 513 794 534 779 555 c 0
 750 595 700 615 627 615 c 0
 526 615 430 583 337 518 c 0
 251 458 183 381 133 286 c 0
 96 217 78 155 78 101 c 0
 78 14 122 -33 211 -38 c 0
 352 -46 487 7 614 120 c 0
 699 196 745 268 752 337 c 1
 717 298 657 253 572 201 c 1
 568 200 565 199 564 199 c 0
 558 199 567 208 590 227 c 2
 646 273 l 1
 693 314 728 348 751 376 c 1
 746 413 728 445 697 472 c 0
 670 496 638 513 601 524 c 0
 582 529 551 532 509 533 c 0
 474 534 456 536 456 538 c 0
 456 539 457 540 458 541 c 0
 489 551 519 556 548 556 c 0
 574 556 606 552 644 543 c 0
 714 526 763 492 791 441 c 1
673 702 m 0x0c
 668 702 666 704 666 708 c 0
 666 711 667 713 670 715 c 2
 775 796 l 2
 782 802 788 805 792 805 c 0
 798 805 801 801 801 792 c 0
 801 784 798 778 793 773 c 0
 786 767 765 754 730 733 c 0
 696 712 677 702 673 702 c 0x0c
EndSplineSet
EndChar

StartChar: Ocircumflex
Encoding: 212 212 170
Width: 784
Flags: MW
HStem: -59 21G<236.5 324.5> -58 20 324 21G 350 21G 431 20G 457 20G 533 23 615 21<621.5 661 621.5 663.5> 760 20G
VStem: 24 54<69.5 128 57.5 149.5> 801 31<489 501.5>
LayerCount: 2
Fore
SplineSet
815 432 m 2x7fe0
 804 411 l 1
 809 394 812 375 812 356 c 0
 812 273 769 193 684 117 c 0
 553 0 406 -59 243 -59 c 0xbfe0
 230 -59 216 -59 201 -58 c 0
 96 -53 24 14 24 125 c 0
 24 174 38 228 65 288 c 0
 100 365 165 437 261 506 c 0
 368 583 477 625 588 634 c 0
 601 635 615 636 628 636 c 0
 694 636 745 623 781 596 c 0
 815 571 832 539 832 500 c 0
 832 478 826 455 815 432 c 2x7fe0
791 441 m 1
 798 458 801 474 801 490 c 0
 801 513 794 534 779 555 c 0
 750 595 700 615 627 615 c 0
 526 615 430 583 337 518 c 0
 251 458 183 381 133 286 c 0
 96 217 78 155 78 101 c 0
 78 14 122 -33 211 -38 c 0
 352 -46 487 7 614 120 c 0
 699 196 745 268 752 337 c 1
 717 298 657 253 572 201 c 1
 568 200 565 199 564 199 c 0
 558 199 567 208 590 227 c 2
 646 273 l 1
 693 314 728 348 751 376 c 1
 746 413 728 445 697 472 c 0
 670 496 638 513 601 524 c 0
 582 529 551 532 509 533 c 0
 474 534 456 536 456 538 c 0
 456 539 457 540 458 541 c 0
 489 551 519 556 548 556 c 0
 574 556 606 552 644 543 c 0
 714 526 763 492 791 441 c 1
575 686 m 1
 564 688 568 693 581 703 c 1
 651 746 703 781 737 810 c 1
 744 813 l 1
 753 812 773 794 804 761 c 1
 834 727 848 707 846 700 c 0
 844 693 842 690 837 690 c 0
 828 690 788 716 737 772 c 1
 722 762 695 746 652 718 c 0
 610 691 589 687 575 686 c 1
EndSplineSet
EndChar

StartChar: Ograve
Encoding: 210 210 171
Width: 784
Flags: MW
HStem: -59 21G<236.5 324.5> -58 20 533 23 615 21<621.5 661 621.5 663.5> 703 21G<785.5 789.5> 785 20G<664.5 670>
VStem: 24 54<69.5 128 57.5 149.5> 801 31<489 501.5>
LayerCount: 2
Fore
SplineSet
815 432 m 2x73
 804 411 l 1
 809 394 812 375 812 356 c 0
 812 273 769 193 684 117 c 0
 553 0 406 -59 243 -59 c 0xb3
 230 -59 216 -59 201 -58 c 0
 96 -53 24 14 24 125 c 0
 24 174 38 228 65 288 c 0
 100 365 165 437 261 506 c 0
 368 583 477 625 588 634 c 0
 601 635 615 636 628 636 c 0
 694 636 745 623 781 596 c 0
 815 571 832 539 832 500 c 0
 832 478 826 455 815 432 c 2x73
791 441 m 1
 798 458 801 474 801 490 c 0
 801 513 794 534 779 555 c 0
 750 595 700 615 627 615 c 0
 526 615 430 583 337 518 c 0
 251 458 183 381 133 286 c 0
 96 217 78 155 78 101 c 0
 78 14 122 -33 211 -38 c 0
 352 -46 487 7 614 120 c 0
 699 196 745 268 752 337 c 1
 717 298 657 253 572 201 c 1
 568 200 565 199 564 199 c 0
 558 199 567 208 590 227 c 2
 646 273 l 1
 693 314 728 348 751 376 c 1
 746 413 728 445 697 472 c 0
 670 496 638 513 601 524 c 0
 582 529 551 532 509 533 c 0
 474 534 456 536 456 538 c 0
 456 539 457 540 458 541 c 0
 489 551 519 556 548 556 c 0
 574 556 606 552 644 543 c 0
 714 526 763 492 791 441 c 1
794 708 m 0x0c
 794 705 792 703 787 703 c 0
 784 703 765 713 730 734 c 0
 695 755 674 768 667 774 c 0
 661 778 658 784 658 792 c 0
 658 801 661 805 668 805 c 0
 672 805 678 802 685 797 c 0
 711 778 746 751 790 715 c 0
 793 713 794 711 794 708 c 0x0c
EndSplineSet
EndChar

StartChar: Uacute
Encoding: 218 218 172
Width: 801
Flags: MW
HStem: -19 45<333 394> 638 23<579 597.5> 701 20G<915 920>
VStem: 14 33<172.5 188.5 150 238.5> 656 42<595.5 612.5>
LayerCount: 2
Fore
SplineSet
967 546 m 1
 970 531 962 510 944 483 c 2
 826 316 l 2
 782 252 742 191 707 132 c 0
 665 62 645 21 648 10 c 1
 666 16 l 1
 679 23 694 33 709 44 c 0
 727 57 742 70 753 81 c 1
 762 88 767 91 769 91 c 1
 770 90 771 90 771 89 c 0
 771 83 762 70 744 51 c 1
 697 10 662 -10 640 -10 c 0
 623 -10 614 -4 614 9 c 0
 614 22 627 52 654 101 c 0
 702 190 764 289 839 400 c 1
 829 388 808 364 776 329 c 1
 691 242 632 183 599 150 c 0
 538 89 498 51 481 38 c 0
 432 0 386 -19 345 -19 c 0
 321 -19 307 -11 303 4 c 0
 296 34 344 122 447 267 c 0
 526 378 575 448 595 479 c 0
 636 542 656 584 656 607 c 0
 656 618 652 625 643 628 c 0
 626 635 608 638 587 638 c 0
 514 638 420 599 306 521 c 0
 233 470 170 409 119 337 c 0
 71 268 47 211 47 166 c 0
 47 134 60 115 87 110 c 0
 98 108 108 107 119 107 c 0
 153 107 188 118 224 140 c 0
 242 151 265 169 292 193 c 1
 310 199 l 1
 297 174 272 151 234 128 c 0
 191 102 148 89 106 89 c 0
 96 89 86 90 76 92 c 0
 60 95 46 104 35 119 c 0
 21 137 14 159 14 186 c 0
 14 291 113 414 310 555 c 0
 349 582 394 606 447 627 c 0
 506 650 557 661 601 661 c 0
 624 661 645 657 662 650 c 0
 686 640 698 625 698 604 c 0
 698 583 683 550 654 504 c 0
 634 472 589 409 520 315 c 0
 491 276 462 232 432 181 c 0
 391 112 371 66 371 43 c 0
 371 32 376 26 385 26 c 0
 403 26 437 45 486 82 c 0
 603 171 741 316 900 517 c 0
 925 549 946 565 961 565 c 0
 967 565 970 562 970 556 c 0
 970 553 969 550 967 546 c 1
798 618 m 0
 794 618 792 620 792 625 c 0
 792 627 793 629 795 631 c 2
 900 712 l 2
 907 718 913 721 917 721 c 0
 923 721 926 717 926 708 c 0
 926 701 923 695 918 690 c 0
 911 684 890 670 855 649 c 0
 821 628 802 618 798 618 c 0
EndSplineSet
EndChar

StartChar: Ucircumflex
Encoding: 219 219 173
Width: 801
Flags: MW
HStem: -19 45<333 394> 636 21G 638 23<579 597.5> 662 21G 696 20G 743 20G 769 20G
VStem: 14 33<172.5 188.5 150 238.5> 656 42<595.5 612.5>
LayerCount: 2
Fore
SplineSet
967 546 m 1xdf80
 970 531 962 510 944 483 c 2
 826 316 l 2
 782 252 742 191 707 132 c 0
 665 62 645 21 648 10 c 1
 666 16 l 1
 679 23 694 33 709 44 c 0
 727 57 742 70 753 81 c 1
 762 88 767 91 769 91 c 1
 770 90 771 90 771 89 c 0
 771 83 762 70 744 51 c 1
 697 10 662 -10 640 -10 c 0
 623 -10 614 -4 614 9 c 0
 614 22 627 52 654 101 c 0
 702 190 764 289 839 400 c 1
 829 388 808 364 776 329 c 1
 691 242 632 183 599 150 c 0
 538 89 498 51 481 38 c 0
 432 0 386 -19 345 -19 c 0
 321 -19 307 -11 303 4 c 0
 296 34 344 122 447 267 c 0
 526 378 575 448 595 479 c 0
 636 542 656 584 656 607 c 0
 656 618 652 625 643 628 c 0
 626 635 608 638 587 638 c 0
 514 638 420 599 306 521 c 0
 233 470 170 409 119 337 c 0
 71 268 47 211 47 166 c 0
 47 134 60 115 87 110 c 0
 98 108 108 107 119 107 c 0
 153 107 188 118 224 140 c 0
 242 151 265 169 292 193 c 1
 310 199 l 1
 297 174 272 151 234 128 c 0
 191 102 148 89 106 89 c 0
 96 89 86 90 76 92 c 0
 60 95 46 104 35 119 c 0
 21 137 14 159 14 186 c 0
 14 291 113 414 310 555 c 0
 349 583 394 607 447 627 c 0
 506 650 557 661 601 661 c 0xbf80
 624 661 645 657 662 650 c 0
 686 640 698 625 698 604 c 0
 698 583 683 550 654 504 c 0
 634 472 589 409 520 315 c 0
 491 276 462 232 432 181 c 0
 391 112 371 66 371 43 c 0
 371 32 376 26 385 26 c 0
 403 26 437 45 486 82 c 0
 603 171 741 316 900 517 c 0
 925 549 946 565 961 565 c 0
 967 565 970 562 970 556 c 0
 970 553 969 550 967 546 c 1xdf80
779 677 m 0
 761 672 747 679 767 696 c 1
 824 731 841 744 874 769 c 0
 889 780 901 795 919 780 c 0
 930 771 943 759 961 739 c 0
 991 705 1004 692 1004 681 c 0
 1004 674 1000 671 995 671 c 0
 988 671 970 687 936 718 c 0
 925 728 909 740 896 748 c 1
 881 738 854 722 811 694 c 0
 794 683 785 678 779 677 c 0
EndSplineSet
EndChar

